<?xml version="1.0" standalone="no"?>
<!DOCTYPE svg PUBLIC "-//W3C//DTD SVG 1.1//EN" "http://www.w3.org/Graphics/SVG/1.1/DTD/svg11.dtd" >
<svg xmlns="http://www.w3.org/2000/svg" xmlns:xlink="http://www.w3.org/1999/xlink" version="1.1">
<metadata>
Created by FontForge 20201107 at Tue Sep  3 15:26:23 2024
 By 
Copyright 2018 The Sour Gummy Project Authors (https://github.com/eifetx/Sour-Gummy-Fonts)
</metadata>
<defs>
<font id="SourGummy-Black" horiz-adv-x="0" >
  <font-face 
    font-family="Sour Gummy Black"
    font-weight="900"
    font-stretch="normal"
    units-per-em="1000"
    panose-1="0 0 0 0 0 0 0 0 0 0"
    ascent="800"
    descent="-200"
    x-height="482"
    cap-height="651"
    bbox="-77 -286.12 1276 885"
    underline-thickness="50"
    underline-position="-125"
    unicode-range="U+0020-FB01"
  />
<missing-glyph horiz-adv-x="620" 
d="M467 41q-32 2 -50.5 15.5t-27 29.5t-11 28l-2.5 12q2 122 4.5 219.5t-1.5 177.5q-33 -4 -59 -8.5t-52 -10t-62 -12.5l-10 -0.5t-25.5 1t-32 6.5t-30 16t-18.5 30q-7 29 -3 49t13 32t17 17.5l8 5.5q49 9 89 17t77 13.5t75 8t81 0.5q36 2 58.5 -8.5t34.5 -28t16.5 -36
t5.5 -32.5q3 -58 5 -103t3.5 -84.5t1 -80.5t-3 -89.5t-7.5 -113.5l-2 -11.5t-10.5 -26.5t-27.5 -25.5t-54 -7.5zM175 2q-36 -2 -58.5 8.5t-34.5 28t-16.5 36t-5.5 32.5q-3 58 -5 103t-3.5 84.5t-1 80.5t3 90t7.5 113l2 11.5t10.5 26.5t27.5 25.5t54 7.5q32 -2 50.5 -15.5
t27 -29.5t11 -28l2.5 -12q-1 -122 -4 -219.5t1 -177.5q34 4 59.5 8.5t52 10.5t61.5 12l10.5 0.5t26 -1t32 -6.5t29.5 -16t18 -30q8 -30 3.5 -50t-13.5 -32t-17 -17l-8 -5q-49 -9 -89 -17t-77 -13.5t-74.5 -8t-81.5 -0.5z" />
    <glyph glyph-name="fi" unicode="fi" horiz-adv-x="574" 
d="M193 -1q-39 0 -61 13.5t-32.5 30.5t-13 30l-2.5 13q-3 60 -4.5 106.5t-1.5 87t1 82.5t4 91q7 57 27.5 94t50.5 58t64 30.5t67 11.5q45 -1 92.5 -15.5t87.5 -40.5t62 -61l3 -9.5t2.5 -23.5t-10 -28.5t-35.5 -25.5q-16 -6 -32 -4t-27 6l-11 4q-8 3 -23.5 10t-33.5 14
t-33 11t-23 1q-11 -2 -23 -29.5t-15 -76.5q-2 -68 -1 -118.5t2.5 -96.5t1.5 -103l-2.5 -9.5t-11 -22t-25 -21.5t-44.5 -9zM31 314q-3 21 4 34.5t17 22t18.5 12l8.5 3.5q59 7 120.5 11.5t124.5 6t128 -0.5l13 -4.5t30 -14.5t29.5 -27t11.5 -42q-1 -23 -11.5 -36t-24 -19
t-24 -7.5l-10.5 -1.5q-45 1 -97.5 1.5t-106 1.5t-101.5 4t-83 10l-11 4.5t-22.5 15t-13.5 26.5zM455 1q-27 2 -45 12.5t-29 24.5t-15.5 24l-4.5 10q-6 34 -7.5 75t0.5 89.5t7 103.5l2.5 10t10.5 22.5t26 22t48 8.5q33 -1 52 -14t28.5 -29.5t12.5 -29l3 -12.5
q-2 -52 -3.5 -90t-1 -74t2.5 -84l-2 -11t-10 -25.5t-25.5 -24.5t-49.5 -8z" />
    <glyph glyph-name="f_f" unicode="ff" horiz-adv-x="817" 
d="M493 -1q-39 0 -61 13.5t-32.5 30.5t-13 30l-2.5 13q-3 60 -4.5 106.5t-1.5 87t1 82.5t4 91q7 57 27.5 94t50.5 58t64 30.5t67 11.5q45 -1 82.5 -16t65 -38t41.5 -48l3 -9.5t2.5 -23.5t-10 -28.5t-35.5 -25.5q-16 -6 -32 -4t-27 6l-11 4q-16 7 -30 16.5t-30 4.5
q-11 -2 -23 -29.5t-15 -76.5q-2 -68 -1 -118.5t2.5 -96.5t1.5 -103l-2.5 -9.5t-11 -22t-25 -21.5t-44.5 -9zM193 -1q-39 0 -61 13.5t-32.5 30.5t-13 30l-2.5 13q-3 60 -4.5 106.5t-1.5 87t1 82.5t4 91q7 57 27.5 94t50.5 58t64 30.5t67 11.5q45 -1 82.5 -16t65 -38t41.5 -48
l3 -9.5t2.5 -23.5t-10 -28.5t-35.5 -25.5q-16 -6 -32 -4t-27 6l-11 4q-16 7 -30 16.5t-30 4.5q-11 -2 -23 -29.5t-15 -76.5q-2 -68 -1 -118.5t2.5 -96.5t1.5 -103l-2.5 -9.5t-11 -22t-25 -21.5t-44.5 -9zM78 268q-5 0 -15.5 4.5t-20 15t-11.5 26.5q-3 21 4 34.5t17 22
t18.5 12l8.5 3.5q44 5 80.5 9t71 6.5t73 3t87.5 -1.5l13 -4.5t30 -14.5t29.5 -27t11.5 -42q-1 -23 -11.5 -36t-24 -19t-24 -7.5l-10.5 -1.5q-89 2 -172.5 3t-154.5 14zM378 268q-2 0 -12.5 4.5t-21.5 15t-13 26.5q-3 21 4 34.5t17 22t18.5 12l8.5 3.5q44 5 80.5 9t71 6.5
t73 3t87.5 -1.5l13 -4.5t30 -14.5t29.5 -27t11.5 -42q-1 -23 -11.5 -36t-24 -19t-24 -7.5l-10.5 -1.5q-59 2 -116.5 2t-110.5 3t-100 12z" />
    <glyph glyph-name="f_f_i" unicode="ffi" horiz-adv-x="874" 
d="M493 -1q-39 0 -61 13.5t-32.5 30.5t-13 30l-2.5 13q-3 60 -4.5 106.5t-1.5 87t1 82.5t4 91q7 57 27.5 94t50.5 58t64 30.5t67 11.5q45 -1 92.5 -15.5t87.5 -40.5t62 -61l3 -9.5t2.5 -23.5t-10 -28.5t-35.5 -25.5q-16 -6 -32 -4t-27 6l-11 4q-8 3 -23.5 10t-33.5 14
t-33 11t-23 1q-11 -2 -23 -29.5t-15 -76.5q-2 -68 -1 -118.5t2.5 -96.5t1.5 -103l-2.5 -9.5t-11 -22t-25 -21.5t-44.5 -9zM31 314q-3 21 4 34.5t17 22t18.5 12l8.5 3.5q44 5 80.5 9t71 6.5t73 3t87.5 -1.5l13 -4.5t30 -14.5t29.5 -27t11.5 -42q-1 -23 -11.5 -36t-24 -19
t-24 -7.5l-10.5 -1.5q-89 2 -172.5 3t-154.5 14l-11 4.5t-22.5 15t-13.5 26.5zM193 -1q-39 0 -61 13.5t-32.5 30.5t-13 30l-2.5 13q-3 60 -4.5 106.5t-1.5 87t1 82.5t4 91q7 57 27.5 94t50.5 58t64 30.5t67 11.5q45 -1 82.5 -16t65 -38t41.5 -48l3 -9.5t2.5 -23.5t-10 -28.5
t-35.5 -25.5q-16 -6 -32 -4t-27 6l-11 4q-16 7 -30 16.5t-30 4.5q-11 -2 -23 -29.5t-15 -76.5q-2 -68 -1 -118.5t2.5 -96.5t1.5 -103l-2.5 -9.5t-11 -22t-25 -21.5t-44.5 -9zM766 251q-45 1 -97.5 1.5t-106 1.5t-101.5 4t-83 10l-11 4.5t-22.5 15t-13.5 26.5q-3 21 4 34.5
t17 22t18.5 12l8.5 3.5q59 7 120.5 11.5t124.5 6t128 -0.5l13 -4.5t30 -14.5t29.5 -27t11.5 -42q-1 -23 -11.5 -36t-24 -19t-24 -7.5zM755 1q-27 2 -45 12.5t-29 24.5t-15.5 24l-4.5 10q-6 34 -7.5 75t0.5 89.5t7 103.5l2.5 10t10.5 22.5t26 22t48 8.5q33 -1 52 -14
t28.5 -29.5t12.5 -29l3 -12.5q-2 -52 -3.5 -90t-1 -74t2.5 -84l-2 -11t-10 -25.5t-25.5 -24.5t-49.5 -8z" />
    <glyph glyph-name=".notdef" horiz-adv-x="620" 
d="M467 41q-32 2 -50.5 15.5t-27 29.5t-11 28l-2.5 12q2 122 4.5 219.5t-1.5 177.5q-33 -4 -59 -8.5t-52 -10t-62 -12.5l-10 -0.5t-25.5 1t-32 6.5t-30 16t-18.5 30q-7 29 -3 49t13 32t17 17.5l8 5.5q49 9 89 17t77 13.5t75 8t81 0.5q36 2 58.5 -8.5t34.5 -28t16.5 -36
t5.5 -32.5q3 -58 5 -103t3.5 -84.5t1 -80.5t-3 -89.5t-7.5 -113.5l-2 -11.5t-10.5 -26.5t-27.5 -25.5t-54 -7.5zM175 2q-36 -2 -58.5 8.5t-34.5 28t-16.5 36t-5.5 32.5q-3 58 -5 103t-3.5 84.5t-1 80.5t3 90t7.5 113l2 11.5t10.5 26.5t27.5 25.5t54 7.5q32 -2 50.5 -15.5
t27 -29.5t11 -28l2.5 -12q-1 -122 -4 -219.5t1 -177.5q34 4 59.5 8.5t52 10.5t61.5 12l10.5 0.5t26 -1t32 -6.5t29.5 -16t18 -30q8 -30 3.5 -50t-13.5 -32t-17 -17l-8 -5q-49 -9 -89 -17t-77 -13.5t-74.5 -8t-81.5 -0.5z" />
    <glyph glyph-name=".null" 
 />
    <glyph glyph-name="nonmarkingreturn" horiz-adv-x="333" 
 />
    <glyph glyph-name="space" unicode=" " horiz-adv-x="260" 
 />
    <glyph glyph-name="exclam" unicode="!" horiz-adv-x="277" 
d="M133 195q-25 4 -39.5 16.5t-20 24.5l-5.5 12q-7 48 -14.5 96t-11.5 105.5t-4 133.5l2 11t11 25t29 24.5t55 9.5t57 -13t33.5 -29t15.5 -34t4.5 -28.5l0.5 -11.5q-7 -55 -12 -92.5t-9.5 -67.5t-10.5 -64t-16 -83l-5.5 -10.5t-19.5 -19.5t-40 -5zM131 -2q-28 0 -51 12
t-36.5 31.5t-13.5 43.5t13.5 43.5t36.5 31t51 11.5q29 0 52 -11.5t36.5 -31t13.5 -43.5q0 -32 -13.5 -51.5t-36.5 -27.5t-52 -8z" />
    <glyph glyph-name="quotedbl" unicode="&#x22;" horiz-adv-x="359" 
d="M248 483q-24 6 -36.5 18.5t-17 23l-4.5 10.5q1 12 -1.5 21t-5 20t-1.5 28l4 10.5t16.5 21.5t38.5 12q30 1 48 -9t26 -23.5t10.5 -23.5l2.5 -10q1 -28 -5 -44.5t-12 -27.5l-6.5 -8.5t-20.5 -15.5t-36 -3zM96 483q-24 6 -36.5 18.5t-17 23l-4.5 10.5q1 12 -1.5 21t-5 20
t-0.5 28l3.5 10.5t16 21.5t38.5 12q30 1 48 -9t26 -23.5t10.5 -23.5l2.5 -10q1 -28 -5 -44.5t-12 -27.5l-6.5 -8.5t-20.5 -15.5t-36 -3z" />
    <glyph glyph-name="numbersign" unicode="#" horiz-adv-x="705" 
d="M502 3q-32 0 -51 13t-29 29.5t-13 29l-3 12.5q-4 43 -6.5 91.5t-3.5 99t0.5 102.5t4.5 103t7 99l2 10.5t9.5 24t24.5 23.5t47 9q33 0 53 -11.5t30 -27.5t14 -32.5t4 -27.5v-11q-4 -40 -6 -85t-2.5 -93t0 -96.5t2.5 -97t4 -95.5l-1.5 -10.5t-9.5 -24.5t-26 -24.5t-51 -9.5
zM207 3q-32 0 -51 13t-29 29.5t-13 29l-3 12.5q-4 43 -6.5 91.5t-3.5 99t0.5 102.5t4.5 103t7 99l2 10.5t9.5 24t24.5 23.5t47 9q33 0 52.5 -11.5t30 -27.5t14.5 -32.5t4 -27.5v-11q-4 -40 -6 -85t-2.5 -93t0 -96.5t2.5 -97t4 -95.5l-1.5 -10.5t-9.5 -24.5t-26 -24.5
t-51 -9.5zM109 83l-11.5 2.5t-26.5 10.5t-27 23.5t-13 41.5t9 40.5t23.5 21t24 8l10.5 1.5q113 11 237 16t249 5l9 -2.5t23 -8.5t27.5 -16t22.5 -25t9 -35q0 -27 -10 -42.5t-23 -22t-23 -8.5l-10 -2zM109 354l-11.5 2.5t-26.5 10t-27 23t-13 41.5t9 41t23.5 21.5t24 8
l10.5 1.5q113 11 237 15.5t249 4.5l9 -2.5t23 -8t27.5 -15.5t22.5 -25t9 -35q0 -27 -10 -42.5t-23 -22t-23 -8.5l-10 -2z" />
    <glyph glyph-name="dollar" unicode="$" horiz-adv-x="557" 
d="M316 2q-58 -2 -101 4t-71 14.5t-42 15l-14 6.5l-8 5t-19 14.5t-19.5 23t-10.5 30t8 35.5q11 21 26.5 29.5t30 9t24.5 -1.5l10 -2q33 -12 68 -17t65 -4t49.5 8t20.5 19q0 6 -8.5 12t-25.5 13t-41 15.5t-54 20.5q-18 7 -42 22t-47.5 36t-41.5 47.5t-25.5 57.5t0.5 65.5
t38 70.5q31 37 67 58.5t74 31t73 11t62.5 -1t43.5 -6l16 -3.5l10.5 -3t25.5 -10t30 -18.5t23.5 -29t5.5 -42.5q-4 -28 -18 -41t-30.5 -16t-29 -1.5l-12.5 1.5q-33 10 -67.5 6t-62.5 -15.5t-44.5 -25.5t-13.5 -25q3 -10 24.5 -20t53.5 -22.5t66.5 -28.5t64.5 -37t47 -48
q30 -48 32 -88.5t-16.5 -72.5t-50 -54.5t-69.5 -34.5t-75 -13zM305 -109q-21 -1 -36 8.5t-22.5 20l-7.5 10.5q-5 10 -12.5 30t-13 42t-6.5 37h182q1 -17 -1.5 -40t-6.5 -43t-10 -30l-6 -8.5t-20.5 -17t-39.5 -9.5zM211 600q-1 18 1.5 40.5t7.5 43t10 29.5l6 8.5t20 17
t39 9.5q22 1 36.5 -9t22.5 -20.5l8 -10.5q6 -9 13 -29t12.5 -41.5t5.5 -37.5h-182z" />
    <glyph glyph-name="percent" unicode="%" horiz-adv-x="926" 
d="M312 10q-26 9 -38 23.5t-15 29t-1.5 24.5l1.5 10q26 67 66.5 152.5t88.5 180.5t96 187l5.5 8.5t17 18t30 14t43.5 -3.5q29 -9 41.5 -23t15.5 -29t1 -25l-2 -10q-54 -110 -100 -208.5t-83 -181.5t-65 -147l-11 -10t-33.5 -16t-57.5 6zM190 316q-76 0 -118 44.5t-42 117.5
q0 37 17 71.5t46 61.5t65 43t74 16q51 0 88.5 -22.5t58.5 -61t21 -88.5q0 -37 -18 -69.5t-48.5 -58t-68 -40t-75.5 -14.5zM190 454q7 -4 17 -1.5t20 10t16 18.5q11 18 11 33.5t-10 20.5q-7 4 -17 1t-20 -11t-17 -20q-10 -17 -10 -31t10 -20zM687 0q-76 0 -118.5 44.5
t-42.5 117.5q0 37 17 71.5t46 61.5t65 43t74 16q51 0 88.5 -22.5t58.5 -61t21 -88.5q0 -37 -18 -69.5t-48.5 -58t-67.5 -40t-75 -14.5zM686 138q7 -4 17 -1.5t20 10t17 18.5q10 18 10.5 33t-10.5 21q-7 4 -17 1t-19.5 -11t-16.5 -20q-10 -17 -10.5 -31t9.5 -20z" />
    <glyph glyph-name="ampersand" unicode="&#x26;" horiz-adv-x="590" 
d="M124 25q-32 23 -56 54.5t-33.5 67t3.5 71.5q6 26 22 55.5t35.5 52.5t34.5 28q-27 23 -45 60.5t-14 86.5q7 44 26.5 70t48 40t60.5 21.5t63 13.5l109 3l10.5 -1.5t25.5 -6t30.5 -14.5t25.5 -27.5t10 -43.5q0 -18 -10.5 -29.5t-23.5 -18t-23 -9l-10 -2.5q-47 -1 -76.5 -4.5
t-47.5 -9t-30 -14.5l-5 -6t-7 -13.5t7 -14.5q5 -3 17 -10t38 -24l9.5 -8t19 -22t8.5 -33q-1 -18 -9 -28.5t-15.5 -15l-7.5 -4.5q-22 -10 -42 -28t-34 -34.5t-19 -24.5q-5 -9 -7 -22t6 -22t33 -8q25 10 38.5 16.5t21 11t12.5 6.5q20 24 29 42t12 32.5t3 25.5l1 11t9.5 25
t28.5 24.5t57 8.5q38 -2 57.5 -17.5t28 -34.5t9.5 -33.5l1 -14.5q-1 -46 -15.5 -81t-36.5 -61t-48 -46.5t-51 -38.5q-71 -40 -145.5 -38t-138.5 36zM290 -109q-21 -1 -36 8.5t-22.5 20l-7.5 10.5q-5 10 -12.5 30t-13 42t-6.5 37h182q1 -17 -1.5 -40t-6.5 -43t-10 -30
l-6 -8.5t-20.5 -17t-39.5 -9.5zM196 600q-1 18 1.5 40.5t7.5 43t10 29.5l6 8.5t20 17t39 9.5q22 1 36.5 -9t22.5 -20.5l8 -10.5q5 -9 12 -29t13 -41.5t6 -37.5h-182z" />
    <glyph glyph-name="quotesingle" unicode="'" horiz-adv-x="207" 
d="M96 483q-24 6 -36.5 18.5t-17 23l-4.5 10.5q1 12 -1.5 21t-5 20t-0.5 28l3.5 10.5t16 21.5t38.5 12q30 1 48 -9t26 -23.5t10.5 -23.5l2.5 -10q1 -28 -5 -44.5t-12 -27.5l-6.5 -8.5t-20.5 -15.5t-36 -3z" />
    <glyph glyph-name="parenleft" unicode="(" horiz-adv-x="346" 
d="M227 -29q-24 -7 -44 -1.5t-35 16t-23.5 19.5l-8.5 9q-45 74 -68 161t-15 202q8 52 22.5 97.5t39.5 90t64 91.5l13 11t35.5 19t51.5 -2q27 -10 39.5 -23t15.5 -26.5t0 -25t-6.5 -18.5l-3.5 -7q-27 -41 -42.5 -72.5t-24 -58t-12.5 -55t-9 -63.5q-4 -40 -1.5 -78.5t11.5 -73
t22 -64t28 -51.5l3.5 -11t3 -27.5t-12.5 -32.5t-43 -26z" />
    <glyph glyph-name="parenright" unicode=")" horiz-adv-x="346" 
d="M119 -29q-31 9 -43 25t-12.5 32.5t3 28l3.5 11.5q15 22 28 51.5t22 64t12 73t-2 78.5q-4 35 -8.5 63.5t-12.5 55t-24 58t-43 72.5l-3.5 7t-6.5 19t0 25.5t15.5 26t39.5 22.5q29 11 51.5 3t35.5 -19.5l13 -11.5q39 -47 64 -91.5t40 -90t22 -97.5q8 -115 -15 -202t-68 -161
l-8.5 -9t-23.5 -20t-35 -16t-44 2z" />
    <glyph glyph-name="asterisk" unicode="*" horiz-adv-x="405" 
d="M85 426q-16 7 -21.5 17.5t-5.5 19.5v9q2 27 15 57.5t32.5 57.5t39 44t33.5 17q10 3 26 1t32 -7.5t25 -15.5q26 -44 49 -74t37 -57l2.5 -8t2 -20t-9 -23.5t-29.5 -19.5q-24 -9 -42.5 -4.5t-30.5 14t-18 18l-6 8.5l-17 31q-14 -18 -26.5 -34.5t-20.5 -23.5l-8.5 -5.5
t-23.5 -7.5t-35 6zM348 491q-76 8 -147 12.5t-137 -3.5l-7.5 4.5t-15.5 13.5t-10 23q-1 20 6.5 30t16 13.5l8.5 3.5q47 11 85 14.5t77.5 1t89.5 -8.5l8.5 -2.5t20 -9.5t21 -18.5t10.5 -29.5q2 -16 -5 -25.5t-14 -14z" />
    <glyph glyph-name="plus" unicode="+" horiz-adv-x="582" 
d="M293 60q-32 1 -51 13.5t-28.5 29t-12.5 29l-3 12.5q-6 54 -7 96.5t1 82t6 84.5t9 106l2 10.5t9.5 23.5t24.5 23t47 10q33 -1 53 -12t30 -27.5t14 -32.5t4 -27v-11q-6 -68 -8.5 -120.5t-2.5 -103.5t1 -117l-1.5 -10.5t-9.5 -24.5t-26 -24t-51 -10zM31 318q0 32 13 51
t29.5 28.5t29 12.5l12.5 3q44 5 79 6.5t67 1t65 -3t71 -6t87 -7.5l10.5 -2t23.5 -9.5t23 -24.5t10 -47q-1 -33 -12 -53t-27.5 -30t-33 -14t-27.5 -4h-11q-51 5 -92.5 7.5t-79.5 3.5t-78.5 0.5t-89.5 -1.5l-10.5 1.5t-24.5 9.5t-24 26t-10 51z" />
    <glyph glyph-name="comma" unicode="," horiz-adv-x="261" 
d="M91 -103q-26 8 -36.5 23.5t-12 28.5l-1.5 13l6 34q-19 26 -16.5 54t22 49t49.5 26q39 2 64 -8t38.5 -26t19.5 -32t7 -28q0 -21 -7.5 -45t-19.5 -44t-28 -30l-10.5 -7.5t-29.5 -11.5t-45 4z" />
    <glyph glyph-name="hyphen" unicode="-" horiz-adv-x="526" 
d="M122 241h-12t-26 4.5t-28.5 16t-20.5 33.5q-8 24 -4.5 39.5t12 24.5t16 12.5l7.5 3.5q23 5 53.5 10.5t66 10t74 6t79 0t80.5 -8.5l11.5 -5t27 -15t27 -25t11.5 -36q0 -27 -11 -42.5t-25.5 -23t-25.5 -9.5l-11 -2q-42 3 -74.5 5t-59 3.5t-52 1.5t-53 -1t-62.5 -3z" />
    <glyph glyph-name="period" unicode="." horiz-adv-x="263" 
d="M131 -2q-28 0 -51 12t-36.5 31.5t-13.5 43.5t13.5 43.5t36.5 31t51 11.5q29 0 52 -11.5t36.5 -31t13.5 -43.5q0 -49 -29.5 -68t-72.5 -19z" />
    <glyph glyph-name="slash" unicode="/" horiz-adv-x="468" 
d="M85 10q-26 9 -38 23.5t-15 29t-1.5 24.5l1.5 10q26 67 66.5 152.5t88.5 180.5t96 187l5.5 8.5t17 18t29.5 14t44 -3.5q29 -9 41.5 -23t15.5 -29t1 -25l-2 -10q-54 -110 -100 -208.5t-83 -181.5t-65 -147l-11 -10t-33.5 -16t-57.5 6z" />
    <glyph glyph-name="zero" unicode="0" horiz-adv-x="603" 
d="M254 -7q-68 0 -119.5 40t-79.5 110t-24 161q3 68 21.5 131.5t51.5 113.5t79 79.5t103 29.5q41 0 83 -10.5t80 -34.5t67 -64t44.5 -98.5t11.5 -138.5q-3 -64 -23 -115.5t-53 -89.5t-73.5 -63.5t-84 -38t-84.5 -12.5zM92 133l-43 133q97 68 212 115.5t245 78.5l50 -146
q-124 -16 -239.5 -62.5t-224.5 -118.5zM283 178q21 0 42.5 9.5t39.5 28.5t30 48t13 68q2 43 -7 72.5t-25 47t-36 25t-41 7.5t-39 -13t-32 -36t-22.5 -52.5t-10.5 -63.5q-1 -44 9.5 -76t31 -48.5t47.5 -16.5z" />
    <glyph glyph-name="one" unicode="1" horiz-adv-x="437" 
d="M316 5q-34 1 -53.5 16t-28 34.5t-11 34l-2.5 14.5q-3 35 -5.5 76t-3 84t0 85t3.5 78l-54 -43l-8.5 -4.5t-22.5 -7.5t-32.5 0.5t-39.5 19.5q-20 16 -25.5 32t-3 29t7.5 21l5 8l161 125q40 37 77.5 40.5t63.5 -3.5q23 -7 35 -20.5t18 -28t7 -24.5l1 -10q-4 -40 -5.5 -86
t-1.5 -96t1 -101t3 -100.5t3 -95.5l-1.5 -12t-9 -27.5t-26 -27t-53.5 -10.5z" />
    <glyph glyph-name="two" unicode="2" horiz-adv-x="508" 
d="M156 -1q-16 -1 -35.5 6t-35.5 21.5t-23 34t0 41.5q74 114 117.5 189.5t60 122t10.5 71.5q-2 5 -9 12.5t-20 8.5q-19 -3 -36.5 -11t-28.5 -16l-9 -5t-23.5 -9t-32.5 -1t-37 19q-16 14 -20.5 26.5t-2.5 23.5t6.5 18.5t7.5 10.5q22 25 48 43.5t61.5 30t84.5 14.5
q47 -2 88 -25t70 -60.5t40.5 -83t-0.5 -91.5q-8 -29 -17 -57.5t-22.5 -58.5t-33.5 -63t-49 -72h84l11.5 -3t26.5 -10.5t27 -21t13 -33.5t-7 -32.5t-19 -19.5t-19.5 -9.5l-8.5 -2.5z" />
    <glyph glyph-name="three" unicode="3" horiz-adv-x="478" 
d="M272 7q-23 -3 -51.5 2t-57 16t-54 27t-42.5 36l-9 9t-18 24.5t-10 34.5t16 38q15 17 33 20.5t34.5 0t27.5 -8.5l11 -5q21 -14 33 -23.5t23.5 -15t28.5 -7.5q18 5 25.5 17t8 27t-4 29t-9.5 22q-6 12 -30 22.5t-54 25.5q-14 4 -23.5 18t-10.5 31t10 31.5t37 20.5
q6 3 15.5 7.5t23.5 13t32 21.5q4 4 7.5 19t3.5 30t-8 19q-10 5 -29 4.5t-41.5 -3.5t-44.5 -7l-8.5 1t-21.5 5t-26 12t-21 22q-10 18 -9.5 31.5t7 22.5t12.5 13.5l6 4.5q37 20 66 28.5t59 7.5q19 1 45 -2.5t53 -12t49 -24.5q24 -17 43 -45.5t29.5 -62t8.5 -66t-20 -58.5
q-2 -6 -10 -15.5t-15.5 -18t-11.5 -12.5q9 -11 22.5 -27t26 -40.5t17.5 -59.5q6 -48 -7.5 -85t-40 -63t-59.5 -39t-67 -13z" />
    <glyph glyph-name="four" unicode="4" horiz-adv-x="525" 
d="M412 4q-32 0 -52 12.5t-31 29t-15.5 29l-4.5 12.5q-3 43 -4.5 75.5t-3 60t-1.5 53.5v56t1 68l-34 -39q-3 -5 -13 -15.5t-18 -18.5t-7 -9l117 13l24 -142q-37 -4 -67.5 -6t-63 -2t-75.5 1q-55 8 -85.5 29t-41 47.5t-5.5 54t20 48.5q48 55 85 94t71 71q38 41 72.5 69
t56.5 40q21 14 47.5 15.5t51.5 -7t41.5 -27.5t17.5 -47q-4 -40 -6 -86.5t-3 -97t-0.5 -102t2 -103.5t4.5 -101l-1 -11.5t-7.5 -26t-23 -26t-48.5 -11.5z" />
    <glyph glyph-name="five" unicode="5" horiz-adv-x="491" 
d="M245 6q-31 0 -66.5 9t-68 27.5t-56.5 46.5l-7 8t-12.5 21t-3 29.5t21.5 33.5q20 18 39.5 19.5t33 -3l13.5 -4.5q18 -7 39 -20t31 -19q20 -2 35 6.5t24 19.5t10 15q4 4 5 17.5t-1 29.5t-7.5 26.5t-16.5 7.5l-100 -27q-15 -3 -34.5 -1t-38 10t-32 24.5t-16.5 43.5
q-3 59 -4.5 108.5t-2 86.5t0.5 56q2 5 4 16t9 22.5t24 19.5t48 8l237 1l9 -1.5t22.5 -6.5t26.5 -14.5t21.5 -26t7.5 -40.5q-1 -22 -12.5 -33.5t-25.5 -15.5t-25 -4.5l-11 -0.5l-168 6q1 -9 3 -36.5t3 -48.5q33 2 56 -1t43.5 -10t43.5 -18q41 -21 67 -53.5t37 -70t9 -74
t-16 -64.5q-19 -41 -51.5 -69t-71 -42.5t-76.5 -13.5z" />
    <glyph glyph-name="six" unicode="6" horiz-adv-x="587" 
d="M279 7q-109 28 -174.5 100t-73.5 177q-1 78 17 140.5t48.5 108t68 74t73.5 37.5q70 17 138 4.5t128 -51.5l7.5 -8.5t15 -23t8.5 -32.5t-13 -36q-10 -13 -23 -17.5t-26 -4t-21.5 2.5l-8.5 2q-31 4 -62 10.5t-69 -0.5q-11 -6 -23.5 -16.5t-22.5 -24.5q-1 -2 -7 -11
t-11.5 -21.5t-6.5 -25.5q47 2 88 -4t89 -21q60 -19 95 -60.5t42 -91t-17 -94.5q-19 -45 -59 -71.5t-92 -36t-108 -5.5zM301 165q18 0 29 7t17 18q9 28 -28 38q-17 4 -36.5 1t-40.5 -11q3 -15 11.5 -27t21 -18.5t26.5 -7.5z" />
    <glyph glyph-name="seven" unicode="7" horiz-adv-x="500" 
d="M381 5q-31 1 -50 13.5t-29 28.5t-13 28.5l-3 12.5q-3 44 -5.5 97.5t-3.5 110.5t-0.5 112.5t3.5 103.5q-29 2 -53.5 0t-50 -4t-58.5 -2l-11.5 0.5t-27.5 4.5t-29.5 14.5t-17.5 31.5q-4 22 2 35.5t16.5 21t19 10.5l8.5 3q45 15 97.5 21.5t106 7t101.5 -6.5
q33 -3 50.5 -17.5t25.5 -32t9.5 -30.5l1.5 -13q-4 -40 -5.5 -85.5t-2 -93.5t0.5 -98t2.5 -100.5t4.5 -99.5l-2.5 -11.5t-11 -26.5t-26.5 -26t-49 -10z" />
    <glyph glyph-name="eight" unicode="8" horiz-adv-x="551" 
d="M286 256q-51 0 -97 12t-82 35t-56.5 56t-20.5 73q0 41 13.5 80.5t42.5 71.5t75.5 50.5t111.5 16.5q51 -1 96 -16.5t79 -42.5t53.5 -62t19.5 -76q0 -40 -18.5 -76t-51 -63t-75 -43t-90.5 -16zM286 -2q-51 0 -97 12t-82 35t-56.5 56t-20.5 73q0 41 13.5 80.5t42.5 71.5
t75.5 50.5t111.5 16.5q51 -1 96 -16.5t79 -42.5t53.5 -62t19.5 -76q0 -40 -18.5 -76t-51 -63t-75 -43t-90.5 -16zM269 154q10 0 20.5 4t19 10t13.5 14.5t5 17.5t-5 16.5t-13 13t-18.5 8.5t-21.5 3q-18 -1 -29.5 -8t-16.5 -18t-5 -23t6.5 -20.5t18 -13t26.5 -4.5zM269 412
q10 0 20.5 4t19 10t13.5 14.5t5 17.5t-5 16.5t-13 13t-18.5 8.5t-21.5 3q-18 -1 -29.5 -8t-16.5 -17.5t-5 -22.5t6.5 -20.5t18 -13.5t26.5 -5z" />
    <glyph glyph-name="nine" unicode="9" horiz-adv-x="586" 
d="M348 12q-70 -17 -138 -4.5t-127 51.5l-8 8.5t-15.5 23t-8.5 32.5t13 37q10 13 23 17.5t26 4t21.5 -2.5l8.5 -2q31 -4 62.5 -10.5t69.5 -0.5q11 6 23 16.5t22 25.5q2 2 7.5 10.5t11.5 21t7 25.5q-47 -2 -88 4t-90 21q-59 19 -94 60.5t-42 92t16 94.5q20 45 60 71t92.5 36
t107.5 5q109 -28 174 -99.5t73 -177.5q2 -78 -16.5 -140.5t-49 -108t-68 -73.5t-73.5 -38zM267 428q17 -4 36.5 -0.5t41.5 10.5q-3 15 -11.5 27t-21 19t-27.5 8q-18 -1 -28.5 -8t-16.5 -18q-11 -27 27 -38z" />
    <glyph glyph-name="colon" unicode=":" horiz-adv-x="263" 
d="M131 312q-28 0 -51 11.5t-36.5 31.5t-13.5 44t13.5 44t36.5 31.5t51 11.5q29 0 52 -11.5t36.5 -31.5t13.5 -44q0 -32 -13.5 -51.5t-36.5 -27.5t-52 -8zM131 115q-28 0 -51 12t-36.5 31.5t-13.5 43.5t13.5 43.5t36.5 31t51 11.5q29 0 52 -11.5t36.5 -31t13.5 -43.5
q0 -32 -13.5 -51.5t-36.5 -27.5t-52 -8z" />
    <glyph glyph-name="semicolon" unicode=";" horiz-adv-x="267" 
d="M96 60q-26 9 -36.5 24.5t-12 28l-1.5 12.5l6 34q-19 27 -16 54.5t22.5 48.5t48.5 26q40 2 64.5 -8t38 -25.5t19.5 -31.5t8 -28q0 -22 -7.5 -46t-19.5 -44t-28 -30l-10.5 -7.5t-29.5 -11.5t-46 4zM131 312q-28 0 -51 11.5t-36.5 31.5t-13.5 44t13.5 44t36.5 31.5t51 11.5
q29 0 52 -11.5t36.5 -31.5t13.5 -44q0 -32 -13.5 -51.5t-36.5 -27.5t-52 -8z" />
    <glyph glyph-name="less" unicode="&#x3c;" horiz-adv-x="413" 
d="M280 6q-36 -6 -59.5 4t-35.5 22l-12 12q-35 60 -66.5 111.5t-64.5 112.5q-13 22 -10.5 57.5t31.5 66.5l171 231l12 9t35 13.5t55 -10.5q26 -12 36 -27t10.5 -29t-2.5 -23l-3 -9l-148 -225q-20 -28 -9 -48l117 -190l0.5 -10t-3 -24t-16 -26.5t-38.5 -17.5z" />
    <glyph glyph-name="equal" unicode="=" horiz-adv-x="479" 
d="M449 189q0 -27 -11 -42.5t-25.5 -23t-25.5 -9.5l-11 -2q-42 3 -69.5 4.5t-47.5 2.5t-38 0.5t-41 -2t-58 -3.5h-10.5t-26 4.5t-29.5 16t-21 34.5q-8 24 -4.5 39t12 24t16 12.5l7.5 3.5q39 9 84.5 18.5t100.5 12t122 -8.5l11.5 -5t26.5 -15t26.5 -25t11.5 -36zM449 375
q0 -27 -11 -42.5t-25.5 -23t-25.5 -9.5l-11 -2q-42 3 -69.5 4.5t-47.5 2.5t-38 0.5t-41 -2t-58 -3.5l-10.5 0.5t-26 4.5t-29.5 16t-21 34q-8 24 -4.5 39t12 24t16 12.5l7.5 3.5q39 9 84.5 18.5t100.5 12t122 -8.5l11.5 -5t26.5 -15t26.5 -25t11.5 -36z" />
    <glyph glyph-name="greater" unicode="&#x3e;" horiz-adv-x="413" 
d="M133 6q-26 5 -38.5 17.5t-16 26.5t-3 24l0.5 10l117 190q11 20 -9 48l-148 225l-3 9t-2.5 23t10.5 29t36 27q32 15 55 10.5t35 -13.5l12 -9l171 -231q29 -31 31.5 -66.5t-10.5 -57.5q-33 -61 -64.5 -112.5t-66.5 -111.5l-12 -12t-35.5 -22t-59.5 -4z" />
    <glyph glyph-name="question" unicode="?" horiz-adv-x="560" 
d="M287 181q-30 4 -46.5 16t-23.5 26.5t-8.5 25l-1.5 10.5q-5 30 4.5 56t27.5 47.5t38 36.5q26 26 39 42t18 27.5t5 22.5q-4 5 -16.5 7t-25 2t-17.5 -2q-16 -3 -36 -7t-28 -8q-7 -5 -6.5 -13.5t5 -19t9.5 -23.5l1.5 -10.5t-2 -24.5t-18.5 -23q-24 -14 -45.5 -15t-38 5
t-25.5 12.5l-9 6.5q-54 56 -55.5 103.5t32.5 98.5q19 25 52.5 42t76 26t87.5 8q47 1 94.5 -13.5t85.5 -44t56 -74.5q7 -19 11 -42.5t-0.5 -51t-23.5 -59.5t-59 -69q-39 -27 -57.5 -44t-22.5 -30l-7 -13t-24 -25t-46 -9zM287 -2q-28 0 -51 12t-36.5 31.5t-13.5 43.5
t13.5 43.5t36.5 31t51 11.5t51 -11.5t37 -31t14 -43.5q0 -32 -14 -51.5t-37 -27.5t-51 -8z" />
    <glyph glyph-name="at" unicode="@" horiz-adv-x="887" 
d="M346 -149q-60 14 -116.5 47t-101 81t-70.5 106q-35 102 -25 190.5t54 182.5q41 74 101.5 122t137.5 71t168 18q38 -1 80.5 -11.5t85 -31t79.5 -51.5t65 -73t42 -96q14 -68 10.5 -126.5t-18.5 -109.5t-37 -99q-19 -29 -50.5 -43t-65.5 -14.5t-64 9.5q-32 12 -53.5 42.5
t-27.5 85.5q-20 -26 -38 -43t-37.5 -28.5t-46.5 -24.5q-35 -13 -66.5 -6t-54.5 24t-34 32q-29 40 -32 95t13 118q24 80 74.5 130.5t131.5 48.5q74 -3 125 -42.5t88 -127.5q2 -4 3.5 -13t3 -19.5t2.5 -22.5t2.5 -23t3.5 -19q5 -31 12.5 -26t12.5 41q5 43 4 74.5t-5 60.5
q-17 55 -49.5 89.5t-72 51t-79.5 16.5q-54 2 -106.5 -12.5t-95 -46t-67.5 -81.5q-27 -40 -39 -89.5t-10 -98.5t17 -89q9 -18 24.5 -43t43.5 -49.5t74 -39.5q17 -3 42.5 -2.5t55.5 9t57 28.5l15 5t39 2.5t51 -25.5q18 -15 22.5 -31t2 -29.5t-7 -22l-4.5 -8.5
q-40 -33 -85.5 -48.5t-92.5 -18t-91 3.5zM384 201q5 -3 14.5 9t20.5 31q11 20 23 41.5t25 46.5q-3 23 -9.5 32t-16.5 6t-21.5 -24.5t-24.5 -59.5q-6 -20 -10 -38.5t-4 -30.5t3 -13z" />
    <glyph glyph-name="A" unicode="A" horiz-adv-x="608" 
d="M127 -1q-37 5 -57 20.5t-28.5 34t-9.5 31.5l-1 13q2 77 22.5 157t46.5 162q33 87 61 133.5t53 66t47.5 23t45.5 3.5q17 3 41 -7t50 -31t48 -52.5t33 -72.5q10 -28 24.5 -71.5t29 -98t26.5 -116t18 -126.5l-1 -11t-8 -25.5t-24 -25.5t-49 -11t-53 12t-32.5 28.5t-16 28.5
l-4.5 12q-13 57 -19.5 97t-12.5 62q-14 56 -25 96.5t-23 77.5q-6 -21 -16.5 -49.5t-20.5 -57.5t-16 -53q-7 -38 -11.5 -59.5t-7 -37.5t-5 -36t-6.5 -56l-3.5 -10.5t-13.5 -24t-29.5 -22t-52.5 -4.5zM146 87l15 130q47 11 90.5 17.5t89.5 8t99 -3.5l17 -152q-35 6 -76 10
t-83.5 5t-81.5 -2.5t-70 -12.5z" />
    <glyph glyph-name="B" unicode="B" horiz-adv-x="581" 
d="M369 5q-52 -4 -105 -6.5t-99.5 2.5t-79 22t-44.5 51q-4 43 -7 92.5t-3.5 102.5t0.5 106.5t4 106t7 100.5q1 9 6.5 25t22.5 29t52 13h212q44 -6 84.5 -26t71 -49t43.5 -63q14 -27 14 -56t-9.5 -56.5t-26 -48.5t-35.5 -31q19 -11 37 -37.5t29 -57.5t7 -56
q-1 -41 -22.5 -72.5t-61.5 -53.5t-97 -37zM225 164q23 0 44 0.5t37.5 3t27.5 7.5q27 14 18 32q-4 10 -13.5 15.5t-22 8.5t-25.5 3l-69 -1q-1 -17 0 -34.5t3 -34.5zM227 431q22 -1 43.5 -0.5t43.5 4.5q15 5 24 12.5t10 19.5q-1 13 -12.5 21.5t-34.5 12.5q-6 1 -17.5 1
t-25 0.5t-28.5 0.5z" />
    <glyph glyph-name="C" unicode="C" horiz-adv-x="620" 
d="M278 5q-63 12 -108.5 40t-75 67.5t-45 83.5t-18.5 88t5 82q9 44 29.5 93.5t56.5 93t90 71t130 27.5q66 0 117 -26.5t83 -68t43 -88t-3 -87.5l-8 -13t-26 -24.5t-48 -8.5q-31 4 -47.5 21t-22.5 33l-6 16l-1 8t-4 20.5t-10 24.5t-18.5 20t-29.5 8q-27 0 -48.5 -15
t-37.5 -38.5t-27 -50t-17 -50t-7 -38.5q-1 -14 1 -29.5t7.5 -31t14 -29.5t21.5 -24t29 -15q14 -4 33.5 3t38 20t26.5 26l7 10t22.5 21t39.5 13.5t58 -12.5q29 -13 42.5 -29t16.5 -32.5t-0.5 -30t-7.5 -22l-4 -8.5l-9.5 -15.5t-30 -37.5t-54.5 -41.5t-82.5 -28t-114.5 3.5z
" />
    <glyph glyph-name="D" unicode="D" horiz-adv-x="643" 
d="M166 -2q-57 3 -86.5 28.5t-39.5 58.5q-8 125 -9 245.5t9 233.5q2 53 53 70t140 17q76 0 129.5 -13.5t90.5 -36t64 -51t49 -57.5q56 -112 45.5 -209.5t-81.5 -182.5q-41 -46 -99 -69.5t-126 -30t-139 -3.5zM224 180q51 -4 86.5 5t57.5 29t32.5 50t12.5 68q-3 50 -17 81.5
t-39 48.5t-58 21.5t-74 -0.5q-3 -73 -3 -148.5t2 -154.5z" />
    <glyph glyph-name="E" unicode="E" horiz-adv-x="545" 
d="M151 2q-42 4 -65 18.5t-32.5 32.5t-12 34.5t-3.5 25.5q-3 71 -5.5 126.5t-2.5 107t3 110.5t10 138q3 14 20 32.5t57 22.5l265 7l12 -0.5t30.5 -4t37 -12.5t31 -26t13.5 -44t-10 -42.5t-26 -23t-26.5 -9.5l-11.5 -2l-212 10q-2 -51 -3 -86t-1.5 -62t0 -52.5t0.5 -57.5
t1 -78q30 5 47.5 7.5t28.5 4.5t22.5 4t28.5 5.5t46 9.5h10t25.5 -2.5t32.5 -9.5t30.5 -19.5t18.5 -32.5q8 -29 2.5 -47.5t-17 -28.5t-21 -14l-9.5 -4q-46 -10 -82.5 -18t-71.5 -13t-73 -7t-87 0zM75 251l-11 164l279 11l9.5 -2.5t23 -8t27 -15.5t23 -25t9.5 -36
q0 -28 -11 -44t-26 -23t-26 -8.5l-11 -1.5z" />
    <glyph glyph-name="F" unicode="F" horiz-adv-x="541" 
d="M142 5q-34 1 -54.5 15.5t-30.5 33t-13.5 32.5l-3.5 14q-4 73 -6.5 129.5t-2.5 108.5t2.5 112t9.5 141q2 15 10 30.5t21 26t28 9.5h304l10.5 -1.5t26 -6.5t31.5 -15t26.5 -26t10.5 -41q0 -26 -10.5 -41.5t-24.5 -22.5t-24.5 -9l-10.5 -2l-217 9q-1 -61 -2 -107t-1 -90.5
t1.5 -97.5t3.5 -127l-1.5 -11.5t-8.5 -26.5t-24.5 -26t-49.5 -10zM76 251l-11 164l279 11l9.5 -2.5t23 -8t27 -15.5t23 -25t9.5 -36q0 -28 -11 -44t-26 -23t-26 -8.5l-11 -1.5z" />
    <glyph glyph-name="G" unicode="G" horiz-adv-x="602" 
d="M209 12q-31 11 -62.5 33t-58 56.5t-42.5 83.5t-16 114q8 61 23 115.5t48 102.5t93 88q72 44 141.5 45t133.5 -33q32 -18 54.5 -46.5t35 -62t13 -67.5t-13.5 -64l-6 -9t-19.5 -17.5t-36.5 -6.5q-28 3 -44 19.5t-23 32l-7 15.5q0 9 -4.5 36t-12.5 54q-5 0 -16 -3t-26.5 -9
t-32 -16t-32.5 -25q-16 -19 -31 -40t-26 -49t-17 -70q-4 -41 4.5 -72t24.5 -44q14 -8 28.5 -11.5t31 -3.5t34.5 2q26 6 44.5 14t13.5 15q-16 6 -39.5 13.5t-43.5 14.5l-6.5 4t-14.5 11.5t-13 19.5t-2 28q4 19 14 27t19.5 9.5l9.5 1.5q31 5 63.5 -3t61.5 -21.5t49 -26.5
q22 -15 40 -38t25.5 -51t-1 -57.5t-40.5 -58.5q-25 -24 -62 -41.5t-80.5 -25.5t-88.5 -4.5t-87 21.5z" />
    <glyph glyph-name="H" unicode="H" horiz-adv-x="649" 
d="M137 5q-32 0 -51 13t-29 29.5t-13 29l-3 12.5q-4 43 -6.5 91t-3.5 99t0.5 103t4.5 103t7 99l2 10.5t9.5 23.5t24.5 23t47 10q33 -1 53 -12t30 -27.5t14 -32.5t4 -27v-11q-4 -41 -6 -86t-2.5 -92.5t0 -96.5t2.5 -97.5t4 -94.5l-1.5 -10.5t-9.5 -24.5t-26 -24.5t-51 -9.5z
M116 192l13 170l372 27l4 -173zM528 5q-32 0 -51 13t-29 29.5t-13 29l-3 12.5q-4 43 -6.5 91t-3.5 99t0.5 103t4.5 103t7 99l2 10.5t9.5 23.5t24.5 23t47 10q33 -1 52.5 -12t30 -27.5t14.5 -32.5t4 -27v-11q-4 -41 -6 -86t-2.5 -92.5t0 -96.5t2.5 -97.5t4 -94.5l-1.5 -10.5
t-9.5 -24.5t-26 -24.5t-51 -9.5z" />
    <glyph glyph-name="I" unicode="I" horiz-adv-x="258" 
d="M137 5q-32 0 -51 13t-29 29.5t-13 29l-3 12.5q-4 43 -6.5 91t-3.5 99t0.5 103t4.5 103t7 99l2 10.5t9.5 23.5t24.5 23t47 10q33 -1 53 -12t30 -27.5t14 -32.5t4 -27v-11q-4 -41 -6 -86t-2.5 -92.5t0 -96.5t2.5 -97.5t4 -94.5l-1.5 -10.5t-9.5 -24.5t-26 -24.5t-51 -9.5z
" />
    <glyph glyph-name="J" unicode="J" horiz-adv-x="521" 
d="M260 2q-33 2 -73.5 15t-79 38t-64.5 61l-4.5 8.5t-7.5 21.5t1 29t20 31q18 17 37.5 21.5t36 1.5t27 -7.5l10.5 -4.5q17 -7 26.5 -16t16 -17t14.5 -13.5t23 -5.5q24 5 36.5 35t15.5 69q1 34 -1.5 73t-6 91.5t-8.5 124.5l0.5 13.5t7 31t23.5 32t50 16.5q36 -1 57.5 -16.5
t33 -36t15.5 -36l4 -15.5q6 -76 11 -129t7.5 -90t2.5 -64.5t-2 -53.5q-8 -62 -40.5 -110t-81.5 -74t-107 -24z" />
    <glyph glyph-name="K" unicode="K" horiz-adv-x="573" 
d="M454 0q-28 -6 -50 1.5t-37 19.5t-22.5 22l-7.5 10q-26 50 -48.5 77.5t-44.5 42t-47.5 23.5t-58.5 22l4 173q62 21 102 47.5t65 55t38.5 54.5t20.5 46l5 9.5t17 20.5t32 17t50 -1q32 -7 47.5 -25t19.5 -37t3 -33l-1 -14q-3 -39 -18.5 -74t-37 -64t-45 -51.5t-43 -37
t-30.5 -19.5q41 -26 72 -64.5t51.5 -75t27.5 -56.5l2 -11t-1.5 -27t-18 -30.5t-46.5 -20.5zM137 5q-32 0 -51 13t-29 29.5t-13 29l-3 12.5q-4 43 -6.5 91t-3.5 99t0.5 103t4.5 103t7 99l2 10.5t9.5 23.5t24.5 23t47 10q33 -1 53 -12t30 -27.5t14 -32.5t4 -27v-11
q-4 -41 -6 -86t-2.5 -92.5t0 -96.5t2.5 -97.5t4 -94.5l-1.5 -10.5t-9.5 -24.5t-26 -24.5t-51 -9.5z" />
    <glyph glyph-name="L" unicode="L" horiz-adv-x="547" 
d="M155 2q-36 -2 -58.5 8.5t-34.5 28t-16.5 36t-5.5 32.5q-3 58 -5 103t-3.5 84.5t-1 80.5t3 90t7.5 113l2 11.5t10.5 26.5t27.5 25.5t54 7.5q32 -2 50.5 -15.5t27 -29.5t11 -28l2.5 -12q-1 -122 -4 -219.5t1 -177.5q34 4 59.5 8.5t52 10.5t61.5 12l10 0.5t25.5 -1t32 -6.5
t30 -16t18.5 -30q8 -29 3.5 -49t-13.5 -32t-17 -17.5l-8 -5.5q-49 -9 -89 -17t-77 -13.5t-74.5 -8t-81.5 -0.5z" />
    <glyph glyph-name="M" unicode="M" horiz-adv-x="777" 
d="M136 5q-30 2 -48.5 14.5t-28.5 28.5t-14 28l-4 12q-6 54 -8.5 109t-2.5 111t3 113.5t8 118.5l2.5 9.5t9.5 22t21 23t37 11.5q22 2 52 -4t57 -36q25 -30 44 -52t34.5 -41.5t32 -40.5t37.5 -49q26 26 45.5 48t39.5 47t46.5 58.5t65.5 82.5l10 9.5t30 17.5t51 3
q34 -4 53 -19t27 -31.5t9.5 -29l1.5 -12.5q-4 -40 -5.5 -85.5t-2 -93.5t0.5 -98t2.5 -100t4.5 -99l-2 -12t-10 -27.5t-26 -26.5t-50 -10q-30 1 -49.5 13t-29.5 27.5t-14 27l-4 11.5q-5 31 -7 59t-2.5 54t0.5 52t2 53q-16 -22 -31.5 -40t-43.5 -42t-66 -34.5t-79 5.5
q-10 6 -27.5 15t-40 30t-48.5 61q0 -35 -0.5 -55.5t-1 -34t0 -28t2 -38t3.5 -64.5l-1.5 -11.5t-9.5 -26.5t-26 -25.5t-50 -8.5z" />
    <glyph glyph-name="N" unicode="N" horiz-adv-x="646" 
d="M134 5q-30 2 -48.5 13.5t-29 26.5t-14 26l-3.5 11q-6 54 -7.5 110t-1 112t2.5 111t4 109l2.5 13t15 29t41.5 25q17 6 36.5 2.5t34 -8.5t15.5 -7q30 -20 68 -57.5t82 -87t91 -105.5q0 27 -1 53t-0.5 55.5t2.5 67t6 88.5l2.5 9t10.5 20.5t25 20t46 7.5q33 -1 52.5 -12
t30 -27.5t14.5 -32.5t4 -27v-11q-4 -40 -6 -84t-2.5 -90t0 -93.5t2 -96.5t4.5 -98l-1 -9.5t-7.5 -22.5t-20 -24.5t-39.5 -15.5q-29 -5 -51.5 6.5t-34.5 24.5l-12 13l-9.5 10t-25 27.5t-36 40t-42.5 47t-44 48.5t-41 45.5t-33 37.5q0 -31 0.5 -61.5t1.5 -70t3 -98.5l-2 -11
t-10.5 -25.5t-26 -25t-48.5 -8.5z" />
    <glyph glyph-name="O" unicode="O" horiz-adv-x="734" 
d="M308 -7q-63 0 -115.5 23t-90 64.5t-56.5 98t-15 124.5q3 68 26.5 131t64.5 113t98 79.5t127 29.5q51 0 103 -10.5t99 -34.5t83.5 -64t55.5 -98.5t15 -138.5q-3 -64 -28.5 -114.5t-66 -88.5t-91 -63.5t-104.5 -38t-105 -12.5zM344 176q21 0 42 6t40.5 18.5t35.5 31
t26 43.5t11 56q2 42 -9 71t-30.5 46.5t-44.5 25.5t-51 8q-25 0 -48 -13t-40.5 -35.5t-28 -52.5t-12.5 -63q-2 -44 11 -76t38.5 -49t59.5 -17z" />
    <glyph glyph-name="P" unicode="P" horiz-adv-x="578" 
d="M135 5q-33 2 -52.5 15t-29.5 29.5t-13 29l-3 12.5q-2 28 -3.5 70.5t-2.5 94t-0.5 107t2.5 110.5t6 103l1 9.5t8 22.5t24 24.5t48 16.5q123 10 213.5 -1t139.5 -58q49 -46 65.5 -105t1.5 -116.5t-61 -101.5q-19 -19 -47 -34t-62 -24.5t-73 -12t-81 3.5l4 -127l-2.5 -11
t-11.5 -24.5t-25.5 -23.5t-45.5 -9zM216 365q36 -3 61.5 0t41 12t22.5 22.5t8 30.5q0 24 -9.5 39.5t-26.5 23t-40.5 9.5t-52.5 -1q-3 -34 -4 -68.5t0 -67.5z" />
    <glyph glyph-name="Q" unicode="Q" horiz-adv-x="734" 
d="M308 -7q-63 0 -115.5 23t-90 64.5t-56.5 98t-15 124.5q3 68 26.5 131t64.5 113t98 79.5t127 29.5q51 0 103 -10.5t99 -34.5t83.5 -64t55.5 -98.5t15 -138.5q-3 -64 -28.5 -114.5t-66 -88.5t-91 -63.5t-104.5 -38t-105 -12.5zM449 -134q-29 -7 -51 -1.5t-37.5 16.5
t-23 20.5l-7.5 9.5q-22 59 -36 102.5t-23 83.5t-18 88l1 9.5t6 22.5t16 23.5t30 12.5q26 3 44 -6t28 -18.5l10 -9.5q13 -20 33.5 -61t43.5 -94t43 -111l1.5 -10.5t-2 -26t-16.5 -29.5t-42 -21zM344 176q21 0 42 6t40.5 18.5t35.5 31t26 43.5t11 56q2 42 -9 71t-30.5 46.5
t-44.5 25.5t-51 8q-25 0 -48 -13t-40.5 -35.5t-28 -52.5t-12.5 -63q-2 -44 11 -76t38.5 -49t59.5 -17z" />
    <glyph glyph-name="R" unicode="R" horiz-adv-x="578" 
d="M135 5q-33 2 -52.5 15t-29.5 29.5t-13 29l-3 12.5q-2 28 -3.5 70.5t-2.5 94t-0.5 107t2.5 110.5t6 103l1 9.5t8 22.5t24 24.5t48 16.5q123 10 213.5 -1t139.5 -58q49 -46 65.5 -105t1.5 -116.5t-61 -101.5q-19 -19 -47 -34t-62 -24.5t-73 -12t-81 3.5l4 -127l-2.5 -11
t-11.5 -24.5t-25.5 -23.5t-45.5 -9zM382 41q-39 24 -75 44t-77 43.5t-96 55.5q-1 6 13.5 18t36 25.5t43 26t36 20.5l14.5 8q29 -13 48 -21t33.5 -15.5t30 -17t37.5 -24.5t55 -39l6.5 -6t14 -17.5t12 -26t1 -32.5t-20.5 -37q-13 -16 -32 -19t-37.5 0.5t-30.5 8.5zM216 375
q34 -3 57 0t37.5 11.5t21 21t7.5 28.5q0 22 -8.5 36t-24.5 21t-38 9t-48 -1q-3 -32 -4 -63.5t0 -62.5z" />
    <glyph glyph-name="S" unicode="S" horiz-adv-x="557" 
d="M316 1q-58 -1 -101 4.5t-71 14.5t-42 15.5l-14 6.5l-8 5t-19 14.5t-19.5 23t-10.5 30t8 35.5q11 21 26.5 29t30 9t24.5 -1l10 -2q33 -12 68 -17t65 -4t49.5 8t20.5 19q0 6 -8.5 12t-25.5 13t-41 15.5t-54 20.5q-18 7 -42 22t-47.5 36t-41.5 47.5t-25.5 57t0.5 65t38 70.5
q31 37 67 58.5t74 31.5t73 11.5t62.5 -1t43.5 -6l16 -3.5l10.5 -3t25.5 -10t30 -18.5t23.5 -29.5t5.5 -43q-4 -28 -18 -41t-30.5 -16t-29 -1.5l-12.5 1.5q-33 11 -67.5 7t-62.5 -16t-44.5 -26t-13.5 -24t24.5 -20.5t53.5 -23t66.5 -28.5t64.5 -37t47 -48q30 -48 32 -88.5
t-16.5 -72.5t-50 -54t-69.5 -34.5t-75 -13.5z" />
    <glyph glyph-name="T" unicode="T" horiz-adv-x="613" 
d="M308 5q-32 0 -51 13t-29 29.5t-13 29l-3 12.5q-6 54 -8.5 111.5t-2 117.5t3.5 121t9 122l2 10.5t9.5 23.5t24.5 23t47 10q41 -1 62 -14t29 -30t9 -30l1 -13q-4 -41 -6 -86t-2.5 -92.5t0 -96.5t2.5 -97.5t4 -94.5l-1.5 -10.5t-9.5 -24.5t-26 -24.5t-51 -9.5zM509 480
q-39 3 -88.5 5.5t-101.5 4t-100 2t-85 0.5l-9.5 0.5t-24 3.5t-29.5 10t-26 20.5t-14 34.5q-3 22 4 36t19.5 22t25.5 11.5t22 4.5l9 1q93 11 186 16t184 -7l10.5 -2.5t25.5 -8.5t30 -16.5t25.5 -27t10.5 -39.5q0 -27 -11 -42t-26 -21t-26 -7z" />
    <glyph glyph-name="U" unicode="U" horiz-adv-x="628" 
d="M321 -3q-86 6 -150 43t-100.5 111.5t-40.5 192.5v250l2.5 9t10 20.5t23.5 20.5t44 9q38 0 60.5 -13t33.5 -30t14 -30l3 -13l4 -234q1 -58 14.5 -94.5t33 -54t38.5 -21.5q31 5 50 28.5t28 73.5t9 135l-2 173l0.5 11t6.5 25.5t23.5 25.5t50.5 11q34 0 56 -12t34 -29.5
t17.5 -35.5t7 -30l1.5 -12l5 -178q0 -72 -12.5 -134.5t-43 -110.5t-84.5 -76t-137 -31z" />
    <glyph glyph-name="V" unicode="V" horiz-adv-x="608" 
d="M301 1q-58 10 -97.5 38.5t-65.5 76t-43.5 114.5t-32 153t-31.5 192l1 11t8.5 25t24.5 25t49 12q33 1 53.5 -11t32 -28.5t15.5 -29l4 -12.5q13 -65 23.5 -113.5t19 -83t15.5 -59.5t12.5 -43t10.5 -34q2 4 9.5 23.5t18 52.5t21 76t20 93t14.5 105l3 11t13 24t29.5 21.5
t52.5 3.5q39 -6 59 -21.5t27.5 -33t8.5 -30.5l1 -13q-14 -120 -37 -213t-51.5 -160t-60 -108t-64 -56.5t-63.5 -7.5z" />
    <glyph glyph-name="W" unicode="W" horiz-adv-x="961" 
d="M301 1q-58 10 -97.5 38.5t-65.5 76t-43.5 114.5t-32 153t-31.5 192l1 11t8.5 25t24.5 25t49 12q33 1 53.5 -11t32 -28.5t15.5 -29l4 -12.5q13 -65 23.5 -113.5t19 -83t15.5 -59.5t12.5 -43t10.5 -34q2 4 9.5 23.5t18 52.5t21 76t20 93t14.5 105l3 11t13 24t29.5 21.5
t52.5 3.5q39 -6 59 -21.5t27.5 -33t8.5 -30.5l1 -13q-14 -120 -37 -213t-51.5 -160t-60 -108t-64 -56.5t-63.5 -7.5zM654 1q-58 10 -97.5 38.5t-65.5 76t-43.5 114.5t-32 153t-31.5 192l3.5 11t13.5 25t29 24t51 9q20 -1 37.5 -14.5t30.5 -31.5t20.5 -31.5l7.5 -13.5
q13 -65 23 -112t18 -79.5t14 -55.5t11 -39.5t10 -32.5q2 4 9.5 23.5t18 52.5t21 76t20 93t14.5 105l3 11t13 24t29.5 21.5t52.5 3.5q39 -6 59 -21.5t27.5 -33t8.5 -30.5l1 -13q-14 -120 -37 -213t-51.5 -160t-60 -108t-64 -56.5t-63.5 -7.5z" />
    <glyph glyph-name="X" unicode="X" horiz-adv-x="637" 
d="M561 19q-26 -13 -50.5 -9t-43.5 15.5t-30 22.5l-11 11q-46 49 -85.5 90.5t-76 81t-72 82.5t-72.5 96t-79 121l-4.5 11t-6 27.5t7.5 33.5t36 29q25 11 48.5 6.5t42.5 -16.5t30 -22.5l11 -10.5q45 -56 88.5 -108t89 -105t96 -112t109.5 -130l4.5 -8t9 -20.5t3.5 -28
t-11 -30.5t-34 -27zM80 19q-24 14 -33.5 29.5t-10.5 30.5t3 27t8.5 19.5l4.5 7.5q59 71 108 129.5t93.5 113t89 112t94.5 124.5l7 7t21 15t33.5 10t44.5 -9q33 -13 46 -31t15 -35t-1 -28l-3 -11q-52 -85 -98 -153t-91.5 -126t-94 -113.5t-105.5 -117.5l-9.5 -6t-27.5 -11
t-41.5 -3t-52.5 19z" />
    <glyph glyph-name="Y" unicode="Y" horiz-adv-x="562" 
d="M277 212q-95 12 -155 62t-81 130.5t1 180.5l4 10t15 23t30 21t49 3q34 -5 52 -19t25.5 -29.5t9 -27l1.5 -11.5q-4 -85 1.5 -129t27.5 -49q11 -1 26.5 12.5t29.5 38t21.5 56t2.5 65.5l-2 11.5t0.5 28t15.5 31.5t44 21q36 7 60.5 -2t39 -24t21 -27.5l6.5 -12.5
q13 -56 7.5 -116t-33.5 -113.5t-82 -89.5t-137 -44zM285 4q-30 0 -49 11t-30 25t-15.5 25l-4.5 11q-11 59 -10 117t7 112l185 -5q-6 -65 -5.5 -125.5t5.5 -107.5l-1.5 -9.5t-9 -22t-24.5 -22t-48 -9.5z" />
    <glyph glyph-name="Z" unicode="Z" horiz-adv-x="547" 
d="M137 1q-11 -2 -27.5 3.5t-32.5 17t-27.5 27.5t-12.5 36t12 42q29 41 53.5 78.5t51 78t58.5 90t75 113.5q-25 7 -65 1t-79 -13h-10t-25 2t-30.5 9t-25.5 22q-16 23 -19.5 40t0.5 28.5t11.5 18.5t13.5 10l6 3q84 38 177 40t183 -21q18 -8 36 -24t31 -39t15 -51t-14 -60
q-24 -42 -41 -71t-30.5 -51.5t-28 -44.5t-34 -49t-47.5 -66l105 4l13.5 -2.5t31.5 -10t33.5 -21.5t19.5 -37q6 -28 -2 -45t-21 -26t-23.5 -11.5l-10.5 -2.5z" />
    <glyph glyph-name="bracketleft" unicode="[" horiz-adv-x="392" 
d="M189 8q-23 1 -49.5 10.5t-49.5 25.5t-38 36.5t-16 43.5q-3 59 -4.5 121.5t-1.5 125t1.5 120.5t4.5 107q1 7 8 22t26.5 27.5t55.5 9.5q40 1 77.5 0.5t71.5 -2.5l12 -4.5t28 -14.5t27.5 -26t10.5 -38q-1 -24 -12.5 -37.5t-25.5 -18.5t-25 -6l-11 -1l-71 -3l-4 -361
q14 2 28.5 1.5t37.5 -2.5l34 -6l9 -5t21 -15t20.5 -25t6.5 -36q-1 -20 -13 -31.5t-26.5 -17t-25.5 -7l-11 -1.5z" />
    <glyph glyph-name="backslash" unicode="\" horiz-adv-x="468" 
d="M383 10q-35 -12 -57.5 -6t-33.5 16l-11 10q-28 64 -65 147t-83 181.5t-100 208.5l-2 10t1 25t15.5 29t41.5 23q26 8 44 3.5t29.5 -14t17 -18l5.5 -8.5q48 -92 96 -187t88.5 -180.5t66.5 -152.5l1.5 -10t-1.5 -24.5t-15 -29t-38 -23.5z" />
    <glyph glyph-name="bracketright" unicode="]" horiz-adv-x="392" 
d="M107 0l-11 1.5t-25.5 7t-26 17t-13.5 31.5q-1 21 7 36t20 25t21 15l9 5l34 6q23 2 37.5 2.5t28.5 -1.5l-4 361l-71 3l-11 1t-25 6t-25.5 18.5t-12.5 37.5q-1 22 10.5 38t27.5 26t28 14.5l12 4.5q35 2 72 2.5t77 -0.5q37 3 56 -9.5t26.5 -27.5t7.5 -22q3 -49 4.5 -107
t1.5 -120.5t-1.5 -125t-4.5 -121.5q-1 -23 -16 -43.5t-38 -36.5t-49.5 -25.5t-49.5 -10.5z" />
    <glyph glyph-name="asciicircum" unicode="^" horiz-adv-x="362" 
d="M61 495q-18 13 -24 25.5t-6 23t2.5 17l2.5 6.5q13 18 24 31t25 25t36 28q9 8 27.5 11t39 0t36.5 -16l81 -52l7.5 -8t14 -21t4.5 -29t-21 -33q-13 -11 -28 -13.5t-28.5 0t-22 5.5l-8.5 3l-41 33q-12 -10 -26 -22t-25 -21l-10.5 -3t-26.5 -2.5t-33 12.5z" />
    <glyph glyph-name="underscore" unicode="_" horiz-adv-x="522" 
d="M35 51q-8 24 -4.5 39.5t12 24.5t16 12.5l7.5 3.5q39 9 95 16.5t121.5 8.5t132.5 -10l11.5 -5t27 -15.5t27 -25.5t11.5 -36q0 -27 -11 -42.5t-25.5 -22.5t-25.5 -9l-11 -2q-52 3 -89.5 6t-68.5 4t-63.5 1t-75.5 -3l-10.5 0.5t-26 4.5t-29.5 16t-21 34z" />
    <glyph glyph-name="grave" unicode="`" horiz-adv-x="316" 
d="M201 491q-10 2 -29 6.5t-41 13t-43.5 20.5t-37.5 28l-5 5.5t-10 15.5t-5 22.5t9 27.5q8 13 21 18.5t26 6.5t21.5 0l8.5 -1q20 -4 47.5 -11t76.5 -29l10 -6.5t21 -19t14.5 -30.5t-9.5 -41q-7 -13 -19.5 -19t-25 -7.5t-21.5 -0.5z" />
    <glyph glyph-name="a" unicode="a" horiz-adv-x="638" 
d="M294 -1q-55 -1 -102.5 17.5t-84 52.5t-56.5 78.5t-20 94.5q1 59 21.5 106t56 80.5t83 51.5t102.5 19q86 1 142.5 -25.5t84.5 -82t28 -141.5q0 -50 -13.5 -94.5t-43 -79t-78.5 -55t-120 -22.5zM301 167q17 0 32 7.5t26.5 21t18.5 30.5t7 36q0 32 -10 52t-26.5 30t-38.5 10
q-16 0 -30.5 -9t-25.5 -23.5t-17 -32.5t-6 -37q0 -24 8.5 -43.5t24.5 -30.5t37 -11zM531 0q-29 0 -48 9t-28 18l-9 9q-7 73 -13 141.5t-6 140.5t7 152l9 8.5t28.5 16.5t50.5 5q34 -3 52 -19t24.5 -35.5t7.5 -34l1 -14.5q-4 -51 -6.5 -85.5t-2 -66.5t2.5 -72t5 -102
l-1.5 -10.5t-8 -24.5t-22 -25t-43.5 -11z" />
    <glyph glyph-name="b" unicode="b" horiz-adv-x="651" 
d="M357 -1q-76 0 -126 20.5t-77.5 55.5t-39 80t-11.5 95q0 64 15.5 111.5t47 78t79.5 45.5t112 14q55 -1 102.5 -19t83.5 -51.5t56.5 -80.5t20.5 -106q1 -50 -19.5 -94t-56.5 -77.5t-84 -52.5t-103 -19zM132 0q-32 0 -50.5 13.5t-27.5 30.5t-11.5 30l-2.5 13
q-4 44 -6.5 92.5t-3 100.5t0.5 105t4 105t7 101l3.5 10t12.5 22.5t27 21t48 5.5q32 -3 51 -17t28.5 -31.5t13 -30l3.5 -12.5q-4 -40 -7.5 -90.5t-7 -106t-5.5 -113t-2 -113t3 -104.5l-6 -8t-22.5 -16t-49.5 -8zM332 168q20 0 36.5 9.5t28.5 26t19 36t7 38.5q0 30 -12 46
t-28 22.5t-28 6.5q-16 0 -32 -8.5t-29.5 -23t-22 -33.5t-8.5 -39q0 -21 8.5 -39.5t24.5 -30t36 -11.5z" />
    <glyph glyph-name="c" unicode="c" horiz-adv-x="532" 
d="M266 -9q-82 4 -132 34.5t-74 82t-29 116.5q-4 52 11.5 101t48 87.5t79.5 61t107 21.5q54 -1 91 -14.5t61 -33t36.5 -39t17.5 -32.5l5 -13l-1 -11t-8 -27t-26 -30q-14 -10 -35.5 -15.5t-42.5 -2.5t-32 16q-2 0 -6.5 4.5t-11 9.5t-16 8.5t-21.5 1.5q-20 -3 -31.5 -11
t-17.5 -19.5t-8 -23t-3 -20.5q-2 -21 5 -37t19 -25t24 -10q11 0 22.5 2.5t23 7t20.5 8t14 4.5q34 11 59 5.5t42.5 -18.5t26.5 -27q17 -23 17.5 -41.5t-4 -29.5l-4.5 -11l-12.5 -13t-39.5 -30t-70 -28.5t-105 -8.5z" />
    <glyph glyph-name="d" unicode="d" horiz-adv-x="637" 
d="M294 -1q-55 -1 -102.5 17.5t-84 52.5t-56.5 78.5t-20 94.5q1 59 21.5 106t56 80.5t83 51.5t102.5 19q86 1 142.5 -25.5t84.5 -82t28 -141.5q0 -50 -13.5 -94.5t-43 -79t-78.5 -55t-120 -22.5zM301 167q17 0 32 7.5t26.5 21t18.5 30.5t7 36q0 32 -10 52t-26.5 30t-38.5 10
q-16 0 -30.5 -9t-25.5 -23.5t-17 -32.5t-6 -37q0 -24 8.5 -43.5t24.5 -30.5t37 -11zM527 -1q-32 0 -52.5 12.5t-32 29.5t-16 29.5l-4.5 12.5q-4 43 -6.5 92.5t-3.5 102t0.5 106t4.5 106t7 101.5l3 10t12.5 22.5t27 21t47.5 5.5q32 -3 50.5 -16.5t27.5 -29.5t12 -28l3 -12
q-1 -38 -2.5 -84.5t-2.5 -97.5t-1 -104.5t1 -106.5t4 -102l-2 -10.5t-9 -24.5t-23 -24.5t-45 -10.5z" />
    <glyph glyph-name="e" unicode="e" horiz-adv-x="533" 
d="M243 -11q-66 13 -107.5 39.5t-64 62t-31 75.5t-9.5 80q-1 53 17.5 100.5t53.5 83.5t83.5 55.5t106.5 15.5q59 -4 99 -23t64 -47t35 -60t12 -62q1 -47 -24.5 -88t-88.5 -57q-16 -4 -36 -5t-41 -1t-41 1.5t-35.5 3t-25 2.5l-9.5 1q4 -5 12 -15.5t25 -18.5t47 -7q39 2 63 4
t37 3.5t17.5 2.5l4.5 1h8.5t22 -2t27.5 -9.5t24 -22.5q12 -17 11 -30.5t-7 -23.5t-12.5 -15l-6.5 -5l-20.5 -9t-54 -19t-74.5 -14.5t-82 3.5zM207 282l103 1l3.5 0.5t9.5 2t11.5 5t9 10t3.5 16.5q0 16 -6.5 27t-21 16t-40.5 3q-15 -1 -28.5 -10t-24 -22t-16 -26.5
t-3.5 -22.5z" />
    <glyph glyph-name="f" unicode="f" horiz-adv-x="517" 
d="M193 -1q-39 0 -61 13.5t-32.5 30.5t-13 30l-2.5 13q-3 60 -4.5 106.5t-1.5 87t1 82.5t4 91q7 57 27.5 94t50.5 58t64 30.5t67 11.5q45 -1 82.5 -16t65 -38t41.5 -48l3 -9.5t2.5 -23.5t-10 -28.5t-35.5 -25.5q-16 -6 -32 -4t-27 6l-11 4q-16 7 -30 16.5t-30 4.5
q-11 -2 -23 -29.5t-15 -76.5q-2 -68 -1 -118.5t2.5 -96.5t1.5 -103l-2.5 -9.5t-11 -22t-25 -21.5t-44.5 -9zM475 315q-1 -23 -11.5 -36t-24 -19t-24 -7.5l-10.5 -1.5q-89 2 -172.5 3t-154.5 14l-11 4.5t-22.5 15t-13.5 26.5q-3 21 4 34.5t17 22t18.5 12l8.5 3.5q44 5 80.5 9
t71 6.5t73 3t87.5 -1.5l13 -4.5t30 -14.5t29.5 -27t11.5 -42z" />
    <glyph glyph-name="g" unicode="g" horiz-adv-x="686" 
d="M403 -214q-70 -4 -132 9.5t-116 39.5l-11 6t-24 18.5t-19.5 30.5t1.5 42t23 34.5t31 12t27.5 0l11.5 -1.5q35 -9 59 -15.5t45 -9.5t44 -5q47 2 72.5 15.5t35 40t8.5 67.5q4 68 3.5 116.5t-4 88.5t-8 82.5t-9.5 97.5l6.5 11t23.5 21.5t50 10.5q33 1 55.5 -14t33.5 -29.5
l11 -14.5q18 -74 26 -140.5t8.5 -138t-3.5 -161.5q-10 -101 -69.5 -154.5t-179.5 -59.5zM294 -1q-55 -1 -102.5 17.5t-84 52.5t-56.5 78.5t-20 94.5q1 59 21.5 106t56 80.5t83 51.5t102.5 19q86 1 142.5 -25.5t84.5 -82t28 -141.5q0 -50 -13.5 -94.5t-43 -79t-78.5 -55
t-120 -22.5zM301 167q17 0 32 7.5t26.5 21t18.5 30.5t7 36q0 32 -10 52t-26.5 30t-38.5 10q-16 0 -30.5 -9t-25.5 -23.5t-17 -32.5t-6 -37q0 -24 8.5 -43.5t24.5 -30.5t37 -11z" />
    <glyph glyph-name="h" unicode="h" horiz-adv-x="617" 
d="M462 9q-28 6 -44.5 20.5t-24.5 29.5t-10.5 26l-2.5 11q5 42 9 71t4.5 55t-7.5 57q-5 13 -13 30t-17 17q-34 -5 -57 -27.5t-38.5 -55t-25 -67.5t-15.5 -65.5t-11 -49.5q-8 -18 -16.5 -13t-16 26.5t-14 50.5t-10 59t-4.5 53.5t1 31.5l-51 26l44 68q22 46 48 71.5t53 37.5
t54 15t52 4q49 -3 96 -30t82 -71t49 -98q14 -60 10 -117.5t-17 -125.5l-5.5 -8.5t-18 -18t-33 -14.5t-50.5 1zM146 -1q-32 0 -52.5 12.5t-32 29.5t-16 29.5l-4.5 12.5q-4 43 -6.5 92.5t-3.5 102t0.5 106t4.5 106t7 101.5l3 10t12.5 22.5t27 21t47.5 5.5q32 -3 50.5 -16.5
t27.5 -29.5t12 -28l3 -12q-1 -38 -2.5 -84.5t-2.5 -97.5t-1 -104.5t1 -106.5t4 -102l-2 -10.5t-9 -24.5t-23 -24.5t-45 -10.5z" />
    <glyph glyph-name="i" unicode="i" horiz-adv-x="261" 
d="M136 1q-27 2 -45 12.5t-29 24.5t-15.5 24l-4.5 10q-6 54 -8.5 96t-2.5 80.5t2.5 83.5t7.5 105l2.5 10t10.5 22.5t26 22t48 8.5q33 -1 52 -14t28.5 -29.5t12.5 -29l3 -12.5q-3 -48 -4.5 -87t-1.5 -77t1 -81.5t4 -99.5l-2 -11t-10 -25.5t-25.5 -24.5t-49.5 -8zM135 511
q-44 -1 -70.5 25.5t-26.5 63.5q0 53 26 72.5t70 19.5t70.5 -27.5t26.5 -64.5q0 -24 -8 -44t-29 -32t-59 -13z" />
    <glyph glyph-name="j" unicode="j" horiz-adv-x="261" 
d="M136 -176q-27 2 -45 12.5t-29 24.5t-15.5 24l-4.5 10q-4 43 -7 96t-4 111t0 116.5t3.5 114.5t6.5 104l2.5 10t10.5 22.5t26 22t48 8.5q33 -1 52 -14t28.5 -29.5t12.5 -29l3 -12.5q-2 -38 -3.5 -88.5t-2 -107t-0.5 -115t1.5 -112.5t3.5 -99l-2 -11t-10 -25.5t-25.5 -24.5
t-49.5 -8zM135 511q-44 -1 -70.5 25.5t-26.5 63.5q0 53 26 72.5t70 19.5t70.5 -27.5t26.5 -64.5q0 -24 -8 -44t-29 -32t-59 -13z" />
    <glyph glyph-name="k" unicode="k" horiz-adv-x="530" 
d="M449 14q-27 -9 -49.5 -5.5t-38.5 13.5t-24.5 18.5l-8.5 8.5q-27 33 -44 53.5t-28 32.5t-20 19.5t-19 13.5t-26 14l-39 190q57 4 94.5 22t60 39.5t35.5 34.5l8.5 6.5t23.5 12.5t35.5 5t45.5 -15q25 -15 34 -34t8.5 -37.5t-4 -30.5l-3.5 -12q-13 -29 -35.5 -54.5t-50 -44.5
t-55 -29t-50.5 -9l-3 59q37 -8 70 -31t59.5 -52t44.5 -56.5t26 -43.5l2.5 -10t1 -25t-12.5 -29.5t-38 -23.5zM146 -1q-32 0 -52.5 12.5t-32 29.5t-16 29.5l-4.5 12.5q-4 43 -6.5 92.5t-3.5 102t0.5 106t4.5 106t7 101.5l3 10t12.5 22.5t27 21t47.5 5.5q32 -3 50.5 -16.5
t27.5 -29.5t12 -28l3 -12q-1 -38 -2.5 -84.5t-2.5 -97.5t-1 -104.5t1 -106.5t4 -102l-2 -10.5t-9 -24.5t-23 -24.5t-45 -10.5z" />
    <glyph glyph-name="l" unicode="l" horiz-adv-x="256" 
d="M146 -1q-32 0 -52.5 12.5t-32 29.5t-16 29.5l-4.5 12.5q-4 43 -6.5 92.5t-3.5 102t0.5 106t4.5 106t7 101.5l3 10t12.5 22.5t27 21t47.5 5.5q32 -3 50.5 -16.5t27.5 -29.5t12 -28l3 -12q-1 -38 -2.5 -84.5t-2.5 -97.5t-1 -104.5t1 -106.5t4 -102l-2 -10.5t-9 -24.5
t-23 -24.5t-45 -10.5z" />
    <glyph glyph-name="m" unicode="m" horiz-adv-x="989" 
d="M464 7q-33 9 -49 27.5t-21 38.5t-4.5 34.5l0.5 14.5q8 50 6 100.5t-19 80.5q-13 21 -36.5 26t-49.5 -4t-47 -31q-20 -21 -26.5 -48.5t-6.5 -53.5t-2 -42q-1 -21 -1.5 -31t0 -16t-1.5 -17l-0.5 -8.5t-5.5 -20t-19 -20.5t-42 -11q-22 -1 -39.5 11.5t-27.5 25l-10 12.5
q-9 12 -11 24.5t-1.5 32t-1.5 51.5q-6 40 -7 65t2.5 43t12.5 35.5t25 41.5q23 28 57.5 54t75.5 44.5t84 24.5t82 -5q22 -6 50 -18.5t56.5 -36t52.5 -61.5t39 -94q11 -47 11 -91t-10 -109l-3 -14t-14 -30.5t-34 -25.5t-64 1zM136 1q-27 2 -45 12.5t-29 24.5t-15.5 24l-4.5 10
q-6 54 -8.5 96t-2.5 80.5t2.5 83.5t7.5 105l2.5 10t10.5 22.5t26 22t48 8.5q33 -1 52 -14t28.5 -29.5t12.5 -29l3 -12.5q-3 -48 -4.5 -87t-1.5 -77t1 -81.5t4 -99.5l-2 -11t-10 -25.5t-25.5 -24.5t-49.5 -8zM834 7q-33 9 -49 27.5t-21 38.5t-4.5 34.5l0.5 14.5q8 50 6 100.5
t-19 80.5q-13 21 -36.5 26t-49.5 -4t-47 -31q-20 -21 -26.5 -48.5t-6.5 -53.5t-2 -42q-1 -21 -1 -31v-16t-2 -17l-0.5 -8.5t-5.5 -20t-19 -20.5t-42 -11q-22 -1 -39.5 11.5t-27.5 25l-10 12.5q-9 12 -11 24.5t-1.5 32t-1.5 51.5q-6 40 -7 65t2.5 43t12.5 35.5t25 41.5
q23 28 57.5 54t75.5 44.5t84 24.5t82 -5q22 -6 50 -18.5t56.5 -36t52.5 -61.5t39 -94q11 -47 11 -91t-10 -109l-3 -14t-14 -30.5t-34 -25.5t-64 1z" />
    <glyph glyph-name="n" unicode="n" horiz-adv-x="619" 
d="M464 7q-33 9 -49 27.5t-21 38.5t-4.5 34.5l0.5 14.5q8 50 6 100.5t-19 80.5q-13 21 -36.5 26t-49.5 -4t-47 -31q-20 -21 -26.5 -48.5t-6.5 -53.5t-2 -42q-1 -21 -1.5 -31t0 -16t-1.5 -17l-0.5 -8.5t-5.5 -20t-19 -20.5t-42 -11q-22 -1 -39.5 11.5t-27.5 25l-10 12.5
q-9 12 -11 24.5t-1.5 32t-1.5 51.5q-6 40 -7 65t2.5 43t12.5 35.5t25 41.5q23 28 57.5 54t75.5 44.5t84 24.5t82 -5q22 -6 50 -18.5t56.5 -36t52.5 -61.5t39 -94q11 -47 11 -91t-10 -109l-3 -14t-14 -30.5t-34 -25.5t-64 1zM136 1q-27 2 -45 12.5t-29 24.5t-15.5 24l-4.5 10
q-6 54 -8.5 96t-2.5 80.5t2.5 83.5t7.5 105l2.5 10t10.5 22.5t26 22t48 8.5q33 -1 52 -14t28.5 -29.5t12.5 -29l3 -12.5q-3 -48 -4.5 -87t-1.5 -77t1 -81.5t4 -99.5l-2 -11t-10 -25.5t-25.5 -24.5t-49.5 -8z" />
    <glyph glyph-name="o" unicode="o" horiz-adv-x="607" 
d="M301 -1q-58 0 -107.5 19t-86 52.5t-57 77.5t-20.5 94t19.5 96.5t55 83t84 57.5t106.5 21t109 -15t90 -46t61 -78t22 -111q0 -50 -21 -95.5t-59 -80.5t-88 -55t-108 -20zM297 165q17 0 32.5 7t27.5 20t19 29t7 34q0 31 -10 50.5t-27.5 29t-40.5 9.5q-17 0 -31.5 -8.5
t-25.5 -22.5t-17.5 -31t-6.5 -35q0 -24 9 -42.5t25.5 -29t38.5 -10.5z" />
    <glyph glyph-name="p" unicode="p" horiz-adv-x="651" 
d="M357 -1q-76 0 -126 20.5t-77.5 55.5t-39 80t-11.5 95q0 64 15.5 111.5t47 78t79.5 45.5t112 14q55 -1 102.5 -19t83.5 -51.5t56.5 -80.5t20.5 -106q1 -50 -19.5 -94t-56.5 -77.5t-84 -52.5t-103 -19zM147 -215q-32 0 -52.5 12.5t-31.5 29t-15.5 29l-4.5 12.5
q-4 43 -7.5 99t-4.5 117.5t-0.5 124.5t3 121.5t6.5 106.5l3 10t12.5 23t27 21.5t47.5 5.5q32 -3 50.5 -16.5t27.5 -29.5t12 -28l3 -12q-1 -38 -2 -90.5t-1.5 -113t0.5 -123t2.5 -121.5t4.5 -108l-2 -10.5t-9.5 -24.5t-23.5 -24.5t-45 -10.5zM333 168q19 0 35.5 10t28.5 26
t19 35.5t7 38.5q0 30 -12 46t-28 22.5t-28 6.5q-16 0 -32 -8.5t-29.5 -23t-22 -33t-8.5 -39.5t8.5 -39.5t24.5 -30t37 -11.5z" />
    <glyph glyph-name="q" unicode="q" horiz-adv-x="636" 
d="M294 -1q-55 -1 -102.5 17.5t-84 52.5t-56.5 78.5t-20 94.5q1 59 21.5 106t56 80.5t83 51.5t102.5 19q86 1 142.5 -25.5t84.5 -82t28 -141.5q0 -50 -13.5 -94.5t-43 -79t-78.5 -55t-120 -22.5zM301 167q17 0 32 7.5t26.5 21t18.5 30.5t7 36q0 32 -10 52t-26.5 30t-38.5 10
q-16 0 -30.5 -9t-25.5 -23.5t-17 -32.5t-6 -37q0 -24 8.5 -43.5t24.5 -30.5t37 -11zM526 -216q-33 -1 -53.5 11.5t-31.5 29t-15 29.5l-4 13q-4 43 -7 99t-3.5 117.5t0.5 124.5t4 121.5t7 107.5l3 10t12.5 22.5t27 21t47.5 5.5q32 -3 50.5 -16.5t27.5 -29t12 -27.5l3 -12
q-1 -38 -2.5 -91t-2.5 -113t-1 -123t1 -122t4 -108l-2 -10.5t-9 -24t-23 -24.5t-45 -11z" />
    <glyph glyph-name="r" unicode="r" horiz-adv-x="540" 
d="M123 40q-25 -2 -38.5 14.5t-19 39t-6.5 40l-1 17.5q-8 33 -10.5 52t-1.5 29.5t2.5 17.5t1.5 16q4 59 29 105.5t65 76.5t86 41q63 12 111.5 6t83 -23t54.5 -37l6 -6.5t13.5 -18t10.5 -26.5t-2 -31t-24 -33q-16 -15 -38.5 -15.5t-43 6t-34.5 13l-14 6.5q-12 6 -36 3
t-49 -17q-17 -13 -32 -28.5t-18 -35.5q-2 -21 -4 -40t-3 -37t-1 -38t1 -44l-7 -12t-26 -24.5t-55 -16.5zM136 1q-27 2 -45 12.5t-29 24.5t-15.5 24l-4.5 10q-6 54 -8.5 96t-2.5 80.5t2.5 83.5t7.5 105l2.5 10t10.5 22.5t26 22t48 8.5q33 -1 52 -14t28.5 -29.5t12.5 -29
l3 -12.5q-3 -48 -4.5 -87t-1.5 -77t1 -81.5t4 -99.5l-2 -11t-10 -25.5t-25.5 -24.5t-49.5 -8z" />
    <glyph glyph-name="s" unicode="s" horiz-adv-x="496" 
d="M208 134q42 -6 42 3t-35 28q-16 9 -34 19.5t-35.5 24t-32.5 31.5t-26.5 41.5t-16.5 54.5q-8 47 16.5 85t74.5 60t119 19t150 -39l6.5 -4.5t14 -14t12.5 -23t2 -31.5q-3 -14 -11.5 -22t-18.5 -12t-17.5 -5l-7.5 -1h-4t-11 -0.5t-17.5 -1t-23 -1t-27.5 -1t-32 -1.5
q-19 -1 -30.5 -3t-11.5 -8.5t15 -19t50 -33.5q50 -30 80 -66.5t39 -74t-6 -72.5q-12 -28 -44 -45.5t-75.5 -23t-91 1t-92 26t-76.5 52.5l-5.5 7t-11 18t-5 24.5t12.5 26.5q11 12 25.5 15t28.5 0.5t23 -6l9 -3.5l6 -3t17 -7.5t25.5 -8.5t30.5 -6z" />
    <glyph glyph-name="t" unicode="t" horiz-adv-x="520" 
d="M260 -1q-32 0 -52.5 12.5t-31.5 29.5t-15.5 29.5l-4.5 12.5q-4 43 -7 92.5t-3.5 102t0.5 106t4 106t7 101.5l3 10t12.5 22.5t27 21t47.5 5.5q32 -3 50.5 -16.5t27.5 -29.5t12 -28l3 -12q-1 -38 -2.5 -84.5t-2.5 -97.5t-1 -104.5t1 -106.5t4 -102l-2 -10.5t-9 -24.5
t-23 -24.5t-45 -10.5zM403 333q-79 1 -149 3.5t-125 3.5l-13.5 2t-32.5 9t-34 22t-18 41q-3 23 6 37t22.5 21.5t24 10.5l10.5 3q8 1 30 2t53 2t67 1.5l72 1t68 0.5l11 -1t27 -5t31.5 -13.5t26 -25.5t9.5 -41q-1 -30 -14.5 -46t-30 -21.5t-29 -6z" />
    <glyph glyph-name="u" unicode="u" horiz-adv-x="618" 
d="M239 7q-22 5 -50 18t-56.5 37t-52.5 62t-39 95q-10 48 -10.5 93t9.5 110l3 14.5t14 31t34 26t63 -1.5q34 -9 50 -28t21 -39t4.5 -34.5l-0.5 -14.5q-9 -50 -6.5 -101.5t19.5 -83.5q10 -15 25.5 -21.5t33.5 -5.5t33 7t23 15q6 9 8 37.5t0 60.5t-9 52q-6 22 -10 37
t-5.5 27.5t-2.5 25.5l1 10t8 23.5t24 24.5t48 13q30 3 53.5 -10t37.5 -26.5l14 -13.5q14 -18 32 -54.5t26 -81.5q8 -54 5 -92.5t-15.5 -69.5t-34.5 -64q-23 -28 -57.5 -48t-75.5 -30.5t-83.5 -11t-81.5 11.5z" />
    <glyph glyph-name="v" unicode="v" horiz-adv-x="572" 
d="M277 -2q-14 1 -34.5 6t-43 17.5t-43 35.5t-34.5 59l-90 270l-1 13t3 31t18.5 33t44.5 19t51.5 -4t36 -20t21.5 -22l7 -10l26 -76q20 -53 29.5 -88t14.5 -45q1 -1 11 19.5t21 43.5q11 29 17.5 49t11 39t8.5 45l3 11.5t12.5 26t30 24.5t55.5 6q37 -4 56 -19t25.5 -33
t6.5 -31.5v-13.5q-1 -31 -8 -63.5t-16.5 -61.5t-18.5 -50t-15 -29q-28 -71 -63 -111.5t-72 -56.5t-71 -14z" />
    <glyph glyph-name="w" unicode="w" horiz-adv-x="900" 
d="M277 -2q-14 1 -34.5 6t-43 17.5t-43 35.5t-34.5 59l-90 270l-1 13t3 31t18.5 33t44.5 19t51.5 -4t36 -20t21.5 -22l7 -10l26 -76q20 -53 29.5 -88t14.5 -45q1 -1 11 19.5t21 43.5q11 29 17.5 49t11 39t8.5 45l3 11.5t12.5 26t30 24.5t55.5 6q37 -4 56 -19t25.5 -33
t6.5 -31.5v-13.5q-1 -31 -8 -63.5t-16.5 -61.5t-18.5 -50t-15 -29q-28 -71 -63 -111.5t-72 -56.5t-71 -14zM605 -2q-14 1 -34.5 6t-43 17.5t-43 35.5t-34.5 59l-90 270l-1 13t3 31t18 33t45 19q30 4 51.5 -4t36 -20t21.5 -22l7 -10l26 -76q20 -53 29.5 -88t14.5 -45
q1 -1 11 19.5t21 43.5q11 29 17.5 49t11 39t8.5 45l3 11.5t12.5 26t30 24.5t55.5 6q37 -4 56 -19t25.5 -33t6.5 -31.5v-13.5q-2 -41 -13.5 -84t-24 -76t-20.5 -44q-28 -71 -63 -111.5t-72 -56.5t-71 -14z" />
    <glyph glyph-name="x" unicode="x" horiz-adv-x="554" 
d="M74 10q-24 16 -33.5 33.5t-10 33t4 28t9 19.5l4.5 7q29 32 47.5 50.5t34 33.5t33.5 36q-18 22 -30 35t-22 25t-23 28.5t-33 44.5l-4 9.5t-5 24.5t6 30.5t29 27.5q20 11 39 11.5t34.5 -4.5t24.5 -10l9 -5q9 -4 24 -20t32 -35t30 -36q25 31 39 48.5t23 28t18 19.5l8.5 6.5
t24 13t37 6.5t47.5 -14q31 -16 42 -36t10.5 -38.5t-5 -30.5l-4.5 -12q-24 -32 -39 -51.5t-26 -32.5t-21.5 -25.5t-25.5 -30.5q29 -37 49 -61t33.5 -39.5t21.5 -29.5l3.5 -7.5t6 -20t0 -26.5t-15 -26.5t-38.5 -21.5q-32 -11 -57 -3.5t-39 19l-14 11.5l-65 78q-16 -19 -39 -41
t-54 -52l-9.5 -5.5t-26.5 -10t-38.5 -1.5t-45.5 19z" />
    <glyph glyph-name="y" unicode="y" horiz-adv-x="639" 
d="M357 -214q-70 -4 -132 9.5t-117 39.5l-11 6t-24 18.5t-19.5 30.5t1.5 42t23.5 34.5t31.5 12t27.5 0l11.5 -1.5q35 -9 59 -15.5t45 -9.5t44 -5q47 2 72 15.5t35 40t9 67.5q4 68 3.5 116.5t-4 88.5t-8 82.5t-9.5 97.5l6 11t23 21.5t50 10.5q34 1 56 -14t33.5 -29.5
l11.5 -14.5q18 -74 25.5 -140.5t8 -138t-3.5 -161.5q-10 -101 -69 -154.5t-179 -59.5zM220 12q-42 19 -79 48.5t-63 68t-35 83.5q-8 38 -10.5 68.5t0 62.5t9.5 75l3.5 11.5t13 26.5t27.5 26t47 9q35 -3 55.5 -15.5t30 -30t12 -34.5t1.5 -28l-1 -11q-7 -58 -4 -98t12 -62.5
t17 -30.5q12 -10 38 -9.5t69 17.5q5 2 16.5 16t22 38t9.5 55l139 27q14 -81 -1 -142t-53 -105q-29 -32 -72 -54t-95 -26.5t-109 14.5z" />
    <glyph glyph-name="z" unicode="z" horiz-adv-x="556" 
d="M144 -1q-47 4 -70.5 24t-29 46t2.5 49.5t23 34.5l163 149q2 3 6 6t5.5 5.5t-3.5 4t-22 0.5q-22 -1 -37 -2.5t-27.5 -3t-28.5 -2.5l-11 1.5t-26.5 6.5t-30 16t-21.5 30q-9 24 -6.5 40.5t9.5 26t14 13.5l7 4q75 29 150 35.5t167 -4.5q19 -4 42.5 -13t44.5 -25.5t32 -42.5
t3 -63q-3 -16 -14.5 -32.5t-28.5 -34t-37 -35t-41 -35t-41 -35.5l83 5l14 -1t33.5 -6.5t35.5 -19.5t20 -40q5 -31 -3 -49t-21 -27t-23.5 -12l-10.5 -3z" />
    <glyph glyph-name="braceleft" unicode="{" horiz-adv-x="326" 
d="M221 8l-12 -1.5t-31 0t-42 10.5t-45 30.5t-39 59.5q-9 20 -9.5 44.5t2.5 49t6 43.5t2 27l-6.5 5.5t-12 16t-3.5 25.5q2 16 10 25t15 13.5l7 4.5l0.5 3t0.5 12.5t-1 29.5t-4 53q-1 15 -0.5 34.5t5.5 41t16 41.5t30.5 35.5t49.5 23.5t72 5l9 -3.5t21.5 -10.5t22 -18.5
t10.5 -26.5q2 -21 -5.5 -32t-15 -15l-7.5 -4l-5 -1.5t-12.5 -5.5t-13.5 -11t-9 -19q-5 -23 -3.5 -45t4 -43.5t2.5 -43t-7 -42.5t-26 -43l3 -13.5t5 -35.5t0 -48q0 -4 -0.5 -16t6 -22.5t25.5 -12.5l7 -2.5t16 -9t16 -18.5t6 -32q-1 -16 -10 -27.5t-20.5 -18t-20.5 -9.5z" />
    <glyph glyph-name="bar" unicode="|" horiz-adv-x="258" 
d="M137 3q-32 0 -51 13t-29 29.5t-13 29l-3 12.5q-4 43 -6.5 91.5t-3.5 99t0.5 102.5t4.5 103t7 99l2 10.5t9.5 24t24.5 23.5t47 9q33 0 53 -11.5t30 -27.5t14 -32.5t4 -27.5v-11q-4 -40 -6 -85t-2.5 -93t0 -96.5t2.5 -97t4 -95.5l-1.5 -10.5t-9.5 -24.5t-26 -24.5t-51 -9.5
z" />
    <glyph glyph-name="braceright" unicode="}" horiz-adv-x="326" 
d="M105 8l-9 3t-20.5 9.5t-20.5 18t-10 27.5q-1 20 6 32t16 18.5t16 9l7 2.5q19 2 25.5 12.5t6.5 22.5t-1 16q-2 26 0 48t5 35.5l3 13.5q-19 22 -26 43t-7 42.5t2.5 43t4 43.5t-3.5 45q-3 12 -9 19t-13.5 11t-12.5 5.5l-5 1.5l-7.5 4t-14.5 15t-6 32q1 15 10.5 26.5t22 18.5
t21.5 10.5l9 3.5q43 3 72.5 -5t49 -23.5t30.5 -35.5t16 -41.5t5.5 -41t-0.5 -34.5q-3 -33 -4 -53t-1 -29.5t0.5 -12.5l0.5 -3l7 -4.5t15 -13.5t10 -25q2 -15 -3.5 -25.5t-12 -16l-6.5 -5.5q-1 -8 2 -27t6 -43.5t2.5 -49t-9.5 -44.5q-17 -38 -39 -59.5t-45 -30.5t-42 -10.5
t-31 0z" />
    <glyph glyph-name="asciitilde" unicode="~" horiz-adv-x="439" 
d="M129 243q-16 -7 -32 -3.5t-26 10l-10 6.5q-24 19 -28.5 43t4.5 47t28.5 38.5t43.5 18.5q39 5 65 0t47 -16t45 -24q3 -1 4.5 4.5t5.5 10.5l7.5 7.5t24 13t41.5 -2.5q27 -7 39.5 -19.5t16.5 -25.5t3 -21.5l-1 -8.5q-1 -17 -19 -42.5t-50 -33.5q-20 -6 -40 -7t-39.5 3.5
t-41.5 13.5q-12 5 -24 11.5t-21.5 12.5t-14.5 9l-0.5 -8t-6 -18.5t-21.5 -18.5z" />
    <glyph glyph-name="uni00A0" unicode="&#xa0;" horiz-adv-x="260" 
 />
    <glyph glyph-name="exclamdown" unicode="&#xa1;" horiz-adv-x="277" 
d="M142 -2q-35 1 -57 13t-33.5 29t-15.5 34t-4.5 28.5l-0.5 11.5q8 56 12.5 93t9 67t10.5 64t16 83l5.5 10.5t20 19.5t39.5 5q26 -3 40 -16t19.5 -25l5.5 -12q8 -47 15 -95.5t11.5 -106t3.5 -133.5l-2 -11t-11 -25t-29 -24.5t-55 -9.5zM146 480q-28 0 -51.5 11.5t-37 31
t-13.5 43.5q0 33 13.5 52t37 27t51.5 8t51 -11.5t36.5 -31.5t13.5 -44t-13.5 -43.5t-36.5 -31t-51 -11.5z" />
    <glyph glyph-name="cent" unicode="&#xa2;" horiz-adv-x="534" 
d="M266 72q-82 4 -132 34.5t-74 81.5t-29 117q-4 53 11.5 101.5t48 87t79.5 61t107 21.5q54 -1 91 -14t61 -32.5t36.5 -39t17.5 -32.5l5 -13l1 -9t-1 -22t-10 -24t-25 -14q-25 -4 -42.5 3t-27 16l-9.5 9l-5.5 7.5t-17 17t-28 14.5t-38.5 0q-14 -3 -30 -11t-30 -22
t-23.5 -35.5t-11.5 -51.5q-2 -40 6.5 -62.5t22 -33.5t27 -14t21.5 -4q27 -4 50.5 0.5t40.5 13t26.5 15l9.5 6.5l13 4.5t33.5 2.5t40.5 -20q16 -14 20 -28t2 -25.5t-6 -18.5l-4 -7l-12.5 -13t-39.5 -30t-70 -28.5t-105 -8.5zM283 -32q-21 -1 -36 9t-22.5 20.5l-7.5 10.5
q-5 10 -12.5 30t-13 41.5t-6.5 36.5h182q1 -17 -1.5 -39.5t-6.5 -42.5t-10 -30l-6 -8.5t-20.5 -17t-39.5 -10.5zM187 544q-1 18 1.5 40.5t7 43t9.5 29.5l6 8.5t20.5 17t39.5 9.5q21 2 36 -8t22.5 -20.5l7.5 -10.5q6 -10 13 -30t12.5 -41.5t6.5 -37.5h-182z" />
    <glyph glyph-name="sterling" unicode="&#xa3;" horiz-adv-x="509" 
d="M132 2q-42 2 -64.5 21.5t-26.5 45.5t7 47q14 19 20.5 28.5t8.5 23t3 42.5q0 30 -4.5 63t-9 67t-5 69t6.5 69q7 42 31 79.5t65.5 62t97.5 25.5q29 0 63.5 -10t65 -32t46.5 -59l4 -10.5t4.5 -25.5t-8.5 -28.5t-34 -19.5q-20 -4 -36.5 0.5t-26 11l-9.5 6.5q-8 7 -18.5 12
t-19.5 7q-6 0 -16.5 -6.5t-20 -17.5t-12.5 -25q-5 -17 -5 -42t3.5 -56t8 -67.5t8.5 -77.5q1 -11 3.5 -27.5t-9.5 -33.5q29 3 44 4.5t25.5 2.5t23.5 1h38l9.5 -1.5t23.5 -6t28 -13t23.5 -22t9.5 -34.5q1 -26 -9.5 -40t-24.5 -20t-24.5 -7.5l-10.5 -1.5q-12 0 -43 -0.5
t-72 -1.5t-84 -1.5t-78 -0.5zM82 243q-2 0 -13 5t-22 16.5t-15 30.5q-3 15 1.5 25.5t12.5 17t14 9.5l6 3q30 6 72 11.5t89 9.5t90 3l10 -0.5t25 -3.5t30 -10.5t25.5 -22t11.5 -37.5q1 -27 -10.5 -41t-27 -19t-27 -5.5l-11.5 -0.5q-43 1 -92 3t-93.5 4t-75.5 2z" />
    <glyph glyph-name="yen" unicode="&#xa5;" horiz-adv-x="562" 
d="M277 212q-95 12 -155 62t-81 130.5t1 180.5l4 10t15 23t30 21t49 3q34 -5 52 -19t25.5 -29.5t9 -27l1.5 -11.5q-4 -85 1.5 -129t27.5 -49q11 -1 26.5 12.5t29.5 38t21.5 56t2.5 65.5l-2 11.5t0.5 28t15.5 31.5t44 21q36 7 60.5 -2t39 -24t21 -27.5l6.5 -12.5
q13 -56 7.5 -116t-33.5 -113.5t-82 -89.5t-137 -44zM168 40q-5 0 -19.5 1t-29.5 8.5t-24 28.5q-6 16 -3 26.5t10 16.5t13 8.5l6 2.5q50 9 112 18t148 -2l9.5 -3.5t22.5 -10.5t22.5 -17.5t9.5 -24.5q0 -19 -9.5 -29.5t-21.5 -15.5t-21.5 -6.5l-9.5 -1.5q-35 2 -58.5 3
t-40 1.5t-32 0t-35.5 -1t-49 -2.5zM285 4q-30 0 -49 11t-30 25t-15.5 25l-4.5 11q-11 59 -10 117t7 112l185 -5q-6 -65 -5.5 -125.5t5.5 -107.5l-1.5 -9.5t-9 -22t-24.5 -22t-48 -9.5zM168 168q-4 0 -13.5 0.5t-21 3t-22 10.5t-16.5 23q-7 17 -4 27.5t10 16t13.5 8l6.5 2.5
q50 10 112 18.5t148 -2.5l9.5 -3.5t22.5 -10.5t22.5 -17.5t9.5 -24.5q0 -19 -9.5 -29.5t-21.5 -15.5t-21.5 -6.5l-9.5 -1.5q-35 2 -58.5 3.5t-40 2t-32 0t-35.5 -1t-49 -2.5z" />
    <glyph glyph-name="brokenbar" unicode="&#xa6;" horiz-adv-x="249" 
d="M131 301q-27 2 -45 12.5t-29 24.5t-15.5 24l-4.5 10q-4 39 -5.5 78.5t0 85t4.5 101.5l2.5 10t10.5 22.5t26 22t48 8.5q33 -1 52 -14t28.5 -29.5t12.5 -29l3 -12.5q-3 -71 -3.5 -128.5t2.5 -116.5l-2 -11t-10 -25.5t-25.5 -24.5t-49.5 -8zM131 -129q-27 2 -45 12.5
t-29 24.5t-15.5 24l-4.5 10q-4 39 -5.5 78.5t0 85t4.5 101.5l2.5 10t10.5 22.5t26 22t48 8.5q33 -1 52 -14t28.5 -29.5t12.5 -29l3 -12.5q-3 -71 -3.5 -128.5t2.5 -116.5l-2 -11t-10 -25.5t-25.5 -24.5t-49.5 -8z" />
    <glyph glyph-name="section" unicode="&#xa7;" horiz-adv-x="414" 
d="M216 -10q-28 0 -60 11t-60.5 29t-47 41t-18.5 47q0 20 15 30.5t28 10.5q19 0 33.5 -7t27.5 -15.5t26.5 -15.5t29.5 -7q4 0 6.5 1t3.5 3.5t1 4.5q0 12 -11 24t-27 25t-32 28.5t-27 35t-11 43.5q0 19 7.5 42.5t30.5 43.5q-32 21 -49.5 46t-23.5 50.5t-6 46.5q0 32 11 58
t31 44t48.5 27.5t63.5 9.5q37 0 71 -15t60 -37.5t39 -44.5l3.5 -9t3.5 -22q0 -19 -11 -32t-29 -13q-12 0 -20.5 3.5l-8.5 3.5q-17 5 -29.5 13.5t-24 15.5t-25.5 7q-8 0 -14.5 -2.5t-10 -6.5t-3.5 -11q0 -15 12 -28t31 -25.5t39 -26t36 -29.5q13 -13 20.5 -26.5t7.5 -30.5
q0 -7 -2 -13t-5 -10.5t-7.5 -8t-10.5 -6.5q-14 -7 -32 -10.5t-30.5 -6.5t-12.5 -12q0 -10 10.5 -18.5t26 -18.5t31.5 -23.5t26.5 -33.5t10.5 -49q0 -46 -20 -75t-52 -42.5t-70 -13.5z" />
    <glyph glyph-name="dieresis" unicode="&#xa8;" horiz-adv-x="474" 
d="M343 478q-28 0 -51 11.5t-37 31t-14 43.5t14 44t37 31.5t51 11.5t51 -11.5t36.5 -31.5t13.5 -44q0 -48 -29.5 -67t-71.5 -19zM131 478q-28 0 -51 11.5t-36.5 31t-13.5 43.5t13.5 44t36.5 31.5t51 11.5q29 0 52 -11.5t36.5 -31.5t13.5 -44q0 -32 -13.5 -51t-36.5 -27
t-52 -8z" />
    <glyph glyph-name="copyright" unicode="&#xa9;" horiz-adv-x="697" 
d="M350 0q-111 0 -181.5 44.5t-104.5 118.5t-34 164t38.5 163t110 116.5t171.5 42.5q46 0 91.5 -18t86 -49.5t72 -74t49.5 -92.5t18 -104q0 -89 -35 -159.5t-105 -111t-177 -40.5zM343 132q-62 4 -99.5 27t-55.5 62t-21 88q-4 53 17.5 100t64.5 76t103 28q51 0 82 -15
t47.5 -34.5t22.5 -34.5l6 -15l0.5 -11.5t-4.5 -24t-23 -16.5q-18 -3 -31 2.5t-20 12.5l-7 7l-4.5 5.5t-13 12.5t-21 11t-29.5 0q-10 -3 -22 -9t-22.5 -16.5t-18 -26.5t-8.5 -39q-1 -30 5.5 -47.5t16.5 -25.5t20 -10t16 -3q21 -3 38.5 0.5t30.5 10t20 11.5l7 5l10 3t25 2
t30 -15q16 -14 17 -28t-3.5 -23l-4.5 -9l-9.5 -10t-29.5 -22.5t-52.5 -21.5t-79.5 -7zM351 101q70 0 115.5 28t68.5 76.5t23 109.5q0 47 -18 88.5t-48 74.5t-66.5 52t-74.5 19q-65 0 -112 -30t-72 -80.5t-25 -112.5t22 -113t68.5 -81.5t118.5 -30.5z" />
    <glyph glyph-name="ordfeminine" unicode="&#xaa;" horiz-adv-x="317" 
d="M147 281q-32 0 -59 14.5t-42.5 39t-15.5 54.5q1 35 16.5 60t42 39.5t58.5 14.5q58 1 85.5 -26.5t27.5 -84.5q0 -29 -10.5 -54t-35 -40.5t-67.5 -16.5zM150 356q10 0 18.5 5.5t14 15.5t5.5 21q0 21 -10 31t-24 10q-9 0 -17 -7t-13 -17.5t-5 -21.5q0 -16 8.5 -26.5
t22.5 -10.5zM252 281q-19 0 -28 8l-9 8q-5 49 -7.5 94.5t1.5 98.5l9 7.5t30 5.5t28.5 -13t8.5 -21.5l1 -10.5q-2 -30 -3 -48.5t0 -39t3 -57.5l-1.5 -8t-8.5 -15.5t-24 -8.5z" />
    <glyph glyph-name="guillemotleft" unicode="&#xab;" horiz-adv-x="614" 
d="M535 71q-17 -11 -35.5 -9t-34.5 9.5t-26 14.5l-10 7q-21 23 -36 37.5t-28 31t-31 42.5q-29 37 -37.5 62.5t-5 44.5t10.5 33q13 27 33.5 61.5t47 69.5t58.5 64l7.5 7.5t22 15.5t33.5 9t41 -11t30 -25t8 -25t-2.5 -19.5l-2.5 -7.5q-21 -35 -39.5 -61t-35.5 -50t-36 -55
q-17 -37 4 -65l78 -82l5 -6t10 -16t6 -23t-6.5 -27t-28.5 -27zM275 71q-17 -11 -35.5 -9t-34.5 9.5t-26 14.5l-10 7q-21 23 -36 37.5t-28 31t-31 42.5q-29 37 -37.5 62.5t-5 44.5t10.5 33q13 27 33.5 61.5t47 69.5t58.5 64l7.5 7.5t22 15.5t33.5 9t41 -11t30 -25t8 -25
t-2.5 -19.5l-2.5 -7.5q-21 -35 -39.5 -61t-35.5 -50t-36 -55q-17 -37 4 -65l78 -82l5 -6t10 -16t6 -23t-6.5 -27t-28.5 -27z" />
    <glyph glyph-name="logicalnot" unicode="&#xac;" horiz-adv-x="712" 
d="M583 9q-21 4 -31.5 17.5t-14.5 29.5t-4.5 27.5l-0.5 11.5q0 33 2 58.5t4 50t0 53.5q-38 -2 -81.5 -3t-89 -1t-90.5 1.5t-86.5 3.5t-76.5 5l-12.5 3t-28.5 13t-28.5 29t-13.5 50t10 49t26 26.5t26.5 11l11.5 2.5q49 -3 99.5 -4.5t100.5 -2.5t98 -0.5t93.5 2t85.5 5.5
l13 -1.5t30.5 -9.5t32 -25.5t17.5 -50.5q7 -48 6.5 -101.5t-7 -106t-21.5 -97.5l-3 -8.5t-10.5 -18.5t-21 -16.5t-35.5 -2.5z" />
    <glyph glyph-name="registered" unicode="&#xae;" horiz-adv-x="584" 
d="M299 127q-91 0 -150.5 36.5t-89 97t-29.5 131.5q0 72 31.5 130.5t90.5 93t141 33.5q47 0 93.5 -21.5t84.5 -59t60.5 -86t22.5 -102.5q0 -71 -27 -128.5t-83.5 -91t-144.5 -33.5zM301 226q48 0 79.5 20.5t47.5 56.5t16 81q0 34 -12.5 64.5t-33 54.5t-46 38t-51.5 14
q-45 0 -77.5 -22t-50 -59t-17.5 -82t15.5 -83t47.5 -60.5t82 -22.5zM244 254q-18 1 -26.5 10t-11 17.5l-2.5 8.5q-1 19 -2 53t-0.5 73t3.5 72l1 6.5t8 13.5t24 10q52 4 89.5 -0.5t57.5 -23.5q31 -28 31.5 -67t-28.5 -66q-11 -10 -28 -17t-37.5 -10t-44.5 0l2 -52l-2.5 -7
t-10 -14t-23.5 -7zM347 269q-24 14 -46.5 26.5t-56.5 32.5q0 3 9 9.5t21 13.5t21 12l9 5q15 -6 24 -10t16 -8.5t17 -11t27 -18.5l6.5 -6.5t9 -17.5t-9.5 -25q-7 -8 -18.5 -8t-20 3zM278 406q19 -1 30 1.5t16 8.5t5 15q0 12 -6 18t-17 8t-26 0q-1 -13 -1.5 -25.5t-0.5 -25.5z
" />
    <glyph glyph-name="macron" unicode="&#xaf;" horiz-adv-x="486" 
d="M436 561q0 -27 -11 -42.5t-25.5 -22.5t-25.5 -9l-11 -2q-42 3 -66 5t-39 3t-28.5 1t-33 -1t-54.5 -3l-10.5 0.5t-26 4.5t-29.5 16t-21 34q-8 24 -4.5 39t12 24t16 12.5l7.5 3.5q29 7 57 13.5t58.5 11t69 3.5t88.5 -9l11.5 -5t27 -15.5t27 -25.5t11.5 -36z" />
    <glyph glyph-name="degree" unicode="&#xb0;" horiz-adv-x="443" 
d="M222 286q-66 0 -108.5 25.5t-63 68.5t-20.5 94q0 52 23 94t66 67t103 24q35 0 68.5 -15.5t61.5 -43t44.5 -62t16.5 -73.5q0 -77 -47.5 -128t-143.5 -51zM196 409q20 -7 35.5 5t22.5 36q6 16 4.5 31t-8 26.5t-16.5 14.5q-19 7 -35.5 -6t-24.5 -36q-7 -24 -3 -44t25 -27z
" />
    <glyph glyph-name="uni00B2" unicode="&#xb2;" horiz-adv-x="273" 
d="M90 341q-10 -1 -22.5 5.5t-19.5 18t-3 25.5q53 81 73.5 122t16.5 60q-1 2 -4.5 5.5t-9.5 4.5q-10 -1 -18 -5t-13 -8l-7.5 -4t-18.5 -4t-23 10q-10 9 -11 16.5t2.5 13t4.5 7.5q16 17 36.5 28.5t55.5 13.5q30 -1 54.5 -19.5t36 -46.5t3.5 -58q-5 -19 -11 -36.5t-17 -37.5
t-30 -45h40l9 -2.5t18.5 -9.5t9.5 -20q1 -13 -5.5 -19.5t-13 -9l-6.5 -2.5z" />
    <glyph glyph-name="uni00B3" unicode="&#xb3;" horiz-adv-x="254" 
d="M142 344q-14 -1 -32 3t-35 13.5t-27 21.5l-7 7.5t-10 18.5t7 23q9 11 20.5 10.5t20 -4l8.5 -3.5q14 -10 20.5 -14.5t18.5 -6.5q12 3 14.5 11.5t0.5 18t-6 14.5q-2 5 -13 10t-25 12q-9 3 -13.5 13t-0.5 20.5t20 13.5q3 1 7 3t10.5 6t14.5 10q3 3 5 15.5t-3 15.5
q-7 4 -23 2t-30 -4l-7 1t-15.5 5t-13.5 12q-6 12 -4 19t6.5 10.5l4.5 3.5q17 9 31 13.5t27 3.5q14 1 33.5 -3t34.5 -15q15 -10 25.5 -29.5t12.5 -40.5t-10 -37q-1 -4 -8 -11.5t-9 -9.5q7 -8 17 -21.5t14 -37.5q4 -29 -8 -50t-32 -32t-41 -11z" />
    <glyph glyph-name="acute" unicode="&#xb4;" horiz-adv-x="316" 
d="M114 486l-9 -0.5t-21.5 0.5t-25 7t-19.5 19q-12 23 -8.5 41t14.5 30.5t21 19l10 6.5q49 23 76.5 30t46.5 10l9 1t22 0t26 -6t21 -18q9 -15 8.5 -28t-5.5 -22.5t-10 -15l-5 -5.5q-16 -16 -37.5 -28t-43.5 -20.5t-40.5 -13.5t-29.5 -7z" />
    <glyph glyph-name="paragraph" unicode="&#xb6;" horiz-adv-x="812" 
d="M443 5q-28 -1 -45 9t-26 23.5t-11.5 24.5l-2.5 11l4 127q-42 -6 -81 -3.5t-73 12t-61.5 24.5t-47.5 34q-46 44 -61 101.5t1.5 116.5t65.5 105q49 47 139.5 58t213.5 1q31 -5 48 -16.5t24 -24.5t8 -22.5l1 -9.5q4 -48 6 -103t2.5 -110.5t-0.5 -107t-2.5 -94t-3.5 -70.5
l-3 -12.5t-13 -29t-29.5 -29.5t-52.5 -15zM675 5q-33 -1 -51 9.5t-26 24.5t-9.5 24.5l-1.5 10.5q2 46 4 94.5t2.5 97.5t0 96.5t-2.5 92.5t-6 86v11t4 27t14 32.5t30 27.5t53 12q30 0 47 -10t24.5 -23t9.5 -23.5l2 -10.5q5 -48 7.5 -99t4 -103t0.5 -103t-3 -99t-7 -91
l-3 -12.5t-13 -29t-29 -29.5t-51 -13z" />
    <glyph glyph-name="periodcentered" unicode="&#xb7;" horiz-adv-x="263" 
d="M131 238q-28 0 -51 12t-36.5 31.5t-13.5 43.5t13.5 43.5t36.5 31t51 11.5q29 0 52 -11.5t36.5 -31t13.5 -43.5q0 -32 -13.5 -51.5t-36.5 -27.5t-52 -8z" />
    <glyph glyph-name="cedilla" unicode="&#xb8;" horiz-adv-x="300" 
d="M155 -218q-34 2 -59.5 16t-46.5 33l-5 6t-9.5 15.5t-3.5 21t13 22.5t25 12.5t22.5 -1l9.5 -2.5q16 -6 23 -13t14 -12q8 -2 13 -1t7.5 3.5t2.5 3.5q-4 7 -9 13l-10 12q-4 -1 -14.5 3.5t-19.5 11.5t-9 12q-8 20 -7 45t5 38l3 8.5t13 17.5t31 8q20 -1 30.5 -14.5l10.5 -13.5
l7 -17.5t6 -27.5q5 -3 15.5 -11.5t23 -22t21.5 -29t11 -32.5q5 -39 -9.5 -63t-42 -34t-62.5 -8z" />
    <glyph glyph-name="uni00B9" unicode="&#xb9;" horiz-adv-x="251" 
d="M175 328q-23 1 -33 13t-12.5 24.5l-2.5 12.5q-2 24 -3.5 52.5t-1.5 57.5t2 53l-27 -22l-7 -3.5t-19 -3.5t-26 11q-13 11 -14 21t2.5 17l3.5 7l81 63q20 19 39 20.5t32 -1.5q16 -5 22 -15t7.5 -18.5l1.5 -8.5q-2 -25 -2.5 -55t-0.5 -62t1 -63.5t2 -60.5l-1.5 -10t-11 -20
t-32.5 -9z" />
    <glyph glyph-name="ordmasculine" unicode="&#xba;" horiz-adv-x="307" 
d="M132 414q-46 0 -75 32t-26 81q2 33 16 62.5t39.5 48t59.5 18.5q23 0 47 -6t43.5 -20.5t30.5 -39t9 -60.5q-1 -29 -15 -51t-35.5 -36.5t-46 -21.5t-47.5 -7zM145 481q13 0 25.5 6t21.5 18.5t10 31.5q1 21 -6.5 33t-19 17t-24.5 5q-12 0 -22.5 -8t-17 -21.5t-7.5 -29.5
q-1 -25 10 -38.5t30 -13.5z" />
    <glyph glyph-name="guillemotright" unicode="&#xbb;" horiz-adv-x="614" 
d="M339 71q-21 13 -28.5 27t-6.5 27t6 23t10 16l5 6l78 82q21 28 4 65q-19 31 -36 55t-35 50t-40 61l-2.5 7.5t-2.5 19.5t8 25t30 25q23 12 41.5 11t33 -9t22 -15.5l7.5 -7.5q32 -29 58.5 -64t47 -69.5t33.5 -61.5q8 -14 11 -33t-5.5 -44.5t-37.5 -62.5q-17 -26 -30.5 -42.5
t-28 -31t-36.5 -37.5l-10 -7t-26 -14.5t-34.5 -9.5t-35.5 9zM79 71q-21 13 -28.5 27t-6.5 27t6 23t10 16l5 6l78 82q21 28 4 65q-19 31 -36 55t-35 50t-40 61l-2.5 7.5t-2.5 19.5t8 25t30 25q23 12 41.5 11t33 -9t22 -15.5l7.5 -7.5q32 -29 58.5 -64t47 -69.5t33.5 -61.5
q8 -14 11 -33t-5.5 -44.5t-37.5 -62.5q-17 -26 -30.5 -42.5t-28 -31t-36.5 -37.5l-10 -7t-26 -14.5t-34.5 -9.5t-35.5 9z" />
    <glyph glyph-name="onequarter" unicode="&#xbc;" horiz-adv-x="669" 
d="M192 10q-26 9 -38 23.5t-15 29t-1.5 24.5l1.5 10q26 67 66.5 152.5t88.5 180.5t96 187l5.5 8.5t17 18t29.5 14t44 -3.5q29 -9 41.5 -23t15.5 -29t1 -25l-2 -10q-54 -110 -100 -208.5t-83 -181.5t-65 -147l-11 -10t-33.5 -16t-57.5 6zM175 328q-23 1 -33 13t-12.5 24.5
l-2.5 12.5q-2 24 -3.5 52.5t-1.5 57.5t2 53l-27 -22l-7 -3.5t-19 -3.5t-26 11q-13 11 -14 21t2.5 17l3.5 7l81 63q20 19 39 20.5t32 -1.5q16 -5 22 -15t7.5 -18.5l1.5 -8.5q-2 -25 -2.5 -55t-0.5 -62t1 -63.5t2 -60.5l-1.5 -10t-11 -20t-32.5 -9zM596 3q-21 0 -32.5 10.5
t-16 21.5l-4.5 11q-1 27 -2 46.5t-1.5 36.5t-0.5 35v42l-17 -20q-3 -4 -12 -12.5t-8 -9.5l60 7l13 -73q-28 -3 -50.5 -4t-55.5 0q-37 6 -52.5 22.5t-15 36t10.5 33.5q24 29 43.5 49t36.5 36q20 21 37.5 35t28.5 21q15 9 33.5 7.5t33 -12t14.5 -29.5q-2 -26 -3.5 -56.5
t-1.5 -63.5t1 -66t2 -65l-1.5 -9.5t-9.5 -19.5t-30 -10z" />
    <glyph glyph-name="onehalf" unicode="&#xbd;" horiz-adv-x="673" 
d="M192 10q-26 9 -38 23.5t-15 29t-1.5 24.5l1.5 10q26 67 66.5 152.5t88.5 180.5t96 187l5.5 8.5t17 18t29.5 14t44 -3.5q29 -9 41.5 -23t15.5 -29t1 -25l-2 -10q-54 -110 -100 -208.5t-83 -181.5t-65 -147l-11 -10t-33.5 -16t-57.5 6zM175 328q-23 1 -33 13t-12.5 24.5
l-2.5 12.5q-2 24 -3.5 52.5t-1.5 57.5t2 53l-27 -22l-7 -3.5t-19 -3.5t-26 11q-13 11 -14 21t2.5 17l3.5 7l81 63q20 19 39 20.5t32 -1.5q16 -5 22 -15t7.5 -18.5l1.5 -8.5q-2 -25 -2.5 -55t-0.5 -62t1 -63.5t2 -60.5l-1.5 -10t-11 -20t-32.5 -9zM490 1q-10 -1 -22.5 5.5
t-19.5 18t-3 25.5q53 81 73.5 122t16.5 60q-1 2 -4.5 5.5t-9.5 4.5q-10 -1 -18 -5t-13 -8l-7.5 -4t-18.5 -4t-23 10q-10 9 -11 16.5t2.5 13t4.5 7.5q16 17 36.5 28.5t55.5 13.5q30 -1 54.5 -19.5t36 -46.5t3.5 -58q-5 -18 -11 -36t-17 -38t-30 -45h40l9 -2.5t18.5 -9.5
t9.5 -20q1 -13 -5.5 -19.5t-13 -9l-6.5 -2.5z" />
    <glyph glyph-name="threequarters" unicode="&#xbe;" horiz-adv-x="669" 
d="M192 10q-26 9 -38 23.5t-15 29t-1.5 24.5l1.5 10q26 67 66.5 152.5t88.5 180.5t96 187l5.5 8.5t17 18t29.5 14t44 -3.5q29 -9 41.5 -23t15.5 -29t1 -25l-2 -10q-54 -110 -100 -208.5t-83 -181.5t-65 -147l-11 -10t-33.5 -16t-57.5 6zM142 344q-14 -1 -32 3t-35 13.5
t-27 21.5l-7 7.5t-10 18.5t7 23q9 11 20.5 10.5t20 -4l8.5 -3.5q14 -10 20.5 -14.5t18.5 -6.5q12 3 14.5 11.5t0.5 18t-6 14.5q-2 5 -13 10t-25 12q-9 3 -13.5 13t-0.5 20.5t20 13.5q3 1 7 3t10.5 6t14.5 10q3 3 5 15.5t-3 15.5q-7 4 -23 2t-30 -4l-7 1t-15.5 5t-13.5 12
q-6 12 -4 19t6.5 10.5l4.5 3.5q17 9 31 13.5t27 3.5q14 1 33.5 -3t34.5 -15q15 -10 25.5 -29.5t12.5 -40.5t-10 -37q-1 -4 -8 -11.5t-9 -9.5q7 -8 17 -21.5t14 -37.5q4 -29 -8 -50t-32 -32t-41 -11zM596 3q-21 0 -32.5 10.5t-16 21.5l-4.5 11q-1 27 -2 46.5t-1.5 36.5
t-0.5 35v42l-17 -20q-3 -4 -12 -12.5t-8 -9.5l60 7l13 -73q-28 -3 -50.5 -4t-55.5 0q-37 6 -52.5 22.5t-15 36t10.5 33.5q24 29 43.5 49t36.5 36q20 21 37.5 35t28.5 21q15 9 33.5 7.5t33 -12t14.5 -29.5q-2 -26 -3.5 -56.5t-1.5 -63.5t1 -66t2 -65l-1.5 -9.5t-9.5 -19.5
t-30 -10z" />
    <glyph glyph-name="questiondown" unicode="&#xbf;" horiz-adv-x="560" 
d="M280 -2q-47 0 -94.5 14.5t-85 44t-56.5 73.5q-7 19 -11 42.5t0.5 51t23.5 59.5t59 69q39 27 57.5 44t22.5 30l7 13t24 25.5t46 8.5q30 -4 46.5 -16t23.5 -26.5t8.5 -25l1.5 -10.5q5 -29 -4.5 -55.5t-27.5 -47.5t-38 -37q-25 -25 -38.5 -41.5t-18 -28t-5.5 -22.5
q4 -5 16.5 -7t25 -1.5t17.5 1.5q17 3 36.5 7t27.5 8q7 5 6.5 13.5t-4.5 19.5t-10 23l-1.5 10.5t2.5 24.5t18 23q24 14 45.5 15t38 -5t25.5 -12.5l9 -6.5q54 -55 56 -103t-33 -99q-19 -25 -52.5 -42t-75.5 -25.5t-88 -8.5zM273 483q-28 0 -51 11.5t-37 31t-14 43.5
q0 33 14 52t37 27t51 8t51 -11.5t36.5 -31.5t13.5 -44t-13.5 -43.5t-36.5 -31t-51 -11.5z" />
    <glyph glyph-name="Agrave" unicode="&#xc0;" horiz-adv-x="608" 
d="M127 -1q-37 5 -57 20.5t-28.5 34t-9.5 31.5l-1 13q2 77 22.5 157t46.5 162q33 87 61 133.5t53 66t47.5 23t45.5 3.5q17 3 41 -7t50 -31t48 -52.5t33 -72.5q10 -28 24.5 -71.5t29 -98t26.5 -116t18 -126.5l-1 -11t-8 -25.5t-24 -25.5t-49 -11t-53 12t-32.5 28.5t-16 28.5
l-4.5 12q-13 57 -19.5 97t-12.5 62q-14 56 -25 96.5t-23 77.5q-6 -21 -16.5 -49.5t-20.5 -57.5t-16 -53q-7 -38 -11.5 -59.5t-7 -37.5t-5 -36t-6.5 -56l-3.5 -10.5t-13.5 -24t-29.5 -22t-52.5 -4.5zM146 87l15 130q47 11 90.5 17.5t89.5 8t99 -3.5l17 -152q-35 6 -76 10
t-83.5 5t-81.5 -2.5t-70 -12.5zM347 674q-10 2 -29 6.5t-41 13t-43.5 20.5t-37.5 28l-5 5.5t-10 15.5t-5 22.5t9 27.5q8 13 21 18.5t26 6.5t21.5 0l8.5 -1q20 -4 47.5 -11t76.5 -29l10 -6.5t21 -19t14.5 -30.5t-9.5 -41q-7 -13 -19.5 -19t-25 -7.5t-21.5 -0.5z" />
    <glyph glyph-name="Aacute" unicode="&#xc1;" horiz-adv-x="608" 
d="M127 -1q-37 5 -57 20.5t-28.5 34t-9.5 31.5l-1 13q2 77 22.5 157t46.5 162q33 87 61 133.5t53 66t47.5 23t45.5 3.5q17 3 41 -7t50 -31t48 -52.5t33 -72.5q10 -28 24.5 -71.5t29 -98t26.5 -116t18 -126.5l-1 -11t-8 -25.5t-24 -25.5t-49 -11t-53 12t-32.5 28.5t-16 28.5
l-4.5 12q-13 57 -19.5 97t-12.5 62q-14 56 -25 96.5t-23 77.5q-6 -21 -16.5 -49.5t-20.5 -57.5t-16 -53q-7 -38 -11.5 -59.5t-7 -37.5t-5 -36t-6.5 -56l-3.5 -10.5t-13.5 -24t-29.5 -22t-52.5 -4.5zM146 87l15 130q47 11 90.5 17.5t89.5 8t99 -3.5l17 -152q-35 6 -76 10
t-83.5 5t-81.5 -2.5t-70 -12.5zM261 669l-9 -0.5t-21.5 0.5t-25 7t-19.5 19q-12 23 -8.5 41t14.5 30.5t21 19l10 6.5q49 23 76.5 30t46.5 10l9 1t22 0t26 -6t21 -18q9 -15 8.5 -28t-5.5 -22.5t-10 -15l-5 -5.5q-16 -16 -37.5 -28t-43.5 -20.5t-40.5 -13.5t-29.5 -7z" />
    <glyph glyph-name="Acircumflex" unicode="&#xc2;" horiz-adv-x="608" 
d="M127 -1q-37 5 -57 20.5t-28.5 34t-9.5 31.5l-1 13q2 77 22.5 157t46.5 162q33 87 61 133.5t53 66t47.5 23t45.5 3.5q17 3 41 -7t50 -31t48 -52.5t33 -72.5q10 -28 24.5 -71.5t29 -98t26.5 -116t18 -126.5l-1 -11t-8 -25.5t-24 -25.5t-49 -11t-53 12t-32.5 28.5t-16 28.5
l-4.5 12q-13 57 -19.5 97t-12.5 62q-14 56 -25 96.5t-23 77.5q-6 -21 -16.5 -49.5t-20.5 -57.5t-16 -53q-7 -38 -11.5 -59.5t-7 -37.5t-5 -36t-6.5 -56l-3.5 -10.5t-13.5 -24t-29.5 -22t-52.5 -4.5zM146 87l15 130q47 11 90.5 17.5t89.5 8t99 -3.5l17 -152q-35 6 -76 10
t-83.5 5t-81.5 -2.5t-70 -12.5zM184 681q-18 13 -24 25.5t-6 23t2.5 17l2.5 6.5q13 18 24 31t25 25t36 28q9 8 27.5 11t39 0t36.5 -16l81 -52l7.5 -8t14 -21t4.5 -29t-21 -33q-13 -12 -28 -14.5t-28.5 0t-22 5.5l-8.5 3l-41 33q-12 -10 -26 -21.5t-25 -20.5l-10.5 -3
t-26.5 -2.5t-33 12.5z" />
    <glyph glyph-name="Atilde" unicode="&#xc3;" horiz-adv-x="608" 
d="M127 -1q-37 5 -57 20.5t-28.5 34t-9.5 31.5l-1 13q2 77 22.5 157t46.5 162q33 87 61 133.5t53 66t47.5 23t45.5 3.5q17 3 41 -7t50 -31t48 -52.5t33 -72.5q10 -28 24.5 -71.5t29 -98t26.5 -116t18 -126.5l-1 -11t-8 -25.5t-24 -25.5t-49 -11t-53 12t-32.5 28.5t-16 28.5
l-4.5 12q-13 57 -19.5 97t-12.5 62q-14 56 -25 96.5t-23 77.5q-6 -21 -16.5 -49.5t-20.5 -57.5t-16 -53q-7 -38 -11.5 -59.5t-7 -37.5t-5 -36t-6.5 -56l-3.5 -10.5t-13.5 -24t-29.5 -22t-52.5 -4.5zM146 87l15 130q47 11 90.5 17.5t89.5 8t99 -3.5l17 -152q-35 6 -76 10
t-83.5 5t-81.5 -2.5t-70 -12.5zM214 672q-16 -7 -32 -3.5t-26 10l-10 6.5q-24 20 -28.5 44t4.5 47t28.5 38.5t43.5 18.5q39 5 65 -0.5t47 -16.5t45 -24q3 0 4.5 5.5t5.5 10.5l7.5 7.5t24 12.5t41.5 -2q27 -7 39.5 -20t16.5 -25.5t3 -21.5l-1 -9q-1 -16 -19 -41.5t-50 -34.5
q-20 -6 -40 -6.5t-39.5 4t-41.5 13.5q-12 4 -24 10.5t-21.5 13t-14.5 9.5l-0.5 -8.5t-6 -19t-21.5 -18.5z" />
    <glyph glyph-name="Adieresis" unicode="&#xc4;" horiz-adv-x="608" 
d="M127 -1q-37 5 -57 20.5t-28.5 34t-9.5 31.5l-1 13q2 77 22.5 157t46.5 162q33 87 61 133.5t53 66t47.5 23t45.5 3.5q17 3 41 -7t50 -31t48 -52.5t33 -72.5q10 -28 24.5 -71.5t29 -98t26.5 -116t18 -126.5l-1 -11t-8 -25.5t-24 -25.5t-49 -11t-53 12t-32.5 28.5t-16 28.5
l-4.5 12q-13 57 -19.5 97t-12.5 62q-14 56 -25 96.5t-23 77.5q-6 -21 -16.5 -49.5t-20.5 -57.5t-16 -53q-7 -38 -11.5 -59.5t-7 -37.5t-5 -36t-6.5 -56l-3.5 -10.5t-13.5 -24t-29.5 -22t-52.5 -4.5zM146 87l15 130q47 11 90.5 17.5t89.5 8t99 -3.5l17 -152q-35 6 -76 10
t-83.5 5t-81.5 -2.5t-70 -12.5zM413 661q-28 0 -51 11.5t-37 31t-14 43.5t14 44t37 31.5t51 11.5t51 -11.5t36.5 -31.5t13.5 -44q0 -48 -29.5 -67t-71.5 -19zM201 661q-28 0 -51 11.5t-36.5 31t-13.5 43.5t13.5 44t36.5 31.5t51 11.5q29 0 52 -11.5t36.5 -31.5t13.5 -44
q0 -32 -13.5 -51t-36.5 -27t-52 -8z" />
    <glyph glyph-name="Aring" unicode="&#xc5;" horiz-adv-x="608" 
d="M127 -1q-37 5 -57 20.5t-28.5 34t-9.5 31.5l-1 13q2 77 22.5 157t46.5 162q33 87 61 133.5t53 66t47.5 23t45.5 3.5q17 3 41 -7t50 -31t48 -52.5t33 -72.5q10 -28 24.5 -71.5t29 -98t26.5 -116t18 -126.5l-1 -11t-8 -25.5t-24 -25.5t-49 -11t-53 12t-32.5 28.5t-16 28.5
l-4.5 12q-13 57 -19.5 97t-12.5 62q-14 56 -25 96.5t-23 77.5q-6 -21 -16.5 -49.5t-20.5 -57.5t-16 -53q-7 -38 -11.5 -59.5t-7 -37.5t-5 -36t-6.5 -56l-3.5 -10.5t-13.5 -24t-29.5 -22t-52.5 -4.5zM146 87l15 130q47 11 90.5 17.5t89.5 8t99 -3.5l17 -152q-35 6 -76 10
t-83.5 5t-81.5 -2.5t-70 -12.5zM297 657q-36 0 -63.5 17t-42.5 44.5t-15 57.5q0 31 17 55.5t44.5 39t59.5 14.5t61 -12.5t47.5 -36t18.5 -56.5q0 -30 -15 -58.5t-43.5 -46.5t-68.5 -18zM299 751q11 0 17 7t6 15t-7 13t-16 5q-8 0 -14.5 -5.5t-6.5 -13.5t6 -14.5t15 -6.5z
" />
    <glyph glyph-name="AE" unicode="&#xc6;" horiz-adv-x="895" 
d="M127 -1q-37 5 -57 20.5t-28.5 34t-9.5 31.5l-1 13q2 77 22.5 157t46.5 162q33 87 61 133.5t53 66t47.5 23t45.5 3.5q17 3 41 -7t50 -31t48 -52.5t33 -72.5q10 -28 24.5 -71.5t29 -98t26.5 -116t18 -126.5l-1 -11t-8 -25.5t-24 -25.5t-49 -11t-53 12t-32.5 28.5t-16 28.5
l-4.5 12q-13 57 -19.5 97t-12.5 62q-14 56 -25 96.5t-23 77.5q-6 -21 -16.5 -49.5t-20.5 -57.5t-16 -53q-7 -38 -11.5 -59.5t-7 -37.5t-5 -36t-6.5 -56l-3.5 -10.5t-13.5 -24t-29.5 -22t-52.5 -4.5zM146 87l15 130q47 11 90.5 17.5t89.5 8t99 -3.5l17 -152q-35 6 -76 10
t-83.5 5t-81.5 -2.5t-70 -12.5zM501 0q-42 4 -65 18.5t-32.5 32.5t-12 34.5t-3.5 25.5q-3 71 -5.5 126.5t-2.5 107t3 110.5t10 138q3 14 20 32.5t57 22.5l265 7l12 -0.5t30.5 -4t37 -12.5t31 -26t13.5 -44t-10 -42.5t-26 -23t-26.5 -9.5l-11.5 -2l-212 10q-2 -51 -3 -86
t-1.5 -62t0 -52.5t0.5 -57.5t1 -78q30 5 47.5 7.5t28.5 4.5t22.5 4t28.5 5.5t46 9.5h10t25.5 -2.5t32.5 -9.5t30.5 -19.5t18.5 -32.5q8 -29 2.5 -47.5t-17 -28.5t-21 -14l-9.5 -4q-46 -10 -82.5 -18t-71.5 -13t-73 -7t-87 0zM425 249l-11 164l279 11l9.5 -2.5t23 -8
t27 -15.5t23 -25t9.5 -36q0 -28 -11 -44t-26 -23t-26 -8.5l-11 -1.5z" />
    <glyph glyph-name="Ccedilla" unicode="&#xc7;" horiz-adv-x="620" 
d="M278 5q-63 12 -108.5 40t-75 67.5t-45 83.5t-18.5 88t5 82q9 44 29.5 93.5t56.5 93t90 71t130 27.5q66 0 117 -26.5t83 -68t43 -88t-3 -87.5l-8 -13t-26 -24.5t-48 -8.5q-31 4 -47.5 21t-22.5 33l-6 16l-1 8t-4 20.5t-10 24.5t-18.5 20t-29.5 8q-27 0 -48.5 -15
t-37.5 -38.5t-27 -50t-17 -50t-7 -38.5q-1 -14 1 -29.5t7.5 -31t14 -29.5t21.5 -24t29 -15q14 -4 33.5 3t38 20t26.5 26l7 10t22.5 21t39.5 13.5t58 -12.5q29 -13 42.5 -29t16.5 -32.5t-0.5 -30t-7.5 -22l-4 -8.5l-9.5 -15.5t-30 -37.5t-54.5 -41.5t-82.5 -28t-114.5 3.5z
M322 -228q-34 2 -59.5 16t-46.5 33l-5 6t-9.5 15.5t-3.5 21t13 22.5t25 12.5t22.5 -1l9.5 -2.5q16 -6 23 -13t14 -12q8 -2 13 -1t7.5 3.5t2.5 3.5q-4 7 -9 13l-10 12q-4 -1 -14.5 3.5t-19.5 11.5t-9 12q-8 20 -7 45t5 38l3 8.5t13 17.5t31 8q20 -1 30.5 -14.5l10.5 -13.5
l7 -17.5t6 -27.5q5 -3 15.5 -11.5t23 -22t21.5 -29t11 -32.5q5 -39 -9.5 -63t-42 -34t-62.5 -8z" />
    <glyph glyph-name="Egrave" unicode="&#xc8;" horiz-adv-x="545" 
d="M151 2q-42 4 -65 18.5t-32.5 32.5t-12 34.5t-3.5 25.5q-3 71 -5.5 126.5t-2.5 107t3 110.5t10 138q3 14 20 32.5t57 22.5l265 7l12 -0.5t30.5 -4t37 -12.5t31 -26t13.5 -44t-10 -42.5t-26 -23t-26.5 -9.5l-11.5 -2l-212 10q-2 -51 -3 -86t-1.5 -62t0 -52.5t0.5 -57.5
t1 -78q30 5 47.5 7.5t28.5 4.5t22.5 4t28.5 5.5t46 9.5h10t25.5 -2.5t32.5 -9.5t30.5 -19.5t18.5 -32.5q8 -29 2.5 -47.5t-17 -28.5t-21 -14l-9.5 -4q-46 -10 -82.5 -18t-71.5 -13t-73 -7t-87 0zM75 251l-11 164l279 11l9.5 -2.5t23 -8t27 -15.5t23 -25t9.5 -36
q0 -28 -11 -44t-26 -23t-26 -8.5l-11 -1.5zM331 674q-10 2 -29 6.5t-41 13t-43.5 20.5t-37.5 28l-5 5.5t-10 15.5t-5 22.5t9 27.5q8 13 21 18.5t26 6.5t21.5 0l8.5 -1q20 -4 47.5 -11t76.5 -29l10 -6.5t21 -19t14.5 -30.5t-9.5 -41q-7 -13 -19.5 -19t-25 -7.5t-21.5 -0.5z
" />
    <glyph glyph-name="Eacute" unicode="&#xc9;" horiz-adv-x="545" 
d="M151 2q-42 4 -65 18.5t-32.5 32.5t-12 34.5t-3.5 25.5q-3 71 -5.5 126.5t-2.5 107t3 110.5t10 138q3 14 20 32.5t57 22.5l265 7l12 -0.5t30.5 -4t37 -12.5t31 -26t13.5 -44t-10 -42.5t-26 -23t-26.5 -9.5l-11.5 -2l-212 10q-2 -51 -3 -86t-1.5 -62t0 -52.5t0.5 -57.5
t1 -78q30 5 47.5 7.5t28.5 4.5t22.5 4t28.5 5.5t46 9.5h10t25.5 -2.5t32.5 -9.5t30.5 -19.5t18.5 -32.5q8 -29 2.5 -47.5t-17 -28.5t-21 -14l-9.5 -4q-46 -10 -82.5 -18t-71.5 -13t-73 -7t-87 0zM75 251l-11 164l279 11l9.5 -2.5t23 -8t27 -15.5t23 -25t9.5 -36
q0 -28 -11 -44t-26 -23t-26 -8.5l-11 -1.5zM245 669l-9 -0.5t-21.5 0.5t-25 7t-19.5 19q-12 23 -8.5 41t14.5 30.5t21 19l10 6.5q49 23 76.5 30t46.5 10l9 1t22 0t26 -6t21 -18q9 -15 8.5 -28t-5.5 -22.5t-10 -15l-5 -5.5q-16 -16 -37.5 -28t-43.5 -20.5t-40.5 -13.5
t-29.5 -7z" />
    <glyph glyph-name="Ecircumflex" unicode="&#xca;" horiz-adv-x="545" 
d="M151 2q-42 4 -65 18.5t-32.5 32.5t-12 34.5t-3.5 25.5q-3 71 -5.5 126.5t-2.5 107t3 110.5t10 138q3 14 20 32.5t57 22.5l265 7l12 -0.5t30.5 -4t37 -12.5t31 -26t13.5 -44t-10 -42.5t-26 -23t-26.5 -9.5l-11.5 -2l-212 10q-2 -51 -3 -86t-1.5 -62t0 -52.5t0.5 -57.5
t1 -78q30 5 47.5 7.5t28.5 4.5t22.5 4t28.5 5.5t46 9.5h10t25.5 -2.5t32.5 -9.5t30.5 -19.5t18.5 -32.5q8 -29 2.5 -47.5t-17 -28.5t-21 -14l-9.5 -4q-46 -10 -82.5 -18t-71.5 -13t-73 -7t-87 0zM75 251l-11 164l279 11l9.5 -2.5t23 -8t27 -15.5t23 -25t9.5 -36
q0 -28 -11 -44t-26 -23t-26 -8.5l-11 -1.5zM168 681q-18 13 -24 25.5t-6 23t2.5 17l2.5 6.5q13 18 24 31t25 25t36 28q9 8 27.5 11t39 0t36.5 -16l81 -52l7.5 -8t14 -21t4.5 -29t-21 -33q-13 -12 -28 -14.5t-28.5 0t-22 5.5l-8.5 3l-41 33q-12 -10 -26 -21.5t-25 -20.5
l-10.5 -3t-26.5 -2.5t-33 12.5z" />
    <glyph glyph-name="Edieresis" unicode="&#xcb;" horiz-adv-x="545" 
d="M151 2q-42 4 -65 18.5t-32.5 32.5t-12 34.5t-3.5 25.5q-3 71 -5.5 126.5t-2.5 107t3 110.5t10 138q3 14 20 32.5t57 22.5l265 7l12 -0.5t30.5 -4t37 -12.5t31 -26t13.5 -44t-10 -42.5t-26 -23t-26.5 -9.5l-11.5 -2l-212 10q-2 -51 -3 -86t-1.5 -62t0 -52.5t0.5 -57.5
t1 -78q30 5 47.5 7.5t28.5 4.5t22.5 4t28.5 5.5t46 9.5h10t25.5 -2.5t32.5 -9.5t30.5 -19.5t18.5 -32.5q8 -29 2.5 -47.5t-17 -28.5t-21 -14l-9.5 -4q-46 -10 -82.5 -18t-71.5 -13t-73 -7t-87 0zM75 251l-11 164l279 11l9.5 -2.5t23 -8t27 -15.5t23 -25t9.5 -36
q0 -28 -11 -44t-26 -23t-26 -8.5l-11 -1.5zM397 661q-28 0 -51 11.5t-37 31t-14 43.5t14 44t37 31.5t51 11.5t51 -11.5t36.5 -31.5t13.5 -44q0 -48 -29.5 -67t-71.5 -19zM185 661q-28 0 -51 11.5t-36.5 31t-13.5 43.5t13.5 44t36.5 31.5t51 11.5q29 0 52 -11.5t36.5 -31.5
t13.5 -44q0 -32 -13.5 -51t-36.5 -27t-52 -8z" />
    <glyph glyph-name="Igrave" unicode="&#xcc;" horiz-adv-x="258" 
d="M137 5q-32 0 -51 13t-29 29.5t-13 29l-3 12.5q-4 43 -6.5 91t-3.5 99t0.5 103t4.5 103t7 99l2 10.5t9.5 23.5t24.5 23t47 10q33 -1 53 -12t30 -27.5t14 -32.5t4 -27v-11q-4 -41 -6 -86t-2.5 -92.5t0 -96.5t2.5 -97.5t4 -94.5l-1.5 -10.5t-9.5 -24.5t-26 -24.5t-51 -9.5z
M170 674q-10 2 -29 6.5t-41 13t-43.5 20.5t-37.5 28l-5 5.5t-10 15.5t-5 22.5t9 27.5q8 13 21 18.5t26 6.5t21.5 0l8.5 -1q20 -4 47.5 -11t76.5 -29l10 -6.5t21 -19t14.5 -30.5t-9.5 -41q-7 -13 -19.5 -19t-25 -7.5t-21.5 -0.5z" />
    <glyph glyph-name="Iacute" unicode="&#xcd;" horiz-adv-x="258" 
d="M137 5q-32 0 -51 13t-29 29.5t-13 29l-3 12.5q-4 43 -6.5 91t-3.5 99t0.5 103t4.5 103t7 99l2 10.5t9.5 23.5t24.5 23t47 10q33 -1 53 -12t30 -27.5t14 -32.5t4 -27v-11q-4 -41 -6 -86t-2.5 -92.5t0 -96.5t2.5 -97.5t4 -94.5l-1.5 -10.5t-9.5 -24.5t-26 -24.5t-51 -9.5z
M84 669l-9 -0.5t-21.5 0.5t-25 7t-19.5 19q-12 23 -8.5 41t14.5 30.5t21 19l10 6.5q49 23 76.5 30t46.5 10l9 1t22 0t26 -6t21 -18q9 -15 8.5 -28t-5.5 -22.5t-10 -15l-5 -5.5q-16 -16 -37.5 -28t-43.5 -20.5t-40.5 -13.5t-29.5 -7z" />
    <glyph glyph-name="Icircumflex" unicode="&#xce;" horiz-adv-x="258" 
d="M137 5q-32 0 -51 13t-29 29.5t-13 29l-3 12.5q-4 43 -6.5 91t-3.5 99t0.5 103t4.5 103t7 99l2 10.5t9.5 23.5t24.5 23t47 10q33 -1 53 -12t30 -27.5t14 -32.5t4 -27v-11q-4 -41 -6 -86t-2.5 -92.5t0 -96.5t2.5 -97.5t4 -94.5l-1.5 -10.5t-9.5 -24.5t-26 -24.5t-51 -9.5z
M7 681q-18 13 -24 25.5t-6 23t2.5 17l2.5 6.5q13 18 24 31t25 25t36 28q9 8 27.5 11t39 0t36.5 -16l81 -52l7.5 -8t14 -21t4.5 -29t-21 -33q-13 -12 -28 -14.5t-28.5 0t-22 5.5l-8.5 3l-41 33q-12 -10 -26 -21.5t-25 -20.5l-10.5 -3t-26.5 -2.5t-33 12.5z" />
    <glyph glyph-name="Idieresis" unicode="&#xcf;" horiz-adv-x="258" 
d="M137 5q-32 0 -51 13t-29 29.5t-13 29l-3 12.5q-4 43 -6.5 91t-3.5 99t0.5 103t4.5 103t7 99l2 10.5t9.5 23.5t24.5 23t47 10q33 -1 53 -12t30 -27.5t14 -32.5t4 -27v-11q-4 -41 -6 -86t-2.5 -92.5t0 -96.5t2.5 -97.5t4 -94.5l-1.5 -10.5t-9.5 -24.5t-26 -24.5t-51 -9.5z
M236 661q-28 0 -51 11.5t-37 31t-14 43.5t14 44t37 31.5t51 11.5t51 -11.5t36.5 -31.5t13.5 -44q0 -48 -29.5 -67t-71.5 -19zM24 661q-28 0 -51 11.5t-36.5 31t-13.5 43.5t13.5 44t36.5 31.5t51 11.5q29 0 52 -11.5t36.5 -31.5t13.5 -44q0 -32 -13.5 -51t-36.5 -27t-52 -8z
" />
    <glyph glyph-name="Eth" unicode="&#xd0;" horiz-adv-x="643" 
d="M166 -2q-57 3 -86.5 28.5t-39.5 58.5q-8 125 -9 245.5t9 233.5q2 53 53 70t140 17q76 0 129.5 -13.5t90.5 -36t64 -51t49 -57.5q56 -112 45.5 -209.5t-81.5 -182.5q-41 -46 -99 -69.5t-126 -30t-139 -3.5zM224 180q51 -4 86.5 5t57.5 29t32.5 50t12.5 68q-3 50 -17 81.5
t-39 48.5t-58 21.5t-74 -0.5q-3 -73 -3 -148.5t2 -154.5zM28 262q-1 0 -15.5 1t-31 9.5t-24.5 33.5q-6 19 -3 32t10 20t13 10l6 3q19 4 43.5 8.5t53 8t60 5t64.5 0t66 -6.5l9.5 -4.5t21.5 -12.5t21.5 -20.5t9.5 -28.5q0 -22 -9 -35t-20.5 -19t-20.5 -7.5l-9 -1.5
q-34 2 -60.5 4t-48 3t-42.5 1t-43.5 -0.5t-50.5 -2.5z" />
    <glyph glyph-name="Ntilde" unicode="&#xd1;" horiz-adv-x="646" 
d="M134 5q-30 2 -48.5 13.5t-29 26.5t-14 26l-3.5 11q-6 54 -7.5 110t-1 112t2.5 111t4 109l2.5 13t15 29t41.5 25q17 6 36.5 2.5t34 -8.5t15.5 -7q30 -20 68 -57.5t82 -87t91 -105.5q0 27 -1 53t-0.5 55.5t2.5 67t6 88.5l2.5 9t10.5 20.5t25 20t46 7.5q33 -1 52.5 -12
t30 -27.5t14.5 -32.5t4 -27v-11q-4 -40 -6 -84t-2.5 -90t0 -93.5t2 -96.5t4.5 -98l-1 -9.5t-7.5 -22.5t-20 -24.5t-39.5 -15.5q-29 -5 -51.5 6.5t-34.5 24.5l-12 13l-9.5 10t-25 27.5t-36 40t-42.5 47t-44 48.5t-41 45.5t-33 37.5q0 -31 0.5 -61.5t1.5 -70t3 -98.5l-2 -11
t-10.5 -25.5t-26 -25t-48.5 -8.5zM237 672q-16 -7 -32 -3.5t-26 10l-10 6.5q-24 20 -28.5 44t4.5 47t28.5 38.5t43.5 18.5q39 5 65 -0.5t47 -16.5t45 -24q3 0 4.5 5.5t5.5 10.5l7.5 7.5t24 12.5t41.5 -2q27 -7 39.5 -20t16.5 -25.5t3 -21.5l-1 -9q-1 -16 -19 -41.5
t-50 -34.5q-20 -6 -40 -6.5t-39.5 4t-41.5 13.5q-12 4 -24 10.5t-21.5 13t-14.5 9.5l-0.5 -8.5t-6 -19t-21.5 -18.5z" />
    <glyph glyph-name="Ograve" unicode="&#xd2;" horiz-adv-x="734" 
d="M308 -7q-63 0 -115.5 23t-90 64.5t-56.5 98t-15 124.5q3 68 26.5 131t64.5 113t98 79.5t127 29.5q51 0 103 -10.5t99 -34.5t83.5 -64t55.5 -98.5t15 -138.5q-3 -64 -28.5 -114.5t-66 -88.5t-91 -63.5t-104.5 -38t-105 -12.5zM344 176q21 0 42 6t40.5 18.5t35.5 31
t26 43.5t11 56q2 42 -9 71t-30.5 46.5t-44.5 25.5t-51 8q-25 0 -48 -13t-40.5 -35.5t-28 -52.5t-12.5 -63q-2 -44 11 -76t38.5 -49t59.5 -17zM390 674q-10 2 -29 6.5t-41 13t-43.5 20.5t-37.5 28l-5 5.5t-10 15.5t-5 22.5t9 27.5q8 13 21 18.5t26 6.5t21.5 0l8.5 -1
q20 -4 47.5 -11t76.5 -29l10 -6.5t21 -19t14.5 -30.5t-9.5 -41q-7 -13 -19.5 -19t-25 -7.5t-21.5 -0.5z" />
    <glyph glyph-name="Oacute" unicode="&#xd3;" horiz-adv-x="734" 
d="M308 -7q-63 0 -115.5 23t-90 64.5t-56.5 98t-15 124.5q3 68 26.5 131t64.5 113t98 79.5t127 29.5q51 0 103 -10.5t99 -34.5t83.5 -64t55.5 -98.5t15 -138.5q-3 -64 -28.5 -114.5t-66 -88.5t-91 -63.5t-104.5 -38t-105 -12.5zM344 176q21 0 42 6t40.5 18.5t35.5 31
t26 43.5t11 56q2 42 -9 71t-30.5 46.5t-44.5 25.5t-51 8q-25 0 -48 -13t-40.5 -35.5t-28 -52.5t-12.5 -63q-2 -44 11 -76t38.5 -49t59.5 -17zM304 669l-9 -0.5t-21.5 0.5t-25 7t-19.5 19q-12 23 -8.5 41t14.5 30.5t21 19l10 6.5q49 23 76.5 30t46.5 10l9 1t22 0t26 -6
t21 -18q9 -15 8.5 -28t-5.5 -22.5t-10 -15l-5 -5.5q-16 -16 -37.5 -28t-43.5 -20.5t-40.5 -13.5t-29.5 -7z" />
    <glyph glyph-name="Ocircumflex" unicode="&#xd4;" horiz-adv-x="734" 
d="M308 -7q-63 0 -115.5 23t-90 64.5t-56.5 98t-15 124.5q3 68 26.5 131t64.5 113t98 79.5t127 29.5q51 0 103 -10.5t99 -34.5t83.5 -64t55.5 -98.5t15 -138.5q-3 -64 -28.5 -114.5t-66 -88.5t-91 -63.5t-104.5 -38t-105 -12.5zM344 176q21 0 42 6t40.5 18.5t35.5 31
t26 43.5t11 56q2 42 -9 71t-30.5 46.5t-44.5 25.5t-51 8q-25 0 -48 -13t-40.5 -35.5t-28 -52.5t-12.5 -63q-2 -44 11 -76t38.5 -49t59.5 -17zM227 681q-18 13 -24 25.5t-6 23t2.5 17l2.5 6.5q13 18 24 31t25 25t36 28q9 8 27.5 11t39 0t36.5 -16l81 -52l7.5 -8t14 -21
t4.5 -29t-21 -33q-13 -12 -28 -14.5t-28.5 0t-22 5.5l-8.5 3l-41 33q-12 -10 -26 -21.5t-25 -20.5l-10.5 -3t-26.5 -2.5t-33 12.5z" />
    <glyph glyph-name="Otilde" unicode="&#xd5;" horiz-adv-x="734" 
d="M308 -7q-63 0 -115.5 23t-90 64.5t-56.5 98t-15 124.5q3 68 26.5 131t64.5 113t98 79.5t127 29.5q51 0 103 -10.5t99 -34.5t83.5 -64t55.5 -98.5t15 -138.5q-3 -64 -28.5 -114.5t-66 -88.5t-91 -63.5t-104.5 -38t-105 -12.5zM344 176q21 0 42 6t40.5 18.5t35.5 31
t26 43.5t11 56q2 42 -9 71t-30.5 46.5t-44.5 25.5t-51 8q-25 0 -48 -13t-40.5 -35.5t-28 -52.5t-12.5 -63q-2 -44 11 -76t38.5 -49t59.5 -17zM257 672q-16 -7 -32 -3.5t-26 10l-10 6.5q-24 20 -28.5 44t4.5 47t28.5 38.5t43.5 18.5q39 5 65 -0.5t47 -16.5t45 -24
q3 0 4.5 5.5t5.5 10.5l7.5 7.5t24 12.5t41.5 -2q27 -7 39.5 -20t16.5 -25.5t3 -21.5l-1 -9q-1 -16 -19 -41.5t-50 -34.5q-20 -6 -40 -6.5t-39.5 4t-41.5 13.5q-12 4 -24 10.5t-21.5 13t-14.5 9.5l-0.5 -8.5t-6 -19t-21.5 -18.5z" />
    <glyph glyph-name="Odieresis" unicode="&#xd6;" horiz-adv-x="734" 
d="M308 -7q-63 0 -115.5 23t-90 64.5t-56.5 98t-15 124.5q3 68 26.5 131t64.5 113t98 79.5t127 29.5q51 0 103 -10.5t99 -34.5t83.5 -64t55.5 -98.5t15 -138.5q-3 -64 -28.5 -114.5t-66 -88.5t-91 -63.5t-104.5 -38t-105 -12.5zM344 176q21 0 42 6t40.5 18.5t35.5 31
t26 43.5t11 56q2 42 -9 71t-30.5 46.5t-44.5 25.5t-51 8q-25 0 -48 -13t-40.5 -35.5t-28 -52.5t-12.5 -63q-2 -44 11 -76t38.5 -49t59.5 -17zM456 661q-28 0 -51 11.5t-37 31t-14 43.5t14 44t37 31.5t51 11.5t51 -11.5t36.5 -31.5t13.5 -44q0 -48 -29.5 -67t-71.5 -19z
M244 661q-28 0 -51 11.5t-36.5 31t-13.5 43.5t13.5 44t36.5 31.5t51 11.5q29 0 52 -11.5t36.5 -31.5t13.5 -44q0 -32 -13.5 -51t-36.5 -27t-52 -8z" />
    <glyph glyph-name="multiply" unicode="&#xd7;" horiz-adv-x="516" 
d="M450 82q-21 -10 -40 -7t-34.5 12.5t-24 18l-8.5 8.5q-45 48 -83 87.5t-73 79t-71 88.5t-77 116l-4 8.5t-5 21.5t6 26.5t29 23.5q20 9 38.5 5t33 -13.5t23.5 -17.5l9 -8q48 -58 93.5 -112.5t96.5 -113.5t113 -133l5 -9.5t8 -23.5t-4 -29.5t-31 -27.5zM70 82
q-24 14 -30.5 29.5t-4 29t7.5 22.5l5 9q47 56 85.5 102t73.5 89t70.5 88.5t74.5 98.5l9.5 9t28.5 14.5t45 -5.5q26 -10 36.5 -24.5t12 -27.5t-1 -22l-2.5 -9q-41 -67 -77.5 -120.5t-72 -99t-74 -89.5t-83.5 -93l-13 -7.5t-36.5 -9t-53.5 15.5z" />
    <glyph glyph-name="Oslash" unicode="&#xd8;" horiz-adv-x="734" 
d="M308 -7q-63 0 -115.5 23t-90 64.5t-56.5 98t-15 124.5q3 68 26.5 131t64.5 113t98 79.5t127 29.5q51 0 103 -10.5t99 -34.5t83.5 -64t55.5 -98.5t15 -138.5q-3 -64 -28.5 -114.5t-66 -88.5t-91 -63.5t-104.5 -38t-105 -12.5zM344 176q21 0 42 6t40.5 18.5t35.5 31
t26 43.5t11 56q2 42 -9 71t-30.5 46.5t-44.5 25.5t-51 8q-25 0 -48 -13t-40.5 -35.5t-28 -52.5t-12.5 -63q-2 -44 11 -76t38.5 -49t59.5 -17zM203 -37q-28 10 -41 26t-16.5 32t-2 27l1.5 11q22 54 52.5 121.5t67.5 142.5t76.5 153t79.5 154l6 9t18.5 20t32.5 15.5t49 -3.5
q31 -10 45 -25.5t17 -32t1 -27.5l-2 -11q-59 -121 -109.5 -229.5t-91.5 -199.5t-71 -161l-12 -11t-37 -17.5t-64 6.5z" />
    <glyph glyph-name="Ugrave" unicode="&#xd9;" horiz-adv-x="628" 
d="M321 -3q-86 6 -150 43t-100.5 111.5t-40.5 192.5v250l2.5 9t10 20.5t23.5 20.5t44 9q38 0 60.5 -13t33.5 -30t14 -30l3 -13l4 -234q1 -58 14.5 -94.5t33 -54t38.5 -21.5q31 5 50 28.5t28 73.5t9 135l-2 173l0.5 11t6.5 25.5t23.5 25.5t50.5 11q34 0 56 -12t34 -29.5
t17.5 -35.5t7 -30l1.5 -12l5 -178q0 -72 -12.5 -134.5t-43 -110.5t-84.5 -76t-137 -31zM356 674q-10 2 -29 6.5t-41 13t-43.5 20.5t-37.5 28l-5 5.5t-10 15.5t-5 22.5t9 27.5q8 13 21 18.5t26 6.5t21.5 0l8.5 -1q20 -4 47.5 -11t76.5 -29l10 -6.5t21 -19t14.5 -30.5
t-9.5 -41q-7 -13 -19.5 -19t-25 -7.5t-21.5 -0.5z" />
    <glyph glyph-name="Uacute" unicode="&#xda;" horiz-adv-x="628" 
d="M321 -3q-86 6 -150 43t-100.5 111.5t-40.5 192.5v250l2.5 9t10 20.5t23.5 20.5t44 9q38 0 60.5 -13t33.5 -30t14 -30l3 -13l4 -234q1 -58 14.5 -94.5t33 -54t38.5 -21.5q31 5 50 28.5t28 73.5t9 135l-2 173l0.5 11t6.5 25.5t23.5 25.5t50.5 11q34 0 56 -12t34 -29.5
t17.5 -35.5t7 -30l1.5 -12l5 -178q0 -72 -12.5 -134.5t-43 -110.5t-84.5 -76t-137 -31zM270 669l-9 -0.5t-21.5 0.5t-25 7t-19.5 19q-12 23 -8.5 41t14.5 30.5t21 19l10 6.5q49 23 76.5 30t46.5 10l9 1t22 0t26 -6t21 -18q9 -15 8.5 -28t-5.5 -22.5t-10 -15l-5 -5.5
q-16 -16 -37.5 -28t-43.5 -20.5t-40.5 -13.5t-29.5 -7z" />
    <glyph glyph-name="Ucircumflex" unicode="&#xdb;" horiz-adv-x="628" 
d="M321 -3q-86 6 -150 43t-100.5 111.5t-40.5 192.5v250l2.5 9t10 20.5t23.5 20.5t44 9q38 0 60.5 -13t33.5 -30t14 -30l3 -13l4 -234q1 -58 14.5 -94.5t33 -54t38.5 -21.5q31 5 50 28.5t28 73.5t9 135l-2 173l0.5 11t6.5 25.5t23.5 25.5t50.5 11q34 0 56 -12t34 -29.5
t17.5 -35.5t7 -30l1.5 -12l5 -178q0 -72 -12.5 -134.5t-43 -110.5t-84.5 -76t-137 -31zM193 681q-18 13 -24 25.5t-6 23t2.5 17l2.5 6.5q13 18 24 31t25 25t36 28q9 8 27.5 11t39 0t36.5 -16l81 -52l7.5 -8t14 -21t4.5 -29t-21 -33q-13 -12 -28 -14.5t-28.5 0t-22 5.5
l-8.5 3l-41 33q-12 -10 -26 -21.5t-25 -20.5l-10.5 -3t-26.5 -2.5t-33 12.5z" />
    <glyph glyph-name="Udieresis" unicode="&#xdc;" horiz-adv-x="628" 
d="M321 -3q-86 6 -150 43t-100.5 111.5t-40.5 192.5v250l2.5 9t10 20.5t23.5 20.5t44 9q38 0 60.5 -13t33.5 -30t14 -30l3 -13l4 -234q1 -58 14.5 -94.5t33 -54t38.5 -21.5q31 5 50 28.5t28 73.5t9 135l-2 173l0.5 11t6.5 25.5t23.5 25.5t50.5 11q34 0 56 -12t34 -29.5
t17.5 -35.5t7 -30l1.5 -12l5 -178q0 -72 -12.5 -134.5t-43 -110.5t-84.5 -76t-137 -31zM422 661q-28 0 -51 11.5t-37 31t-14 43.5t14 44t37 31.5t51 11.5t51 -11.5t36.5 -31.5t13.5 -44q0 -48 -29.5 -67t-71.5 -19zM210 661q-28 0 -51 11.5t-36.5 31t-13.5 43.5t13.5 44
t36.5 31.5t51 11.5q29 0 52 -11.5t36.5 -31.5t13.5 -44q0 -32 -13.5 -51t-36.5 -27t-52 -8z" />
    <glyph glyph-name="Yacute" unicode="&#xdd;" horiz-adv-x="562" 
d="M277 212q-95 12 -155 62t-81 130.5t1 180.5l4 10t15 23t30 21t49 3q34 -5 52 -19t25.5 -29.5t9 -27l1.5 -11.5q-4 -85 1.5 -129t27.5 -49q11 -1 26.5 12.5t29.5 38t21.5 56t2.5 65.5l-2 11.5t0.5 28t15.5 31.5t44 21q36 7 60.5 -2t39 -24t21 -27.5l6.5 -12.5
q13 -56 7.5 -116t-33.5 -113.5t-82 -89.5t-137 -44zM285 4q-30 0 -49 11t-30 25t-15.5 25l-4.5 11q-11 59 -10 117t7 112l185 -5q-6 -65 -5.5 -125.5t5.5 -107.5l-1.5 -9.5t-9 -22t-24.5 -22t-48 -9.5zM235 669l-9 -0.5t-21.5 0.5t-25 7t-19.5 19q-12 23 -8.5 41t14.5 30.5
t21 19l10 6.5q49 23 76.5 30t46.5 10l9 1t22 0t26 -6t21 -18q9 -15 8.5 -28t-5.5 -22.5t-10 -15l-5 -5.5q-16 -16 -37.5 -28t-43.5 -20.5t-40.5 -13.5t-29.5 -7z" />
    <glyph glyph-name="Thorn" unicode="&#xde;" horiz-adv-x="589" 
d="M299 64q-49 0 -90.5 18.5t-71.5 51.5t-45 76.5t-11 93.5t26 93.5t57.5 77t80 52t93.5 18.5q50 0 91.5 -21.5t71.5 -58t45.5 -82.5t11.5 -96t-26.5 -91t-58 -70.5t-80 -45.5t-94.5 -16zM137 5q-32 0 -51 13t-29 29.5t-13 29l-3 12.5q-4 43 -6.5 91t-3.5 99t0.5 103
t4.5 103t7 99l2 10.5t9.5 23.5t24.5 23t47 10q33 -1 53 -12t30 -27.5t14 -32.5t4 -27v-11q-4 -41 -6 -86t-2.5 -92.5t0 -96.5t2.5 -97.5t4 -94.5l-1.5 -10.5t-9.5 -24.5t-26 -24.5t-51 -9.5zM316 244q13 0 24 8.5t18 23.5t8 32q1 18 -4.5 32.5t-15 23t-22.5 8.5t-24 -8.5
t-18 -23t-8 -32.5q-1 -17 4.5 -32t15.5 -23.5t22 -8.5z" />
    <glyph glyph-name="germandbls" unicode="&#xdf;" horiz-adv-x="583" 
d="M137 6q-29 0 -48 12t-29.5 28.5t-14.5 29l-4 12.5q-5 38 -7.5 85t-3 98.5t1 105t4.5 106t7 100.5l2 9.5t9.5 21.5t22.5 21.5t42 10.5q78 10 151 7t132.5 -23.5t98 -63t48.5 -112.5q0 -37 -13.5 -65.5t-29 -45.5t-23.5 -21q12 -9 28.5 -28t29 -47t12.5 -65
q-2 -55 -30 -91.5t-73 -57t-98 -27.5h-13t-31.5 4.5t-36.5 17t-27 37.5q-10 27 -5.5 44t15.5 26.5t20.5 13.5l9.5 4q19 7 37 15t29 17.5t9 18.5q-4 8 -13 13.5t-21.5 9t-28.5 5.5t-35.5 2t-41.5 -1l5 -157l-2 -10.5t-10 -24.5t-25.5 -24.5t-49.5 -10.5zM222 436
q27 -1 50.5 -0.5t41.5 4t28.5 10.5t10.5 19q-1 12 -11 19t-27.5 10.5t-40.5 4t-49 -1.5z" />
    <glyph glyph-name="agrave" unicode="&#xe0;" horiz-adv-x="638" 
d="M294 -1q-55 -1 -102.5 17.5t-84 52.5t-56.5 78.5t-20 94.5q1 59 21.5 106t56 80.5t83 51.5t102.5 19q86 1 142.5 -25.5t84.5 -82t28 -141.5q0 -50 -13.5 -94.5t-43 -79t-78.5 -55t-120 -22.5zM301 167q17 0 32 7.5t26.5 21t18.5 30.5t7 36q0 32 -10 52t-26.5 30t-38.5 10
q-16 0 -30.5 -9t-25.5 -23.5t-17 -32.5t-6 -37q0 -24 8.5 -43.5t24.5 -30.5t37 -11zM531 0q-29 0 -48 9t-28 18l-9 9q-7 73 -13 141.5t-6 140.5t7 152l9 8.5t28.5 16.5t50.5 5q34 -3 52 -19t24.5 -35.5t7.5 -34l1 -14.5q-4 -51 -6.5 -85.5t-2 -66.5t2.5 -72t5 -102
l-1.5 -10.5t-8 -24.5t-22 -25t-43.5 -11zM362 532q-10 2 -29 6.5t-41 13t-43.5 20.5t-37.5 28l-5 5.5t-10 15.5t-5 22.5t9 27.5q8 13 21 18.5t26 6.5t21.5 0l8.5 -1q20 -4 47.5 -11t76.5 -29l10 -6.5t21 -19t14.5 -30.5t-9.5 -41q-7 -13 -19.5 -19t-25 -7.5t-21.5 -0.5z" />
    <glyph glyph-name="aacute" unicode="&#xe1;" horiz-adv-x="638" 
d="M294 -1q-55 -1 -102.5 17.5t-84 52.5t-56.5 78.5t-20 94.5q1 59 21.5 106t56 80.5t83 51.5t102.5 19q86 1 142.5 -25.5t84.5 -82t28 -141.5q0 -50 -13.5 -94.5t-43 -79t-78.5 -55t-120 -22.5zM301 167q17 0 32 7.5t26.5 21t18.5 30.5t7 36q0 32 -10 52t-26.5 30t-38.5 10
q-16 0 -30.5 -9t-25.5 -23.5t-17 -32.5t-6 -37q0 -24 8.5 -43.5t24.5 -30.5t37 -11zM531 0q-29 0 -48 9t-28 18l-9 9q-7 73 -13 141.5t-6 140.5t7 152l9 8.5t28.5 16.5t50.5 5q34 -3 52 -19t24.5 -35.5t7.5 -34l1 -14.5q-4 -51 -6.5 -85.5t-2 -66.5t2.5 -72t5 -102
l-1.5 -10.5t-8 -24.5t-22 -25t-43.5 -11zM276 527l-9 -0.5t-21.5 0.5t-25 7t-19.5 19q-12 23 -8.5 41t14.5 30.5t21 19l10 6.5q49 23 76.5 30t46.5 10l9 1t22 0t26 -6t21 -18q9 -15 8.5 -28t-5.5 -22.5t-10 -15l-5 -5.5q-16 -16 -37.5 -28t-43.5 -20.5t-40.5 -13.5t-29.5 -7
z" />
    <glyph glyph-name="acircumflex" unicode="&#xe2;" horiz-adv-x="638" 
d="M294 -1q-55 -1 -102.5 17.5t-84 52.5t-56.5 78.5t-20 94.5q1 59 21.5 106t56 80.5t83 51.5t102.5 19q86 1 142.5 -25.5t84.5 -82t28 -141.5q0 -50 -13.5 -94.5t-43 -79t-78.5 -55t-120 -22.5zM301 167q17 0 32 7.5t26.5 21t18.5 30.5t7 36q0 32 -10 52t-26.5 30t-38.5 10
q-16 0 -30.5 -9t-25.5 -23.5t-17 -32.5t-6 -37q0 -24 8.5 -43.5t24.5 -30.5t37 -11zM531 0q-29 0 -48 9t-28 18l-9 9q-7 73 -13 141.5t-6 140.5t7 152l9 8.5t28.5 16.5t50.5 5q34 -3 52 -19t24.5 -35.5t7.5 -34l1 -14.5q-4 -51 -6.5 -85.5t-2 -66.5t2.5 -72t5 -102
l-1.5 -10.5t-8 -24.5t-22 -25t-43.5 -11zM199 539q-18 13 -24 25.5t-6 23t2.5 17l2.5 6.5q13 18 24 31t25 25t36 28q9 8 27.5 11t39 0t36.5 -16l81 -52l7.5 -8t14 -21t4.5 -29t-21 -33q-13 -12 -28 -14.5t-28.5 0t-22 5.5l-8.5 3l-41 33q-12 -10 -26 -21.5t-25 -20.5
l-10.5 -3t-26.5 -2.5t-33 12.5z" />
    <glyph glyph-name="atilde" unicode="&#xe3;" horiz-adv-x="638" 
d="M294 -1q-55 -1 -102.5 17.5t-84 52.5t-56.5 78.5t-20 94.5q1 59 21.5 106t56 80.5t83 51.5t102.5 19q86 1 142.5 -25.5t84.5 -82t28 -141.5q0 -50 -13.5 -94.5t-43 -79t-78.5 -55t-120 -22.5zM301 167q17 0 32 7.5t26.5 21t18.5 30.5t7 36q0 32 -10 52t-26.5 30t-38.5 10
q-16 0 -30.5 -9t-25.5 -23.5t-17 -32.5t-6 -37q0 -24 8.5 -43.5t24.5 -30.5t37 -11zM531 0q-29 0 -48 9t-28 18l-9 9q-7 73 -13 141.5t-6 140.5t7 152l9 8.5t28.5 16.5t50.5 5q34 -3 52 -19t24.5 -35.5t7.5 -34l1 -14.5q-4 -51 -6.5 -85.5t-2 -66.5t2.5 -72t5 -102
l-1.5 -10.5t-8 -24.5t-22 -25t-43.5 -11zM229 530q-16 -7 -32 -3.5t-26 10l-10 6.5q-24 20 -28.5 44t4.5 47t28.5 38.5t43.5 18.5q39 5 65 -0.5t47 -16.5t45 -24q3 0 4.5 5.5t5.5 10.5l7.5 7.5t24 12.5t41.5 -2q27 -7 39.5 -20t16.5 -25.5t3 -21.5l-1 -9q-1 -16 -19 -41.5
t-50 -34.5q-20 -6 -40 -6.5t-39.5 4t-41.5 13.5q-12 4 -24 10.5t-21.5 13t-14.5 9.5l-0.5 -8.5t-6 -19t-21.5 -18.5z" />
    <glyph glyph-name="adieresis" unicode="&#xe4;" horiz-adv-x="638" 
d="M294 -1q-55 -1 -102.5 17.5t-84 52.5t-56.5 78.5t-20 94.5q1 59 21.5 106t56 80.5t83 51.5t102.5 19q86 1 142.5 -25.5t84.5 -82t28 -141.5q0 -50 -13.5 -94.5t-43 -79t-78.5 -55t-120 -22.5zM301 167q17 0 32 7.5t26.5 21t18.5 30.5t7 36q0 32 -10 52t-26.5 30t-38.5 10
q-16 0 -30.5 -9t-25.5 -23.5t-17 -32.5t-6 -37q0 -24 8.5 -43.5t24.5 -30.5t37 -11zM531 0q-29 0 -48 9t-28 18l-9 9q-7 73 -13 141.5t-6 140.5t7 152l9 8.5t28.5 16.5t50.5 5q34 -3 52 -19t24.5 -35.5t7.5 -34l1 -14.5q-4 -51 -6.5 -85.5t-2 -66.5t2.5 -72t5 -102
l-1.5 -10.5t-8 -24.5t-22 -25t-43.5 -11zM428 519q-28 0 -51 11.5t-37 31t-14 43.5t14 44t37 31.5t51 11.5t51 -11.5t36.5 -31.5t13.5 -44q0 -48 -29.5 -67t-71.5 -19zM216 519q-28 0 -51 11.5t-36.5 31t-13.5 43.5t13.5 44t36.5 31.5t51 11.5q29 0 52 -11.5t36.5 -31.5
t13.5 -44q0 -32 -13.5 -51t-36.5 -27t-52 -8z" />
    <glyph glyph-name="aring" unicode="&#xe5;" horiz-adv-x="638" 
d="M294 -1q-55 -1 -102.5 17.5t-84 52.5t-56.5 78.5t-20 94.5q1 59 21.5 106t56 80.5t83 51.5t102.5 19q86 1 142.5 -25.5t84.5 -82t28 -141.5q0 -50 -13.5 -94.5t-43 -79t-78.5 -55t-120 -22.5zM301 167q17 0 32 7.5t26.5 21t18.5 30.5t7 36q0 32 -10 52t-26.5 30t-38.5 10
q-16 0 -30.5 -9t-25.5 -23.5t-17 -32.5t-6 -37q0 -24 8.5 -43.5t24.5 -30.5t37 -11zM531 0q-29 0 -48 9t-28 18l-9 9q-7 73 -13 141.5t-6 140.5t7 152l9 8.5t28.5 16.5t50.5 5q34 -3 52 -19t24.5 -35.5t7.5 -34l1 -14.5q-4 -51 -6.5 -85.5t-2 -66.5t2.5 -72t5 -102
l-1.5 -10.5t-8 -24.5t-22 -25t-43.5 -11zM312 515q-36 0 -63.5 17t-42.5 44.5t-15 57.5q0 31 17 55.5t44.5 39t59.5 14.5t61 -12.5t47.5 -36t18.5 -56.5q0 -30 -15 -58.5t-43.5 -46.5t-68.5 -18zM314 609q11 0 17 7t6 15t-7 13t-16 5q-8 0 -14.5 -5.5t-6.5 -13.5t6 -14.5
t15 -6.5z" />
    <glyph glyph-name="ae" unicode="&#xe6;" horiz-adv-x="1021" 
d="M731 -11q-66 13 -107.5 39.5t-64 62t-31 75.5t-9.5 80q-1 53 17.5 100.5t53.5 83.5t83.5 55.5t106.5 15.5q59 -4 99 -23t64 -47t35 -60t12 -62q1 -47 -24.5 -88t-88.5 -57q-16 -4 -36 -5t-41 -1t-41 1.5t-35.5 3t-25 2.5l-9.5 1q4 -5 12 -15.5t25 -18.5t47 -7q39 2 63 4
t37 3.5t17.5 2.5l4.5 1h8.5t22 -2t27.5 -9.5t24 -22.5q12 -17 11 -30.5t-7 -23.5t-12.5 -15l-6.5 -5l-20.5 -9t-54 -19t-74.5 -14.5t-82 3.5zM294 -1q-55 -1 -102.5 17.5t-84 52.5t-56.5 78.5t-20 94.5q1 59 21.5 106t56 80.5t83 51.5t102.5 19q86 1 142.5 -25.5t84.5 -82
t28 -141.5q0 -50 -13.5 -94.5t-43 -79t-78.5 -55t-120 -22.5zM301 167q17 0 32 7.5t26.5 21t18.5 30.5t7 36q0 32 -10 52t-26.5 30t-38.5 10q-16 0 -30.5 -9t-25.5 -23.5t-17 -32.5t-6 -37q0 -24 8.5 -43.5t24.5 -30.5t37 -11zM531 0q-29 0 -48 9t-28 18l-9 9
q-7 73 -13 141.5t-6 140.5t7 152l9 8.5t28.5 16.5t50.5 5q34 -3 52 -19t24.5 -35.5t7.5 -34l1 -14.5q-4 -51 -6.5 -85.5t-2 -66.5t2.5 -72t5 -102l-1.5 -10.5t-8 -24.5t-22 -25t-43.5 -11zM695 282l103 1l3.5 0.5t9.5 2t11.5 5t9 10t3.5 16.5q0 16 -6.5 27t-21 16t-40.5 3
q-15 -1 -28.5 -10t-24 -22t-16 -26.5t-3.5 -22.5z" />
    <glyph glyph-name="ccedilla" unicode="&#xe7;" horiz-adv-x="532" 
d="M297 -245q-34 2 -59.5 16t-46.5 33l-5 6t-9.5 15.5t-3.5 21t13 22.5t25 12.5t22.5 -1l9.5 -2.5q16 -6 23 -13t14 -12q8 -2 13 -1t7.5 3.5t2.5 3.5q-4 7 -9 13l-10 12q-3 2 -12 7t-18 11t-13 9q-8 20 -7 45t5 38l3 8.5t13 17.5t31 8q20 -1 30.5 -14.5l10.5 -13.5l7 -17.5
t6 -27.5q5 -3 15.5 -11.5t23 -22t21.5 -29t11 -32.5q5 -39 -9.5 -63t-42 -34t-62.5 -8zM266 -9q-82 4 -132 34.5t-74 82t-29 116.5q-4 52 11.5 101t48 87.5t79.5 61t107 21.5q54 -1 91 -14.5t61 -33t36.5 -39t17.5 -32.5l5 -13l-1 -11t-8 -27t-26 -30q-14 -10 -35.5 -15.5
t-42.5 -2.5t-32 16q-2 0 -6.5 4.5t-11 9.5t-16 8.5t-21.5 1.5q-20 -3 -31.5 -11t-17.5 -19.5t-8 -23t-3 -20.5q-2 -21 5 -37t19 -25t24 -10q11 0 22.5 2.5t23 7t20.5 8t14 4.5q34 11 59 5.5t42.5 -18.5t26.5 -27q17 -23 17.5 -41.5t-4 -29.5l-4.5 -11l-12.5 -13t-39.5 -30
t-70 -28.5t-105 -8.5z" />
    <glyph glyph-name="egrave" unicode="&#xe8;" horiz-adv-x="533" 
d="M243 -11q-66 13 -107.5 39.5t-64 62t-31 75.5t-9.5 80q-1 53 17.5 100.5t53.5 83.5t83.5 55.5t106.5 15.5q59 -4 99 -23t64 -47t35 -60t12 -62q1 -47 -24.5 -88t-88.5 -57q-16 -4 -36 -5t-41 -1t-41 1.5t-35.5 3t-25 2.5l-9.5 1q4 -5 12 -15.5t25 -18.5t47 -7q39 2 63 4
t37 3.5t17.5 2.5l4.5 1h8.5t22 -2t27.5 -9.5t24 -22.5q12 -17 11 -30.5t-7 -23.5t-12.5 -15l-6.5 -5l-20.5 -9t-54 -19t-74.5 -14.5t-82 3.5zM207 282l103 1l3.5 0.5t9.5 2t11.5 5t9 10t3.5 16.5q0 16 -6.5 27t-21 16t-40.5 3q-15 -1 -28.5 -10t-24 -22t-16 -26.5
t-3.5 -22.5zM321 532q-10 2 -29 6.5t-41 13t-43.5 20.5t-37.5 28l-5 5.5t-10 15.5t-5 22.5t9 27.5q8 13 21 18.5t26 6.5t21.5 0l8.5 -1q20 -4 47.5 -11t76.5 -29l10 -6.5t21 -19t14.5 -30.5t-9.5 -41q-7 -13 -19.5 -19t-25 -7.5t-21.5 -0.5z" />
    <glyph glyph-name="eacute" unicode="&#xe9;" horiz-adv-x="533" 
d="M243 -11q-66 13 -107.5 39.5t-64 62t-31 75.5t-9.5 80q-1 53 17.5 100.5t53.5 83.5t83.5 55.5t106.5 15.5q59 -4 99 -23t64 -47t35 -60t12 -62q1 -47 -24.5 -88t-88.5 -57q-16 -4 -36 -5t-41 -1t-41 1.5t-35.5 3t-25 2.5l-9.5 1q4 -5 12 -15.5t25 -18.5t47 -7q39 2 63 4
t37 3.5t17.5 2.5l4.5 1h8.5t22 -2t27.5 -9.5t24 -22.5q12 -17 11 -30.5t-7 -23.5t-12.5 -15l-6.5 -5l-20.5 -9t-54 -19t-74.5 -14.5t-82 3.5zM207 282l103 1l3.5 0.5t9.5 2t11.5 5t9 10t3.5 16.5q0 16 -6.5 27t-21 16t-40.5 3q-15 -1 -28.5 -10t-24 -22t-16 -26.5
t-3.5 -22.5zM235 527l-9 -0.5t-21.5 0.5t-25 7t-19.5 19q-12 23 -8.5 41t14.5 30.5t21 19l10 6.5q49 23 76.5 30t46.5 10l9 1t22 0t26 -6t21 -18q9 -15 8.5 -28t-5.5 -22.5t-10 -15l-5 -5.5q-16 -16 -37.5 -28t-43.5 -20.5t-40.5 -13.5t-29.5 -7z" />
    <glyph glyph-name="ecircumflex" unicode="&#xea;" horiz-adv-x="533" 
d="M243 -11q-66 13 -107.5 39.5t-64 62t-31 75.5t-9.5 80q-1 53 17.5 100.5t53.5 83.5t83.5 55.5t106.5 15.5q59 -4 99 -23t64 -47t35 -60t12 -62q1 -47 -24.5 -88t-88.5 -57q-16 -4 -36 -5t-41 -1t-41 1.5t-35.5 3t-25 2.5l-9.5 1q4 -5 12 -15.5t25 -18.5t47 -7q39 2 63 4
t37 3.5t17.5 2.5l4.5 1h8.5t22 -2t27.5 -9.5t24 -22.5q12 -17 11 -30.5t-7 -23.5t-12.5 -15l-6.5 -5l-20.5 -9t-54 -19t-74.5 -14.5t-82 3.5zM207 282l103 1l3.5 0.5t9.5 2t11.5 5t9 10t3.5 16.5q0 16 -6.5 27t-21 16t-40.5 3q-15 -1 -28.5 -10t-24 -22t-16 -26.5
t-3.5 -22.5zM158 539q-18 13 -24 25.5t-6 23t2.5 17l2.5 6.5q13 18 24 31t25 25t36 28q9 8 27.5 11t39 0t36.5 -16l81 -52l7.5 -8t14 -21t4.5 -29t-21 -33q-13 -12 -28 -14.5t-28.5 0t-22 5.5l-8.5 3l-41 33q-12 -10 -26 -21.5t-25 -20.5l-10.5 -3t-26.5 -2.5t-33 12.5z" />
    <glyph glyph-name="edieresis" unicode="&#xeb;" horiz-adv-x="533" 
d="M243 -11q-66 13 -107.5 39.5t-64 62t-31 75.5t-9.5 80q-1 53 17.5 100.5t53.5 83.5t83.5 55.5t106.5 15.5q59 -4 99 -23t64 -47t35 -60t12 -62q1 -47 -24.5 -88t-88.5 -57q-16 -4 -36 -5t-41 -1t-41 1.5t-35.5 3t-25 2.5l-9.5 1q4 -5 12 -15.5t25 -18.5t47 -7q39 2 63 4
t37 3.5t17.5 2.5l4.5 1h8.5t22 -2t27.5 -9.5t24 -22.5q12 -17 11 -30.5t-7 -23.5t-12.5 -15l-6.5 -5l-20.5 -9t-54 -19t-74.5 -14.5t-82 3.5zM207 282l103 1l3.5 0.5t9.5 2t11.5 5t9 10t3.5 16.5q0 16 -6.5 27t-21 16t-40.5 3q-15 -1 -28.5 -10t-24 -22t-16 -26.5
t-3.5 -22.5zM387 519q-28 0 -51 11.5t-37 31t-14 43.5t14 44t37 31.5t51 11.5t51 -11.5t36.5 -31.5t13.5 -44q0 -48 -29.5 -67t-71.5 -19zM175 519q-28 0 -51 11.5t-36.5 31t-13.5 43.5t13.5 44t36.5 31.5t51 11.5q29 0 52 -11.5t36.5 -31.5t13.5 -44q0 -32 -13.5 -51
t-36.5 -27t-52 -8z" />
    <glyph glyph-name="igrave" unicode="&#xec;" horiz-adv-x="254" 
d="M136 1q-27 2 -45 12.5t-29 24.5t-15.5 24l-4.5 10q-6 54 -8.5 96t-2.5 80.5t2.5 83.5t7.5 105l2.5 10t10.5 22.5t26 22t48 8.5q33 -1 52 -14t28.5 -29.5t12.5 -29l3 -12.5q-3 -48 -4.5 -87t-1.5 -77t1 -81.5t4 -99.5l-2 -11t-10 -25.5t-25.5 -24.5t-49.5 -8zM177 532
q-10 2 -29 6.5t-41 13t-43.5 20.5t-37.5 28l-5 5.5t-10 15.5t-5 22.5t9 27.5q8 13 21 18.5t26 6.5t21.5 0l8.5 -1q20 -4 47.5 -11t76.5 -29l10 -6.5t21 -19t14.5 -30.5t-9.5 -41q-7 -13 -19.5 -19t-25 -7.5t-21.5 -0.5z" />
    <glyph glyph-name="iacute" unicode="&#xed;" horiz-adv-x="254" 
d="M136 1q-27 2 -45 12.5t-29 24.5t-15.5 24l-4.5 10q-6 54 -8.5 96t-2.5 80.5t2.5 83.5t7.5 105l2.5 10t10.5 22.5t26 22t48 8.5q33 -1 52 -14t28.5 -29.5t12.5 -29l3 -12.5q-3 -48 -4.5 -87t-1.5 -77t1 -81.5t4 -99.5l-2 -11t-10 -25.5t-25.5 -24.5t-49.5 -8zM91 527
l-9 -0.5t-21.5 0.5t-25 7t-19.5 19q-12 23 -8.5 41t14.5 30.5t21 19l10 6.5q49 23 76.5 30t46.5 10l9 1t22 0t26 -6t21 -18q9 -15 8.5 -28t-5.5 -22.5t-10 -15l-5 -5.5q-16 -16 -37.5 -28t-43.5 -20.5t-40.5 -13.5t-29.5 -7z" />
    <glyph glyph-name="icircumflex" unicode="&#xee;" horiz-adv-x="254" 
d="M136 1q-27 2 -45 12.5t-29 24.5t-15.5 24l-4.5 10q-6 54 -8.5 96t-2.5 80.5t2.5 83.5t7.5 105l2.5 10t10.5 22.5t26 22t48 8.5q33 -1 52 -14t28.5 -29.5t12.5 -29l3 -12.5q-3 -48 -4.5 -87t-1.5 -77t1 -81.5t4 -99.5l-2 -11t-10 -25.5t-25.5 -24.5t-49.5 -8zM14 539
q-18 13 -24 25.5t-6 23t2.5 17l2.5 6.5q13 18 24 31t25 25t36 28q9 8 27.5 11t39 0t36.5 -16l81 -52l7.5 -8t14 -21t4.5 -29t-21 -33q-13 -12 -28 -14.5t-28.5 0t-22 5.5l-8.5 3l-41 33q-12 -10 -26 -21.5t-25 -20.5l-10.5 -3t-26.5 -2.5t-33 12.5z" />
    <glyph glyph-name="idieresis" unicode="&#xef;" horiz-adv-x="254" 
d="M136 1q-27 2 -45 12.5t-29 24.5t-15.5 24l-4.5 10q-6 54 -8.5 96t-2.5 80.5t2.5 83.5t7.5 105l2.5 10t10.5 22.5t26 22t48 8.5q33 -1 52 -14t28.5 -29.5t12.5 -29l3 -12.5q-3 -48 -4.5 -87t-1.5 -77t1 -81.5t4 -99.5l-2 -11t-10 -25.5t-25.5 -24.5t-49.5 -8zM243 519
q-28 0 -51 11.5t-37 31t-14 43.5t14 44t37 31.5t51 11.5t51 -11.5t36.5 -31.5t13.5 -44q0 -48 -29.5 -67t-71.5 -19zM31 519q-28 0 -51 11.5t-36.5 31t-13.5 43.5t13.5 44t36.5 31.5t51 11.5q29 0 52 -11.5t36.5 -31.5t13.5 -44q0 -32 -13.5 -51t-36.5 -27t-52 -8z" />
    <glyph glyph-name="eth" unicode="&#xf0;" horiz-adv-x="603" 
d="M308 7q-55 -4 -107 5.5t-92 36t-60 71.5q-24 45 -17 94.5t42 91t95 60.5q48 15 89.5 21t87.5 4q-1 13 -6.5 25.5t-11 21.5t-7.5 11q-10 14 -22.5 24.5t-23.5 16.5q-37 7 -68.5 0.5t-62.5 -10.5l-8.5 -2t-21.5 -2.5t-26 4t-23 17.5q-14 18 -13 36t8.5 32.5t15 23l7.5 8.5
q60 39 128 51.5t138 -4.5q36 -9 73.5 -37.5t68 -74t49 -108t16.5 -140.5q-8 -105 -73 -177t-175 -100zM286 165q15 1 27.5 7.5t21 18.5t10.5 27q-21 8 -40.5 11t-36.5 -1q-37 -10 -28 -38q6 -11 17 -18t29 -7zM309 412l-8 -1.5t-19.5 -0.5t-23.5 7.5t-20 21.5
q-9 17 -8.5 28.5t5.5 19.5t10 11.5l5 3.5q16 7 37.5 15t46.5 15.5t53 14t57.5 10.5t59.5 5l9 -2t21.5 -7t23 -14.5t13.5 -24.5q4 -20 -2 -33t-15.5 -20t-17.5 -10l-8 -3q-31 -4 -54.5 -6.5t-43.5 -5.5t-38 -6t-38 -7.5t-45 -10.5z" />
    <glyph glyph-name="ntilde" unicode="&#xf1;" horiz-adv-x="619" 
d="M464 7q-33 9 -49 27.5t-21 38.5t-4.5 34.5l0.5 14.5q8 50 6 100.5t-19 80.5q-13 21 -36.5 26t-49.5 -4t-47 -31q-20 -21 -26.5 -48.5t-6.5 -53.5t-2 -42q-1 -21 -1.5 -31t0 -16t-1.5 -17l-0.5 -8.5t-5.5 -20t-19 -20.5t-42 -11q-22 -1 -39.5 11.5t-27.5 25l-10 12.5
q-9 12 -11 24.5t-1.5 32t-1.5 51.5q-6 40 -7 65t2.5 43t12.5 35.5t25 41.5q23 28 57.5 54t75.5 44.5t84 24.5t82 -5q22 -6 50 -18.5t56.5 -36t52.5 -61.5t39 -94q11 -47 11 -91t-10 -109l-3 -14t-14 -30.5t-34 -25.5t-64 1zM136 1q-27 2 -45 12.5t-29 24.5t-15.5 24l-4.5 10
q-6 54 -8.5 96t-2.5 80.5t2.5 83.5t7.5 105l2.5 10t10.5 22.5t26 22t48 8.5q33 -1 52 -14t28.5 -29.5t12.5 -29l3 -12.5q-3 -48 -4.5 -87t-1.5 -77t1 -81.5t4 -99.5l-2 -11t-10 -25.5t-25.5 -24.5t-49.5 -8zM208 530q-16 -7 -32 -3.5t-26 10l-10 6.5q-24 20 -28.5 44t4.5 47
t28.5 38.5t43.5 18.5q39 5 65 -0.5t47 -16.5t45 -24q3 0 4.5 5.5t5.5 10.5l7.5 7.5t24 12.5t41.5 -2q27 -7 39.5 -20t16.5 -25.5t3 -21.5l-1 -9q-1 -16 -19 -41.5t-50 -34.5q-20 -6 -40 -6.5t-39.5 4t-41.5 13.5q-12 4 -24 10.5t-21.5 13t-14.5 9.5l-0.5 -8.5t-6 -19
t-21.5 -18.5z" />
    <glyph glyph-name="ograve" unicode="&#xf2;" horiz-adv-x="607" 
d="M301 -1q-58 0 -107.5 19t-86 52.5t-57 77.5t-20.5 94t19.5 96.5t55 83t84 57.5t106.5 21t109 -15t90 -46t61 -78t22 -111q0 -50 -21 -95.5t-59 -80.5t-88 -55t-108 -20zM297 165q17 0 32.5 7t27.5 20t19 29t7 34q0 31 -10 50.5t-27.5 29t-40.5 9.5q-17 0 -31.5 -8.5
t-25.5 -22.5t-17.5 -31t-6.5 -35q0 -24 9 -42.5t25.5 -29t38.5 -10.5zM338 532q-10 2 -29 6.5t-41 13t-43.5 20.5t-37.5 28l-5 5.5t-10 15.5t-5 22.5t9 27.5q8 13 21 18.5t26 6.5t21.5 0l8.5 -1q20 -4 47.5 -11t76.5 -29l10 -6.5t21 -19t14.5 -30.5t-9.5 -41
q-7 -13 -19.5 -19t-25 -7.5t-21.5 -0.5z" />
    <glyph glyph-name="oacute" unicode="&#xf3;" horiz-adv-x="607" 
d="M301 -1q-58 0 -107.5 19t-86 52.5t-57 77.5t-20.5 94t19.5 96.5t55 83t84 57.5t106.5 21t109 -15t90 -46t61 -78t22 -111q0 -50 -21 -95.5t-59 -80.5t-88 -55t-108 -20zM297 165q17 0 32.5 7t27.5 20t19 29t7 34q0 31 -10 50.5t-27.5 29t-40.5 9.5q-17 0 -31.5 -8.5
t-25.5 -22.5t-17.5 -31t-6.5 -35q0 -24 9 -42.5t25.5 -29t38.5 -10.5zM252 527l-9 -0.5t-21.5 0.5t-25 7t-19.5 19q-12 23 -8.5 41t14.5 30.5t21 19l10 6.5q49 23 76.5 30t46.5 10l9 1t22 0t26 -6t21 -18q9 -15 8.5 -28t-5.5 -22.5t-10 -15l-5 -5.5q-16 -16 -37.5 -28
t-43.5 -20.5t-40.5 -13.5t-29.5 -7z" />
    <glyph glyph-name="ocircumflex" unicode="&#xf4;" horiz-adv-x="607" 
d="M301 -1q-58 0 -107.5 19t-86 52.5t-57 77.5t-20.5 94t19.5 96.5t55 83t84 57.5t106.5 21t109 -15t90 -46t61 -78t22 -111q0 -50 -21 -95.5t-59 -80.5t-88 -55t-108 -20zM297 165q17 0 32.5 7t27.5 20t19 29t7 34q0 31 -10 50.5t-27.5 29t-40.5 9.5q-17 0 -31.5 -8.5
t-25.5 -22.5t-17.5 -31t-6.5 -35q0 -24 9 -42.5t25.5 -29t38.5 -10.5zM175 539q-18 13 -24 25.5t-6 23t2.5 17l2.5 6.5q13 18 24 31t25 25t36 28q9 8 27.5 11t39 0t36.5 -16l81 -52l7.5 -8t14 -21t4.5 -29t-21 -33q-13 -12 -28 -14.5t-28.5 0t-22 5.5l-8.5 3l-41 33
q-12 -10 -26 -21.5t-25 -20.5l-10.5 -3t-26.5 -2.5t-33 12.5z" />
    <glyph glyph-name="otilde" unicode="&#xf5;" horiz-adv-x="607" 
d="M301 -1q-58 0 -107.5 19t-86 52.5t-57 77.5t-20.5 94t19.5 96.5t55 83t84 57.5t106.5 21t109 -15t90 -46t61 -78t22 -111q0 -50 -21 -95.5t-59 -80.5t-88 -55t-108 -20zM297 165q17 0 32.5 7t27.5 20t19 29t7 34q0 31 -10 50.5t-27.5 29t-40.5 9.5q-17 0 -31.5 -8.5
t-25.5 -22.5t-17.5 -31t-6.5 -35q0 -24 9 -42.5t25.5 -29t38.5 -10.5zM205 530q-16 -7 -32 -3.5t-26 10l-10 6.5q-24 20 -28.5 44t4.5 47t28.5 38.5t43.5 18.5q39 5 65 -0.5t47 -16.5t45 -24q3 0 4.5 5.5t5.5 10.5l7.5 7.5t24 12.5t41.5 -2q27 -7 39.5 -20t16.5 -25.5
t3 -21.5l-1 -9q-1 -16 -19 -41.5t-50 -34.5q-20 -6 -40 -6.5t-39.5 4t-41.5 13.5q-12 4 -24 10.5t-21.5 13t-14.5 9.5l-0.5 -8.5t-6 -19t-21.5 -18.5z" />
    <glyph glyph-name="odieresis" unicode="&#xf6;" horiz-adv-x="607" 
d="M301 -1q-58 0 -107.5 19t-86 52.5t-57 77.5t-20.5 94t19.5 96.5t55 83t84 57.5t106.5 21t109 -15t90 -46t61 -78t22 -111q0 -50 -21 -95.5t-59 -80.5t-88 -55t-108 -20zM297 165q17 0 32.5 7t27.5 20t19 29t7 34q0 31 -10 50.5t-27.5 29t-40.5 9.5q-17 0 -31.5 -8.5
t-25.5 -22.5t-17.5 -31t-6.5 -35q0 -24 9 -42.5t25.5 -29t38.5 -10.5zM404 519q-28 0 -51 11.5t-37 31t-14 43.5t14 44t37 31.5t51 11.5t51 -11.5t36.5 -31.5t13.5 -44q0 -48 -29.5 -67t-71.5 -19zM192 519q-28 0 -51 11.5t-36.5 31t-13.5 43.5t13.5 44t36.5 31.5t51 11.5
q29 0 52 -11.5t36.5 -31.5t13.5 -44q0 -32 -13.5 -51t-36.5 -27t-52 -8z" />
    <glyph glyph-name="divide" unicode="&#xf7;" horiz-adv-x="566" 
d="M142 241h-13t-25.5 4.5t-28 16t-20.5 33.5q-8 24 -4.5 39.5t12 24.5t16 12.5l7.5 3.5q23 5 53.5 10.5t66 10t74 6t79 0t80.5 -8.5l11.5 -5t27 -15t27 -25t11.5 -36q0 -27 -11 -42.5t-25.5 -23t-25.5 -9.5l-11 -2q-42 3 -74.5 5t-59 3.5t-52 1.5t-53 -1t-62.5 -3zM283 57
q-28 0 -51 12t-36.5 31.5t-13.5 43.5t13.5 43.5t36.5 31t51 11.5q29 0 52 -11.5t36.5 -31t13.5 -43.5q0 -32 -13.5 -51.5t-36.5 -27.5t-52 -8zM283 412q-28 0 -51 11.5t-36.5 31.5t-13.5 44t13.5 44t36.5 31.5t51 11.5q29 0 52 -11.5t36.5 -31.5t13.5 -44q0 -32 -13.5 -51.5
t-36.5 -27.5t-52 -8z" />
    <glyph glyph-name="oslash" unicode="&#xf8;" horiz-adv-x="607" 
d="M301 -1q-58 0 -107.5 19t-86 52.5t-57 77.5t-20.5 94t19.5 96.5t55 83t84 57.5t106.5 21t109 -15t90 -46t61 -78t22 -111q0 -50 -21 -95.5t-59 -80.5t-88 -55t-108 -20zM200 -35q-18 8 -26.5 21t-11 25.5t-1.5 21l1 8.5q19 58 47 133t62 158t67 164l4 7.5t12 16t21 12.5
t31 -3q20 -8 29 -20.5t11 -25.5t0.5 -22l-1.5 -9q-38 -96 -70 -182.5t-58 -159t-46 -128.5l-7.5 -8.5t-23 -13.5t-40.5 5zM297 165q17 0 32.5 7t27.5 20t19 29t7 34q0 31 -10 50.5t-27.5 29t-40.5 9.5q-17 0 -31.5 -8.5t-25.5 -22.5t-17.5 -31t-6.5 -35q0 -24 9 -42.5
t25.5 -29t38.5 -10.5z" />
    <glyph glyph-name="ugrave" unicode="&#xf9;" horiz-adv-x="618" 
d="M239 7q-22 5 -50 18t-56.5 37t-52.5 62t-39 95q-10 48 -10.5 93t9.5 110l3 14.5t14 31t34 26t63 -1.5q34 -9 50 -28t21 -39t4.5 -34.5l-0.5 -14.5q-9 -50 -6.5 -101.5t19.5 -83.5q10 -15 25.5 -21.5t33.5 -5.5t33 7t23 15q6 9 8 37.5t0 60.5t-9 52q-6 22 -10 37
t-5.5 27.5t-2.5 25.5l1 10t8 23.5t24 24.5t48 13q30 3 53.5 -10t37.5 -26.5l14 -13.5q14 -18 32 -54.5t26 -81.5q8 -54 5 -92.5t-15.5 -69.5t-34.5 -64q-23 -28 -57.5 -48t-75.5 -30.5t-83.5 -11t-81.5 11.5zM325 532q-10 2 -29 6.5t-41 13t-43.5 20.5t-37.5 28l-5 5.5
t-10 15.5t-5 22.5t9 27.5q8 13 21 18.5t26 6.5t21.5 0l8.5 -1q20 -4 47.5 -11t76.5 -29l10 -6.5t21 -19t14.5 -30.5t-9.5 -41q-7 -13 -19.5 -19t-25 -7.5t-21.5 -0.5z" />
    <glyph glyph-name="uacute" unicode="&#xfa;" horiz-adv-x="618" 
d="M239 7q-22 5 -50 18t-56.5 37t-52.5 62t-39 95q-10 48 -10.5 93t9.5 110l3 14.5t14 31t34 26t63 -1.5q34 -9 50 -28t21 -39t4.5 -34.5l-0.5 -14.5q-9 -50 -6.5 -101.5t19.5 -83.5q10 -15 25.5 -21.5t33.5 -5.5t33 7t23 15q6 9 8 37.5t0 60.5t-9 52q-6 22 -10 37
t-5.5 27.5t-2.5 25.5l1 10t8 23.5t24 24.5t48 13q30 3 53.5 -10t37.5 -26.5l14 -13.5q14 -18 32 -54.5t26 -81.5q8 -54 5 -92.5t-15.5 -69.5t-34.5 -64q-23 -28 -57.5 -48t-75.5 -30.5t-83.5 -11t-81.5 11.5zM239 527l-9 -0.5t-21.5 0.5t-25 7t-19.5 19q-12 23 -8.5 41
t14.5 30.5t21 19l10 6.5q49 23 76.5 30t46.5 10l9 1t22 0t26 -6t21 -18q9 -15 8.5 -28t-5.5 -22.5t-10 -15l-5 -5.5q-16 -16 -37.5 -28t-43.5 -20.5t-40.5 -13.5t-29.5 -7z" />
    <glyph glyph-name="ucircumflex" unicode="&#xfb;" horiz-adv-x="618" 
d="M239 7q-22 5 -50 18t-56.5 37t-52.5 62t-39 95q-10 48 -10.5 93t9.5 110l3 14.5t14 31t34 26t63 -1.5q34 -9 50 -28t21 -39t4.5 -34.5l-0.5 -14.5q-9 -50 -6.5 -101.5t19.5 -83.5q10 -15 25.5 -21.5t33.5 -5.5t33 7t23 15q6 9 8 37.5t0 60.5t-9 52q-6 22 -10 37
t-5.5 27.5t-2.5 25.5l1 10t8 23.5t24 24.5t48 13q30 3 53.5 -10t37.5 -26.5l14 -13.5q14 -18 32 -54.5t26 -81.5q8 -54 5 -92.5t-15.5 -69.5t-34.5 -64q-23 -28 -57.5 -48t-75.5 -30.5t-83.5 -11t-81.5 11.5zM162 539q-18 13 -24 25.5t-6 23t2.5 17l2.5 6.5q13 18 24 31
t25 25t36 28q9 8 27.5 11t39 0t36.5 -16l81 -52l7.5 -8t14 -21t4.5 -29t-21 -33q-13 -12 -28 -14.5t-28.5 0t-22 5.5l-8.5 3l-41 33q-12 -10 -26 -21.5t-25 -20.5l-10.5 -3t-26.5 -2.5t-33 12.5z" />
    <glyph glyph-name="udieresis" unicode="&#xfc;" horiz-adv-x="618" 
d="M239 7q-22 5 -50 18t-56.5 37t-52.5 62t-39 95q-10 48 -10.5 93t9.5 110l3 14.5t14 31t34 26t63 -1.5q34 -9 50 -28t21 -39t4.5 -34.5l-0.5 -14.5q-9 -50 -6.5 -101.5t19.5 -83.5q10 -15 25.5 -21.5t33.5 -5.5t33 7t23 15q6 9 8 37.5t0 60.5t-9 52q-6 22 -10 37
t-5.5 27.5t-2.5 25.5l1 10t8 23.5t24 24.5t48 13q30 3 53.5 -10t37.5 -26.5l14 -13.5q14 -18 32 -54.5t26 -81.5q8 -54 5 -92.5t-15.5 -69.5t-34.5 -64q-23 -28 -57.5 -48t-75.5 -30.5t-83.5 -11t-81.5 11.5zM391 519q-28 0 -51 11.5t-37 31t-14 43.5t14 44t37 31.5t51 11.5
t51 -11.5t36.5 -31.5t13.5 -44q0 -48 -29.5 -67t-71.5 -19zM179 519q-28 0 -51 11.5t-36.5 31t-13.5 43.5t13.5 44t36.5 31.5t51 11.5q29 0 52 -11.5t36.5 -31.5t13.5 -44q0 -32 -13.5 -51t-36.5 -27t-52 -8z" />
    <glyph glyph-name="yacute" unicode="&#xfd;" horiz-adv-x="639" 
d="M357 -214q-70 -4 -132 9.5t-117 39.5l-11 6t-24 18.5t-19.5 30.5t1.5 42t23.5 34.5t31.5 12t27.5 0l11.5 -1.5q35 -9 59 -15.5t45 -9.5t44 -5q47 2 72 15.5t35 40t9 67.5q4 68 3.5 116.5t-4 88.5t-8 82.5t-9.5 97.5l6 11t23 21.5t50 10.5q34 1 56 -14t33.5 -29.5
l11.5 -14.5q18 -74 25.5 -140.5t8 -138t-3.5 -161.5q-10 -101 -69 -154.5t-179 -59.5zM220 12q-42 19 -79 48.5t-63 68t-35 83.5q-8 38 -10.5 68.5t0 62.5t9.5 75l3.5 11.5t13 26.5t27.5 26t47 9q35 -3 55.5 -15.5t30 -30t12 -34.5t1.5 -28l-1 -11q-7 -58 -4 -98t12 -62.5
t17 -30.5q12 -10 38 -9.5t69 17.5q5 2 16.5 16t22 38t9.5 55l139 27q14 -81 -1 -142t-53 -105q-29 -32 -72 -54t-95 -26.5t-109 14.5zM272 527l-9 -0.5t-21.5 0.5t-25 7t-19.5 19q-12 23 -8.5 41t14.5 30.5t21 19l10 6.5q49 23 76.5 30t46.5 10l9 1t22 0t26 -6t21 -18
q9 -15 8.5 -28t-5.5 -22.5t-10 -15l-5 -5.5q-16 -16 -37.5 -28t-43.5 -20.5t-40.5 -13.5t-29.5 -7z" />
    <glyph glyph-name="thorn" unicode="&#xfe;" horiz-adv-x="589" 
d="M299 64q-49 0 -90.5 18.5t-71.5 51.5t-45 76.5t-11 93.5t26 93.5t57.5 77t80 52t93.5 18.5q50 0 91.5 -21.5t71.5 -58t45.5 -82.5t11.5 -96t-26.5 -91t-58 -70.5t-80 -45.5t-94.5 -16zM137 5q-32 0 -51 13t-29 29.5t-13 29l-3 12.5q-4 43 -6.5 91t-3.5 99t0.5 103
t4.5 103t7 99l2 10.5t9.5 23.5t24.5 23t47 10q33 -1 53 -12t30 -27.5t14 -32.5t4 -27v-11q-4 -41 -6 -86t-2.5 -92.5t0 -96.5t2.5 -97.5t4 -94.5l-1.5 -10.5t-9.5 -24.5t-26 -24.5t-51 -9.5zM316 244q13 0 24 8.5t18 23.5t8 32q1 18 -4.5 32.5t-15 23t-22.5 8.5t-24 -8.5
t-18 -23t-8 -32.5q-1 -17 4.5 -32t15.5 -23.5t22 -8.5z" />
    <glyph glyph-name="ydieresis" unicode="&#xff;" horiz-adv-x="639" 
d="M357 -214q-70 -4 -132 9.5t-117 39.5l-11 6t-24 18.5t-19.5 30.5t1.5 42t23.5 34.5t31.5 12t27.5 0l11.5 -1.5q35 -9 59 -15.5t45 -9.5t44 -5q47 2 72 15.5t35 40t9 67.5q4 68 3.5 116.5t-4 88.5t-8 82.5t-9.5 97.5l6 11t23 21.5t50 10.5q34 1 56 -14t33.5 -29.5
l11.5 -14.5q18 -74 25.5 -140.5t8 -138t-3.5 -161.5q-10 -101 -69 -154.5t-179 -59.5zM220 12q-42 19 -79 48.5t-63 68t-35 83.5q-8 38 -10.5 68.5t0 62.5t9.5 75l3.5 11.5t13 26.5t27.5 26t47 9q35 -3 55.5 -15.5t30 -30t12 -34.5t1.5 -28l-1 -11q-7 -58 -4 -98t12 -62.5
t17 -30.5q12 -10 38 -9.5t69 17.5q5 2 16.5 16t22 38t9.5 55l139 27q14 -81 -1 -142t-53 -105q-29 -32 -72 -54t-95 -26.5t-109 14.5zM424 519q-28 0 -51 11.5t-37 31t-14 43.5t14 44t37 31.5t51 11.5t51 -11.5t36.5 -31.5t13.5 -44q0 -48 -29.5 -67t-71.5 -19zM212 519
q-28 0 -51 11.5t-36.5 31t-13.5 43.5t13.5 44t36.5 31.5t51 11.5q29 0 52 -11.5t36.5 -31.5t13.5 -44q0 -32 -13.5 -51t-36.5 -27t-52 -8z" />
    <glyph glyph-name="Amacron" unicode="&#x100;" horiz-adv-x="608" 
d="M127 -1q-37 5 -57 20.5t-28.5 34t-9.5 31.5l-1 13q2 77 22.5 157t46.5 162q33 87 61 133.5t53 66t47.5 23t45.5 3.5q17 3 41 -7t50 -31t48 -52.5t33 -72.5q10 -28 24.5 -71.5t29 -98t26.5 -116t18 -126.5l-1 -11t-8 -25.5t-24 -25.5t-49 -11t-53 12t-32.5 28.5t-16 28.5
l-4.5 12q-13 57 -19.5 97t-12.5 62q-14 56 -25 96.5t-23 77.5q-6 -21 -16.5 -49.5t-20.5 -57.5t-16 -53q-7 -38 -11.5 -59.5t-7 -37.5t-5 -36t-6.5 -56l-3.5 -10.5t-13.5 -24t-29.5 -22t-52.5 -4.5zM146 87l15 130q47 11 90.5 17.5t89.5 8t99 -3.5l17 -152q-35 6 -76 10
t-83.5 5t-81.5 -2.5t-70 -12.5zM497 744q0 -27 -11 -42.5t-25.5 -22.5t-25.5 -9l-11 -2q-42 3 -66 5t-39 3t-28.5 1t-33 -1t-54.5 -3l-10.5 0.5t-26 4.5t-29.5 16t-21 34q-8 24 -4.5 39t12 24t16 12.5l7.5 3.5q29 7 57 13.5t58.5 11t69 3.5t88.5 -9l11.5 -5t27 -15.5
t27 -25.5t11.5 -36z" />
    <glyph glyph-name="amacron" unicode="&#x101;" horiz-adv-x="638" 
d="M294 -1q-55 -1 -102.5 17.5t-84 52.5t-56.5 78.5t-20 94.5q1 59 21.5 106t56 80.5t83 51.5t102.5 19q86 1 142.5 -25.5t84.5 -82t28 -141.5q0 -50 -13.5 -94.5t-43 -79t-78.5 -55t-120 -22.5zM301 167q17 0 32 7.5t26.5 21t18.5 30.5t7 36q0 32 -10 52t-26.5 30t-38.5 10
q-16 0 -30.5 -9t-25.5 -23.5t-17 -32.5t-6 -37q0 -24 8.5 -43.5t24.5 -30.5t37 -11zM531 0q-29 0 -48 9t-28 18l-9 9q-7 73 -13 141.5t-6 140.5t7 152l9 8.5t28.5 16.5t50.5 5q34 -3 52 -19t24.5 -35.5t7.5 -34l1 -14.5q-4 -51 -6.5 -85.5t-2 -66.5t2.5 -72t5 -102
l-1.5 -10.5t-8 -24.5t-22 -25t-43.5 -11zM512 602q0 -27 -11 -42.5t-25.5 -22.5t-25.5 -9l-11 -2q-42 3 -66 5t-39 3t-28.5 1t-33 -1t-54.5 -3l-10.5 0.5t-26 4.5t-29.5 16t-21 34q-8 24 -4.5 39t12 24t16 12.5l7.5 3.5q29 7 57 13.5t58.5 11t69 3.5t88.5 -9l11.5 -5
t27 -15.5t27 -25.5t11.5 -36z" />
    <glyph glyph-name="Abreve" unicode="&#x102;" horiz-adv-x="608" 
d="M127 -1q-37 5 -57 20.5t-28.5 34t-9.5 31.5l-1 13q2 77 22.5 157t46.5 162q33 87 61 133.5t53 66t47.5 23t45.5 3.5q17 3 41 -7t50 -31t48 -52.5t33 -72.5q10 -28 24.5 -71.5t29 -98t26.5 -116t18 -126.5l-1 -11t-8 -25.5t-24 -25.5t-49 -11t-53 12t-32.5 28.5t-16 28.5
l-4.5 12q-13 57 -19.5 97t-12.5 62q-14 56 -25 96.5t-23 77.5q-6 -21 -16.5 -49.5t-20.5 -57.5t-16 -53q-7 -38 -11.5 -59.5t-7 -37.5t-5 -36t-6.5 -56l-3.5 -10.5t-13.5 -24t-29.5 -22t-52.5 -4.5zM146 87l15 130q47 11 90.5 17.5t89.5 8t99 -3.5l17 -152q-35 6 -76 10
t-83.5 5t-81.5 -2.5t-70 -12.5zM330 667q-21 -3 -50 1t-56.5 16t-46.5 33q-20 20 -28.5 46.5t-3.5 52t23 41.5l7.5 6t21.5 11t34 1q29 -4 42 -18t16.5 -26.5l3.5 -12.5q1 -4 1 -7.5t-1 -8.5q0 -4 3.5 -6t10.5 1q6 2 6 6.5v7.5q0 4 1 10t3 13l5.5 9t20 18t39.5 9q31 0 49 -12
t26.5 -24l8.5 -12q6 -16 5 -37t-6 -33q-19 -37 -51 -60t-84 -25z" />
    <glyph glyph-name="abreve" unicode="&#x103;" horiz-adv-x="638" 
d="M294 -1q-55 -1 -102.5 17.5t-84 52.5t-56.5 78.5t-20 94.5q1 59 21.5 106t56 80.5t83 51.5t102.5 19q86 1 142.5 -25.5t84.5 -82t28 -141.5q0 -50 -13.5 -94.5t-43 -79t-78.5 -55t-120 -22.5zM301 167q17 0 32 7.5t26.5 21t18.5 30.5t7 36q0 32 -10 52t-26.5 30t-38.5 10
q-16 0 -30.5 -9t-25.5 -23.5t-17 -32.5t-6 -37q0 -24 8.5 -43.5t24.5 -30.5t37 -11zM531 0q-29 0 -48 9t-28 18l-9 9q-7 73 -13 141.5t-6 140.5t7 152l9 8.5t28.5 16.5t50.5 5q34 -3 52 -19t24.5 -35.5t7.5 -34l1 -14.5q-4 -51 -6.5 -85.5t-2 -66.5t2.5 -72t5 -102
l-1.5 -10.5t-8 -24.5t-22 -25t-43.5 -11zM345 525q-21 -3 -50 1t-56.5 16t-46.5 33q-20 20 -28.5 46.5t-3.5 52t23 41.5l7.5 6t21.5 11t34 1q29 -4 42 -18t16.5 -26.5l3.5 -12.5q1 -4 1 -7.5t-1 -8.5q0 -4 3.5 -6t10.5 1q6 2 6 6.5v7.5q0 4 1 10t3 13l5.5 9t20 18t39.5 9
q31 0 49 -12t26.5 -24l8.5 -12q6 -16 5 -37t-6 -33q-19 -37 -51 -60t-84 -25z" />
    <glyph glyph-name="Aogonek" unicode="&#x104;" horiz-adv-x="608" 
d="M495 -5q-32 0 -53 12t-32.5 28.5t-16 28.5l-4.5 12q-13 57 -19.5 97t-12.5 62q-14 56 -25 96.5t-23 77.5q-6 -21 -16.5 -49.5t-20.5 -57.5t-16 -53q-7 -38 -11.5 -59.5t-7 -37.5t-5 -36t-6.5 -56l-3.5 -10.5t-13.5 -24t-29.5 -22t-52.5 -4.5q-37 5 -57 20.5t-28.5 34
t-9.5 31.5l-1 13q2 77 22.5 157t46.5 162q33 87 61 133.5t53 66t47.5 23t45.5 3.5q17 3 41 -7t50 -31t48 -52.5t33 -72.5q10 -28 24.5 -71.5t29 -98t26.5 -116t18 -126.5l-1 -11t-8 -25.5t-24 -25.5t-49 -11zM146 87l15 130q47 11 90.5 17.5t89.5 8t99 -3.5l17 -152
q-35 6 -76 10t-83.5 5t-81.5 -2.5t-70 -12.5zM494 -168q-47 -2 -76.5 15.5t-42.5 43t-13 46.5q1 14 6.5 34.5t23.5 42.5t56 40l11 3.5t26.5 3t30.5 -12.5q13 -10 16 -21t0 -20t-6.5 -14.5l-3.5 -5.5q-16 -16 -23 -23.5t-12 -20.5q0 -1 -2 -7t-2 -11t5 -3q13 5 22 10t17 10
l14.5 5.5t36.5 -7.5q15 -8 17 -20.5t-1.5 -21.5l-3.5 -9q-16 -22 -40 -40t-56 -17z" />
    <glyph glyph-name="aogonek" unicode="&#x105;" horiz-adv-x="638" 
d="M294 -1q-55 -1 -102.5 17.5t-84 52.5t-56.5 78.5t-20 94.5q1 59 21.5 106t56 80.5t83 51.5t102.5 19q86 1 142.5 -25.5t84.5 -82t28 -141.5q0 -50 -13.5 -94.5t-43 -79t-78.5 -55t-120 -22.5zM301 167q17 0 32 7.5t26.5 21t18.5 30.5t7 36q0 32 -10 52t-26.5 30t-38.5 10
q-16 0 -30.5 -9t-25.5 -23.5t-17 -32.5t-6 -37q0 -24 8.5 -43.5t24.5 -30.5t37 -11zM531 0q-29 0 -48 9t-28 18l-9 9q-7 73 -13 141.5t-6 140.5t7 152l9 8.5t28.5 16.5t50.5 5q34 -3 52 -19t24.5 -35.5t7.5 -34l1 -14.5q-4 -51 -6.5 -85.5t-2 -66.5t2.5 -72t5 -102
l-1.5 -10.5t-8 -24.5t-22 -25t-43.5 -11zM533 -170q-47 -2 -76.5 15.5t-42.5 43t-13 46.5q1 14 6.5 34.5t23.5 42.5t56 40l11 3.5t26.5 3t30.5 -12.5q13 -10 16 -21t0 -20t-6.5 -14.5l-3.5 -5.5q-16 -16 -23 -23.5t-12 -20.5q0 -1 -2 -7t-2 -11t5 -3q13 5 22 10t17 10
l14.5 5.5t36.5 -7.5q15 -8 17 -20.5t-1.5 -21.5l-3.5 -9q-16 -22 -40 -40t-56 -17z" />
    <glyph glyph-name="Cacute" unicode="&#x106;" horiz-adv-x="620" 
d="M278 5q-63 12 -108.5 40t-75 67.5t-45 83.5t-18.5 88t5 82q9 44 29.5 93.5t56.5 93t90 71t130 27.5q66 0 117 -26.5t83 -68t43 -88t-3 -87.5l-8 -13t-26 -24.5t-48 -8.5q-31 4 -47.5 21t-22.5 33l-6 16l-1 8t-4 20.5t-10 24.5t-18.5 20t-29.5 8q-27 0 -48.5 -15
t-37.5 -38.5t-27 -50t-17 -50t-7 -38.5q-1 -14 1 -29.5t7.5 -31t14 -29.5t21.5 -24t29 -15q14 -4 33.5 3t38 20t26.5 26l7 10t22.5 21t39.5 13.5t58 -12.5q29 -13 42.5 -29t16.5 -32.5t-0.5 -30t-7.5 -22l-4 -8.5l-9.5 -15.5t-30 -37.5t-54.5 -41.5t-82.5 -28t-114.5 3.5z
M299 669l-9 -0.5t-21.5 0.5t-25 7t-19.5 19q-12 23 -8.5 41t14.5 30.5t21 19l10 6.5q49 23 76.5 30t46.5 10l9 1t22 0t26 -6t21 -18q9 -15 8.5 -28t-5.5 -22.5t-10 -15l-5 -5.5q-16 -16 -37.5 -28t-43.5 -20.5t-40.5 -13.5t-29.5 -7z" />
    <glyph glyph-name="cacute" unicode="&#x107;" horiz-adv-x="532" 
d="M266 -9q-82 4 -132 34.5t-74 82t-29 116.5q-4 52 11.5 101t48 87.5t79.5 61t107 21.5q54 -1 91 -14.5t61 -33t36.5 -39t17.5 -32.5l5 -13l-1 -11t-8 -27t-26 -30q-14 -10 -35.5 -15.5t-42.5 -2.5t-32 16q-2 0 -6.5 4.5t-11 9.5t-16 8.5t-21.5 1.5q-20 -3 -31.5 -11
t-17.5 -19.5t-8 -23t-3 -20.5q-2 -21 5 -37t19 -25t24 -10q11 0 22.5 2.5t23 7t20.5 8t14 4.5q34 11 59 5.5t42.5 -18.5t26.5 -27q17 -23 17.5 -41.5t-4 -29.5l-4.5 -11l-12.5 -13t-39.5 -30t-70 -28.5t-105 -8.5zM234 527l-9 -0.5t-21.5 0.5t-25 7t-19.5 19q-12 23 -8.5 41
t14.5 30.5t21 19l10 6.5q49 23 76.5 30t46.5 10l9 1t22 0t26 -6t21 -18q9 -15 8.5 -28t-5.5 -22.5t-10 -15l-5 -5.5q-16 -16 -37.5 -28t-43.5 -20.5t-40.5 -13.5t-29.5 -7z" />
    <glyph glyph-name="Ccircumflex" unicode="&#x108;" horiz-adv-x="620" 
d="M278 5q-63 12 -108.5 40t-75 67.5t-45 83.5t-18.5 88t5 82q9 44 29.5 93.5t56.5 93t90 71t130 27.5q66 0 117 -26.5t83 -68t43 -88t-3 -87.5l-8 -13t-26 -24.5t-48 -8.5q-31 4 -47.5 21t-22.5 33l-6 16l-1 8t-4 20.5t-10 24.5t-18.5 20t-29.5 8q-27 0 -48.5 -15
t-37.5 -38.5t-27 -50t-17 -50t-7 -38.5q-1 -14 1 -29.5t7.5 -31t14 -29.5t21.5 -24t29 -15q14 -4 33.5 3t38 20t26.5 26l7 10t22.5 21t39.5 13.5t58 -12.5q29 -13 42.5 -29t16.5 -32.5t-0.5 -30t-7.5 -22l-4 -8.5l-9.5 -15.5t-30 -37.5t-54.5 -41.5t-82.5 -28t-114.5 3.5z
M222 681q-18 13 -24 25.5t-6 23t2.5 17l2.5 6.5q13 18 24 31t25 25t36 28q9 8 27.5 11t39 0t36.5 -16l81 -52l7.5 -8t14 -21t4.5 -29t-21 -33q-13 -12 -28 -14.5t-28.5 0t-22 5.5l-8.5 3l-41 33q-12 -10 -26 -21.5t-25 -20.5l-10.5 -3t-26.5 -2.5t-33 12.5z" />
    <glyph glyph-name="ccircumflex" unicode="&#x109;" horiz-adv-x="532" 
d="M266 -9q-82 4 -132 34.5t-74 82t-29 116.5q-4 52 11.5 101t48 87.5t79.5 61t107 21.5q54 -1 91 -14.5t61 -33t36.5 -39t17.5 -32.5l5 -13l-1 -11t-8 -27t-26 -30q-14 -10 -35.5 -15.5t-42.5 -2.5t-32 16q-2 0 -6.5 4.5t-11 9.5t-16 8.5t-21.5 1.5q-20 -3 -31.5 -11
t-17.5 -19.5t-8 -23t-3 -20.5q-2 -21 5 -37t19 -25t24 -10q11 0 22.5 2.5t23 7t20.5 8t14 4.5q34 11 59 5.5t42.5 -18.5t26.5 -27q17 -23 17.5 -41.5t-4 -29.5l-4.5 -11l-12.5 -13t-39.5 -30t-70 -28.5t-105 -8.5zM157 539q-18 13 -24 25.5t-6 23t2.5 17l2.5 6.5
q13 18 24 31t25 25t36 28q9 8 27.5 11t39 0t36.5 -16l81 -52l7.5 -8t14 -21t4.5 -29t-21 -33q-13 -12 -28 -14.5t-28.5 0t-22 5.5l-8.5 3l-41 33q-12 -10 -26 -21.5t-25 -20.5l-10.5 -3t-26.5 -2.5t-33 12.5z" />
    <glyph glyph-name="Cdotaccent" unicode="&#x10a;" horiz-adv-x="620" 
d="M278 5q-63 12 -108.5 40t-75 67.5t-45 83.5t-18.5 88t5 82q9 44 29.5 93.5t56.5 93t90 71t130 27.5q66 0 117 -26.5t83 -68t43 -88t-3 -87.5l-8 -13t-26 -24.5t-48 -8.5q-31 4 -47.5 21t-22.5 33l-6 16l-1 8t-4 20.5t-10 24.5t-18.5 20t-29.5 8q-27 0 -48.5 -15
t-37.5 -38.5t-27 -50t-17 -50t-7 -38.5q-1 -14 1 -29.5t7.5 -31t14 -29.5t21.5 -24t29 -15q14 -4 33.5 3t38 20t26.5 26l7 10t22.5 21t39.5 13.5t58 -12.5q29 -13 42.5 -29t16.5 -32.5t-0.5 -30t-7.5 -22l-4 -8.5l-9.5 -15.5t-30 -37.5t-54.5 -41.5t-82.5 -28t-114.5 3.5z
M342 664q-28 0 -51 11.5t-36.5 31.5t-13.5 44t13.5 44t36.5 31.5t51 11.5q29 0 52 -11.5t36.5 -31.5t13.5 -44q0 -32 -13.5 -51t-36.5 -27.5t-52 -8.5z" />
    <glyph glyph-name="cdotaccent" unicode="&#x10b;" horiz-adv-x="532" 
d="M266 -9q-82 4 -132 34.5t-74 82t-29 116.5q-4 52 11.5 101t48 87.5t79.5 61t107 21.5q54 -1 91 -14.5t61 -33t36.5 -39t17.5 -32.5l5 -13l-1 -11t-8 -27t-26 -30q-14 -10 -35.5 -15.5t-42.5 -2.5t-32 16q-2 0 -6.5 4.5t-11 9.5t-16 8.5t-21.5 1.5q-20 -3 -31.5 -11
t-17.5 -19.5t-8 -23t-3 -20.5q-2 -21 5 -37t19 -25t24 -10q11 0 22.5 2.5t23 7t20.5 8t14 4.5q34 11 59 5.5t42.5 -18.5t26.5 -27q17 -23 17.5 -41.5t-4 -29.5l-4.5 -11l-12.5 -13t-39.5 -30t-70 -28.5t-105 -8.5zM277 522q-28 0 -51 11.5t-36.5 31.5t-13.5 44t13.5 44
t36.5 31.5t51 11.5q29 0 52 -11.5t36.5 -31.5t13.5 -44q0 -32 -13.5 -51t-36.5 -27.5t-52 -8.5z" />
    <glyph glyph-name="Ccaron" unicode="&#x10c;" horiz-adv-x="620" 
d="M278 5q-63 12 -108.5 40t-75 67.5t-45 83.5t-18.5 88t5 82q9 44 29.5 93.5t56.5 93t90 71t130 27.5q66 0 117 -26.5t83 -68t43 -88t-3 -87.5l-8 -13t-26 -24.5t-48 -8.5q-31 4 -47.5 21t-22.5 33l-6 16l-1 8t-4 20.5t-10 24.5t-18.5 20t-29.5 8q-27 0 -48.5 -15
t-37.5 -38.5t-27 -50t-17 -50t-7 -38.5q-1 -14 1 -29.5t7.5 -31t14 -29.5t21.5 -24t29 -15q14 -4 33.5 3t38 20t26.5 26l7 10t22.5 21t39.5 13.5t58 -12.5q29 -13 42.5 -29t16.5 -32.5t-0.5 -30t-7.5 -22l-4 -8.5l-9.5 -15.5t-30 -37.5t-54.5 -41.5t-82.5 -28t-114.5 3.5z
M299 679l-80 51l-7.5 8t-14.5 21t-5 29.5t21 32.5q14 12 29 14.5t28 0t21.5 -5.5l8.5 -3l42 -33q11 11 25.5 22t25.5 20l10.5 3.5t26.5 2.5t32 -13q18 -13 24.5 -25.5t6 -23t-3 -17l-2.5 -6.5q-12 -18 -23 -31t-25 -25t-36 -28q-9 -7 -27.5 -10.5t-39.5 0t-37 16.5z" />
    <glyph glyph-name="ccaron" unicode="&#x10d;" horiz-adv-x="532" 
d="M266 -9q-82 4 -132 34.5t-74 82t-29 116.5q-4 52 11.5 101t48 87.5t79.5 61t107 21.5q54 -1 91 -14.5t61 -33t36.5 -39t17.5 -32.5l5 -13l-1 -11t-8 -27t-26 -30q-14 -10 -35.5 -15.5t-42.5 -2.5t-32 16q-2 0 -6.5 4.5t-11 9.5t-16 8.5t-21.5 1.5q-20 -3 -31.5 -11
t-17.5 -19.5t-8 -23t-3 -20.5q-2 -21 5 -37t19 -25t24 -10q11 0 22.5 2.5t23 7t20.5 8t14 4.5q34 11 59 5.5t42.5 -18.5t26.5 -27q17 -23 17.5 -41.5t-4 -29.5l-4.5 -11l-12.5 -13t-39.5 -30t-70 -28.5t-105 -8.5zM234 537l-80 51l-7.5 8t-14.5 21t-5 29.5t21 32.5
q14 12 29 14.5t28 0t21.5 -5.5l8.5 -3l42 -33q11 11 25.5 22t25.5 20l10.5 3.5t26.5 2.5t32 -13q18 -13 24.5 -25.5t6 -23t-3 -17l-2.5 -6.5q-12 -18 -23 -31t-25 -25t-36 -28q-9 -7 -27.5 -10.5t-39.5 0t-37 16.5z" />
    <glyph glyph-name="Dcaron" unicode="&#x10e;" horiz-adv-x="643" 
d="M166 -2q-57 3 -86.5 28.5t-39.5 58.5q-8 125 -9 245.5t9 233.5q2 53 53 70t140 17q76 0 129.5 -13.5t90.5 -36t64 -51t49 -57.5q56 -112 45.5 -209.5t-81.5 -182.5q-41 -46 -99 -69.5t-126 -30t-139 -3.5zM224 180q51 -4 86.5 5t57.5 29t32.5 50t12.5 68q-3 50 -17 81.5
t-39 48.5t-58 21.5t-74 -0.5q-3 -73 -3 -148.5t2 -154.5zM276 679l-80 51l-7.5 8t-14.5 21t-5 29.5t21 32.5q14 12 29 14.5t28 0t21.5 -5.5l8.5 -3l42 -33q11 11 25.5 22t25.5 20l10.5 3.5t26.5 2.5t32 -13q18 -13 24.5 -25.5t6 -23t-3 -17l-2.5 -6.5q-12 -18 -23 -31
t-25 -25t-36 -28q-9 -7 -27.5 -10.5t-39.5 0t-37 16.5z" />
    <glyph glyph-name="dcaron" unicode="&#x10f;" horiz-adv-x="637" 
d="M294 -1q-55 -1 -102.5 17.5t-84 52.5t-56.5 78.5t-20 94.5q1 59 21.5 106t56 80.5t83 51.5t102.5 19q86 1 142.5 -25.5t84.5 -82t28 -141.5q0 -50 -13.5 -94.5t-43 -79t-78.5 -55t-120 -22.5zM301 167q17 0 32 7.5t26.5 21t18.5 30.5t7 36q0 32 -10 52t-26.5 30t-38.5 10
q-16 0 -30.5 -9t-25.5 -23.5t-17 -32.5t-6 -37q0 -24 8.5 -43.5t24.5 -30.5t37 -11zM527 -1q-32 0 -52.5 12.5t-32 29.5t-16 29.5l-4.5 12.5q-4 43 -6.5 92.5t-3.5 102t0.5 106t4.5 106t7 101.5l3 10t12.5 22.5t27 21t47.5 5.5q32 -3 50.5 -16.5t27.5 -29.5t12 -28l3 -12
q-1 -38 -2.5 -84.5t-2.5 -97.5t-1 -104.5t1 -106.5t4 -102l-2 -10.5t-9 -24.5t-23 -24.5t-45 -10.5zM698 417q-26 8 -36.5 23.5t-12 28.5l-1.5 13l6 34q-19 26 -16.5 54t22 49t49.5 26q39 2 64 -8t38.5 -26t19.5 -32t7 -28q0 -21 -7.5 -45.5t-19.5 -44t-28 -29.5l-10.5 -7.5
t-29.5 -11.5t-45 4z" />
    <glyph glyph-name="Dcroat" unicode="&#x110;" horiz-adv-x="643" 
d="M166 -2q-57 3 -86.5 28.5t-39.5 58.5q-8 125 -9 245.5t9 233.5q2 53 53 70t140 17q76 0 129.5 -13.5t90.5 -36t64 -51t49 -57.5q56 -112 45.5 -209.5t-81.5 -182.5q-41 -46 -99 -69.5t-126 -30t-139 -3.5zM28 262h-10t-21 3.5t-23 13t-17 27.5q-6 20 -3 32.5t10 19.5
t13 10l6 3q19 5 43.5 9t53.5 7.5t60.5 5t64 0t65.5 -6.5l9.5 -4t21.5 -12.5t21.5 -20.5t9.5 -29q0 -22 -9 -35t-20.5 -19t-20.5 -7.5l-9 -1.5q-34 2 -60.5 4t-48 3t-42.5 1t-43.5 -0.5t-50.5 -2.5zM224 180q51 -4 86.5 5t57.5 29t32.5 50t12.5 68q-3 50 -17 81.5t-39 48.5
t-58 21.5t-74 -0.5q-3 -73 -3 -148.5t2 -154.5z" />
    <glyph glyph-name="dcroat" unicode="&#x111;" horiz-adv-x="637" 
d="M294 -1q-55 -1 -102.5 17.5t-84 52.5t-56.5 78.5t-20 94.5q1 59 21.5 106t56 80.5t83 51.5t102.5 19q86 1 142.5 -25.5t84.5 -82t28 -141.5q0 -50 -13.5 -94.5t-43 -79t-78.5 -55t-120 -22.5zM301 167q17 0 32 7.5t26.5 21t18.5 30.5t7 36q0 32 -10 52t-26.5 30t-38.5 10
q-16 0 -30.5 -9t-25.5 -23.5t-17 -32.5t-6 -37q0 -24 8.5 -43.5t24.5 -30.5t37 -11zM527 -1q-32 0 -52.5 12.5t-32 29.5t-16 29.5l-4.5 12.5q-4 43 -6.5 92.5t-3.5 102t0.5 106t4.5 106t7 101.5l3 10t12.5 22.5t27 21t47.5 5.5q32 -3 50.5 -16.5t27.5 -29.5t12 -28l3 -12
q-1 -38 -2.5 -84.5t-2.5 -97.5t-1 -104.5t1 -106.5t4 -102l-2 -10.5t-9 -24.5t-23 -24.5t-45 -10.5zM388 507h-10.5t-19.5 3t-21 12t-16 26q-6 19 -3 31t9.5 19t12 9.5l5.5 2.5q18 4 41.5 8.5t50.5 7.5t57 4.5t61 0t62 -6.5l9 -4t20.5 -11.5t20.5 -19t9 -27.5
q0 -21 -8.5 -33t-19.5 -18t-19.5 -7.5l-8.5 -1.5q-32 2 -57 4t-45.5 3t-40 1t-41 -0.5t-48.5 -2.5z" />
    <glyph glyph-name="Emacron" unicode="&#x112;" horiz-adv-x="545" 
d="M151 2q-42 4 -65 18.5t-32.5 32.5t-12 34.5t-3.5 25.5q-3 71 -5.5 126.5t-2.5 107t3 110.5t10 138q3 14 20 32.5t57 22.5l265 7l12 -0.5t30.5 -4t37 -12.5t31 -26t13.5 -44t-10 -42.5t-26 -23t-26.5 -9.5l-11.5 -2l-212 10q-2 -51 -3 -86t-1.5 -62t0 -52.5t0.5 -57.5
t1 -78q30 5 47.5 7.5t28.5 4.5t22.5 4t28.5 5.5t46 9.5h10t25.5 -2.5t32.5 -9.5t30.5 -19.5t18.5 -32.5q8 -29 2.5 -47.5t-17 -28.5t-21 -14l-9.5 -4q-46 -10 -82.5 -18t-71.5 -13t-73 -7t-87 0zM75 251l-11 164l279 11l9.5 -2.5t23 -8t27 -15.5t23 -25t9.5 -36
q0 -28 -11 -44t-26 -23t-26 -8.5l-11 -1.5zM481 744q0 -27 -11 -42.5t-25.5 -22.5t-25.5 -9l-11 -2q-42 3 -66 5t-39 3t-28.5 1t-33 -1t-54.5 -3l-10.5 0.5t-26 4.5t-29.5 16t-21 34q-8 24 -4.5 39t12 24t16 12.5l7.5 3.5q29 7 57 13.5t58.5 11t69 3.5t88.5 -9l11.5 -5
t27 -15.5t27 -25.5t11.5 -36z" />
    <glyph glyph-name="emacron" unicode="&#x113;" horiz-adv-x="533" 
d="M243 -11q-66 13 -107.5 39.5t-64 62t-31 75.5t-9.5 80q-1 53 17.5 100.5t53.5 83.5t83.5 55.5t106.5 15.5q59 -4 99 -23t64 -47t35 -60t12 -62q1 -47 -24.5 -88t-88.5 -57q-16 -4 -36 -5t-41 -1t-41 1.5t-35.5 3t-25 2.5l-9.5 1q4 -5 12 -15.5t25 -18.5t47 -7q39 2 63 4
t37 3.5t17.5 2.5l4.5 1h8.5t22 -2t27.5 -9.5t24 -22.5q12 -17 11 -30.5t-7 -23.5t-12.5 -15l-6.5 -5l-20.5 -9t-54 -19t-74.5 -14.5t-82 3.5zM207 282l103 1l3.5 0.5t9.5 2t11.5 5t9 10t3.5 16.5q0 16 -6.5 27t-21 16t-40.5 3q-15 -1 -28.5 -10t-24 -22t-16 -26.5
t-3.5 -22.5zM471 602q0 -27 -11 -42.5t-25.5 -22.5t-25.5 -9l-11 -2q-42 3 -66 5t-39 3t-28.5 1t-33 -1t-54.5 -3l-10.5 0.5t-26 4.5t-29.5 16t-21 34q-8 24 -4.5 39t12 24t16 12.5l7.5 3.5q29 7 57 13.5t58.5 11t69 3.5t88.5 -9l11.5 -5t27 -15.5t27 -25.5t11.5 -36z" />
    <glyph glyph-name="Ebreve" unicode="&#x114;" horiz-adv-x="545" 
d="M151 2q-42 4 -65 18.5t-32.5 32.5t-12 34.5t-3.5 25.5q-3 71 -5.5 126.5t-2.5 107t3 110.5t10 138q3 14 20 32.5t57 22.5l265 7l12 -0.5t30.5 -4t37 -12.5t31 -26t13.5 -44t-10 -42.5t-26 -23t-26.5 -9.5l-11.5 -2l-212 10q-2 -51 -3 -86t-1.5 -62t0 -52.5t0.5 -57.5
t1 -78q30 5 47.5 7.5t28.5 4.5t22.5 4t28.5 5.5t46 9.5h10t25.5 -2.5t32.5 -9.5t30.5 -19.5t18.5 -32.5q8 -29 2.5 -47.5t-17 -28.5t-21 -14l-9.5 -4q-46 -10 -82.5 -18t-71.5 -13t-73 -7t-87 0zM75 251l-11 164l279 11l9.5 -2.5t23 -8t27 -15.5t23 -25t9.5 -36
q0 -28 -11 -44t-26 -23t-26 -8.5l-11 -1.5zM314 667q-21 -3 -50 1t-56.5 16t-46.5 33q-20 20 -28.5 46.5t-3.5 52t23 41.5l7.5 6t21.5 11t34 1q29 -4 42 -18t16.5 -26.5l3.5 -12.5q1 -4 1 -7.5t-1 -8.5q0 -4 3.5 -6t10.5 1q6 2 6 6.5v7.5q0 4 1 10t3 13l5.5 9t20 18t39.5 9
q31 0 49 -12t26.5 -24l8.5 -12q6 -16 5 -37t-6 -33q-19 -37 -51 -60t-84 -25z" />
    <glyph glyph-name="ebreve" unicode="&#x115;" horiz-adv-x="533" 
d="M243 -11q-66 13 -107.5 39.5t-64 62t-31 75.5t-9.5 80q-1 53 17.5 100.5t53.5 83.5t83.5 55.5t106.5 15.5q59 -4 99 -23t64 -47t35 -60t12 -62q1 -47 -24.5 -88t-88.5 -57q-16 -4 -36 -5t-41 -1t-41 1.5t-35.5 3t-25 2.5l-9.5 1q4 -5 12 -15.5t25 -18.5t47 -7q39 2 63 4
t37 3.5t17.5 2.5l4.5 1h8.5t22 -2t27.5 -9.5t24 -22.5q12 -17 11 -30.5t-7 -23.5t-12.5 -15l-6.5 -5l-20.5 -9t-54 -19t-74.5 -14.5t-82 3.5zM207 282l103 1l3.5 0.5t9.5 2t11.5 5t9 10t3.5 16.5q0 16 -6.5 27t-21 16t-40.5 3q-15 -1 -28.5 -10t-24 -22t-16 -26.5
t-3.5 -22.5zM304 525q-21 -3 -50 1t-56.5 16t-46.5 33q-20 20 -28.5 46.5t-3.5 52t23 41.5l7.5 6t21.5 11t34 1q29 -4 42 -18t16.5 -26.5l3.5 -12.5q1 -4 1 -7.5t-1 -8.5q0 -4 3.5 -6t10.5 1q6 2 6 6.5v7.5q0 4 1 10t3 13l5.5 9t20 18t39.5 9q31 0 49 -12t26.5 -24l8.5 -12
q6 -16 5 -37t-6 -33q-19 -37 -51 -60t-84 -25z" />
    <glyph glyph-name="Edotaccent" unicode="&#x116;" horiz-adv-x="545" 
d="M151 2q-42 4 -65 18.5t-32.5 32.5t-12 34.5t-3.5 25.5q-3 71 -5.5 126.5t-2.5 107t3 110.5t10 138q3 14 20 32.5t57 22.5l265 7l12 -0.5t30.5 -4t37 -12.5t31 -26t13.5 -44t-10 -42.5t-26 -23t-26.5 -9.5l-11.5 -2l-212 10q-2 -51 -3 -86t-1.5 -62t0 -52.5t0.5 -57.5
t1 -78q30 5 47.5 7.5t28.5 4.5t22.5 4t28.5 5.5t46 9.5h10t25.5 -2.5t32.5 -9.5t30.5 -19.5t18.5 -32.5q8 -29 2.5 -47.5t-17 -28.5t-21 -14l-9.5 -4q-46 -10 -82.5 -18t-71.5 -13t-73 -7t-87 0zM75 251l-11 164l279 11l9.5 -2.5t23 -8t27 -15.5t23 -25t9.5 -36
q0 -28 -11 -44t-26 -23t-26 -8.5l-11 -1.5zM288 664q-28 0 -51 11.5t-36.5 31.5t-13.5 44t13.5 44t36.5 31.5t51 11.5q29 0 52 -11.5t36.5 -31.5t13.5 -44q0 -32 -13.5 -51t-36.5 -27.5t-52 -8.5z" />
    <glyph glyph-name="edotaccent" unicode="&#x117;" horiz-adv-x="533" 
d="M243 -11q-66 13 -107.5 39.5t-64 62t-31 75.5t-9.5 80q-1 53 17.5 100.5t53.5 83.5t83.5 55.5t106.5 15.5q59 -4 99 -23t64 -47t35 -60t12 -62q1 -47 -24.5 -88t-88.5 -57q-16 -4 -36 -5t-41 -1t-41 1.5t-35.5 3t-25 2.5l-9.5 1q4 -5 12 -15.5t25 -18.5t47 -7q39 2 63 4
t37 3.5t17.5 2.5l4.5 1h8.5t22 -2t27.5 -9.5t24 -22.5q12 -17 11 -30.5t-7 -23.5t-12.5 -15l-6.5 -5l-20.5 -9t-54 -19t-74.5 -14.5t-82 3.5zM207 282l103 1l3.5 0.5t9.5 2t11.5 5t9 10t3.5 16.5q0 16 -6.5 27t-21 16t-40.5 3q-15 -1 -28.5 -10t-24 -22t-16 -26.5
t-3.5 -22.5zM278 522q-28 0 -51 11.5t-36.5 31.5t-13.5 44t13.5 44t36.5 31.5t51 11.5q29 0 52 -11.5t36.5 -31.5t13.5 -44q0 -32 -13.5 -51t-36.5 -27.5t-52 -8.5z" />
    <glyph glyph-name="Eogonek" unicode="&#x118;" horiz-adv-x="545" 
d="M151 2q-42 4 -65 18.5t-32.5 32.5t-12 34.5t-3.5 25.5q-3 71 -5.5 126.5t-2.5 107t3 110.5t10 138q3 14 20 32.5t57 22.5l265 7l12 -0.5t30.5 -4t37 -12.5t31 -26t13.5 -44t-10 -42.5t-26 -23t-26.5 -9.5l-11.5 -2l-212 10q-2 -51 -3 -86t-1.5 -62t0 -52.5t0.5 -57.5
t1 -78q30 5 47.5 7.5t28.5 4.5t22.5 4t28.5 5.5t46 9.5h10t25.5 -2.5t32.5 -9.5t30.5 -19.5t18.5 -32.5q8 -29 2.5 -47.5t-17 -28.5t-21 -14l-9.5 -4q-46 -10 -82.5 -18t-71.5 -13t-73 -7t-87 0zM75 251l-11 164l279 11l9.5 -2.5t23 -8t27 -15.5t23 -25t9.5 -36
q0 -28 -11 -44t-26 -23t-26 -8.5l-11 -1.5zM423 -136q-47 -2 -76.5 15.5t-42.5 43t-13 46.5q1 14 6.5 34.5t23.5 42.5t56 40l11 3.5t26.5 3t30.5 -12.5q13 -10 16 -21t0 -20t-6.5 -14.5l-3.5 -5.5q-16 -16 -23 -23.5t-12 -20.5q0 -1 -2 -7t-2 -11t5 -3q13 5 22 10t17 10
l14.5 5.5t36.5 -7.5q15 -8 17 -20.5t-1.5 -21.5l-3.5 -9q-16 -22 -40 -40t-56 -17z" />
    <glyph glyph-name="eogonek" unicode="&#x119;" horiz-adv-x="533" 
d="M243 -11q-66 13 -107.5 39.5t-64 62t-31 75.5t-9.5 80q-1 53 17.5 100.5t53.5 83.5t83.5 55.5t106.5 15.5q59 -4 99 -23t64 -47t35 -60t12 -62q1 -47 -24.5 -88t-88.5 -57q-16 -4 -36 -5t-41 -1t-41 1.5t-35.5 3t-25 2.5l-9.5 1q4 -5 12 -15.5t25 -18.5t47 -7q39 2 63 4
t37 3.5t17.5 2.5l4.5 1h8.5t22 -2t27.5 -9.5t24 -22.5q12 -17 11 -30.5t-7 -23.5t-12.5 -15l-6.5 -5l-20.5 -9t-54 -19t-74.5 -14.5t-82 3.5zM293 -196q-48 -2 -77 15.5t-42 43t-13 46.5q1 14 6.5 34.5t23.5 42.5t56 40l11 3.5t26.5 3t30.5 -12.5q13 -10 16 -21t0 -20
t-6.5 -14.5l-3.5 -5.5q-16 -16 -23 -23.5t-12 -20.5q0 -1 -2 -7t-2 -11t5 -3q13 5 22 10t17 10l14.5 5.5t36.5 -7.5q15 -8 17 -20.5t-1.5 -21.5l-3.5 -9q-16 -22 -40 -40t-56 -17zM207 282l103 1l3.5 0.5t9.5 2t11.5 5t9 10t3.5 16.5q0 16 -6.5 27t-21 16t-40.5 3
q-15 -1 -28.5 -10t-24 -22t-16 -26.5t-3.5 -22.5z" />
    <glyph glyph-name="Ecaron" unicode="&#x11a;" horiz-adv-x="545" 
d="M151 2q-42 4 -65 18.5t-32.5 32.5t-12 34.5t-3.5 25.5q-3 71 -5.5 126.5t-2.5 107t3 110.5t10 138q3 14 20 32.5t57 22.5l265 7l12 -0.5t30.5 -4t37 -12.5t31 -26t13.5 -44t-10 -42.5t-26 -23t-26.5 -9.5l-11.5 -2l-212 10q-2 -51 -3 -86t-1.5 -62t0 -52.5t0.5 -57.5
t1 -78q30 5 47.5 7.5t28.5 4.5t22.5 4t28.5 5.5t46 9.5h10t25.5 -2.5t32.5 -9.5t30.5 -19.5t18.5 -32.5q8 -29 2.5 -47.5t-17 -28.5t-21 -14l-9.5 -4q-46 -10 -82.5 -18t-71.5 -13t-73 -7t-87 0zM75 251l-11 164l279 11l9.5 -2.5t23 -8t27 -15.5t23 -25t9.5 -36
q0 -28 -11 -44t-26 -23t-26 -8.5l-11 -1.5zM245 679l-80 51l-7.5 8t-14.5 21t-5 29.5t21 32.5q14 12 29 14.5t28 0t21.5 -5.5l8.5 -3l42 -33q11 11 25.5 22t25.5 20l10.5 3.5t26.5 2.5t32 -13q18 -13 24.5 -25.5t6 -23t-3 -17l-2.5 -6.5q-12 -18 -23 -31t-25 -25t-36 -28
q-9 -7 -27.5 -10.5t-39.5 0t-37 16.5z" />
    <glyph glyph-name="ecaron" unicode="&#x11b;" horiz-adv-x="533" 
d="M243 -11q-66 13 -107.5 39.5t-64 62t-31 75.5t-9.5 80q-1 53 17.5 100.5t53.5 83.5t83.5 55.5t106.5 15.5q59 -4 99 -23t64 -47t35 -60t12 -62q1 -47 -24.5 -88t-88.5 -57q-16 -4 -36 -5t-41 -1t-41 1.5t-35.5 3t-25 2.5l-9.5 1q4 -5 12 -15.5t25 -18.5t47 -7q39 2 63 4
t37 3.5t17.5 2.5l4.5 1h8.5t22 -2t27.5 -9.5t24 -22.5q12 -17 11 -30.5t-7 -23.5t-12.5 -15l-6.5 -5l-20.5 -9t-54 -19t-74.5 -14.5t-82 3.5zM207 282l103 1l3.5 0.5t9.5 2t11.5 5t9 10t3.5 16.5q0 16 -6.5 27t-21 16t-40.5 3q-15 -1 -28.5 -10t-24 -22t-16 -26.5
t-3.5 -22.5zM235 537l-80 51l-7.5 8t-14.5 21t-5 29.5t21 32.5q14 12 29 14.5t28 0t21.5 -5.5l8.5 -3l42 -33q11 11 25.5 22t25.5 20l10.5 3.5t26.5 2.5t32 -13q18 -13 24.5 -25.5t6 -23t-3 -17l-2.5 -6.5q-12 -18 -23 -31t-25 -25t-36 -28q-9 -7 -27.5 -10.5t-39.5 0
t-37 16.5z" />
    <glyph glyph-name="Gcircumflex" unicode="&#x11c;" horiz-adv-x="602" 
d="M209 12q-31 11 -62.5 33t-58 56.5t-42.5 83.5t-16 114q8 61 23 115.5t48 102.5t93 88q72 44 141.5 45t133.5 -33q32 -18 54.5 -46.5t35 -62t13 -67.5t-13.5 -64l-6 -9t-19.5 -17.5t-36.5 -6.5q-28 3 -44 19.5t-23 32l-7 15.5q0 9 -4.5 36t-12.5 54q-5 0 -16 -3t-26.5 -9
t-32 -16t-32.5 -25q-16 -19 -31 -40t-26 -49t-17 -70q-4 -41 4.5 -72t24.5 -44q14 -8 28.5 -11.5t31 -3.5t34.5 2q26 6 44.5 14t13.5 15q-16 6 -39.5 13.5t-43.5 14.5l-6.5 4t-14.5 11.5t-13 19.5t-2 28q4 19 14 27t19.5 9.5l9.5 1.5q31 5 63.5 -3t61.5 -21.5t49 -26.5
q22 -15 40 -38t25.5 -51t-1 -57.5t-40.5 -58.5q-25 -24 -62 -41.5t-80.5 -25.5t-88.5 -4.5t-87 21.5zM229 681q-18 13 -24 25.5t-6 23t2.5 17l2.5 6.5q13 18 24 31t25 25t36 28q9 8 27.5 11t39 0t36.5 -16l81 -52l7.5 -8t14 -21t4.5 -29t-21 -33q-13 -12 -28 -14.5t-28.5 0
t-22 5.5l-8.5 3l-41 33q-12 -10 -26 -21.5t-25 -20.5l-10.5 -3t-26.5 -2.5t-33 12.5z" />
    <glyph glyph-name="gcircumflex" unicode="&#x11d;" horiz-adv-x="686" 
d="M403 -214q-70 -4 -132 9.5t-116 39.5l-11 6t-24 18.5t-19.5 30.5t1.5 42t23 34.5t31 12t27.5 0l11.5 -1.5q35 -9 59 -15.5t45 -9.5t44 -5q47 2 72.5 15.5t35 40t8.5 67.5q4 68 3.5 116.5t-4 88.5t-8 82.5t-9.5 97.5l6.5 11t23.5 21.5t50 10.5q33 1 55.5 -14t33.5 -29.5
l11 -14.5q18 -74 26 -140.5t8.5 -138t-3.5 -161.5q-10 -101 -69.5 -154.5t-179.5 -59.5zM294 -1q-55 -1 -102.5 17.5t-84 52.5t-56.5 78.5t-20 94.5q1 59 21.5 106t56 80.5t83 51.5t102.5 19q86 1 142.5 -25.5t84.5 -82t28 -141.5q0 -50 -13.5 -94.5t-43 -79t-78.5 -55
t-120 -22.5zM301 167q17 0 32 7.5t26.5 21t18.5 30.5t7 36q0 32 -10 52t-26.5 30t-38.5 10q-16 0 -30.5 -9t-25.5 -23.5t-17 -32.5t-6 -37q0 -24 8.5 -43.5t24.5 -30.5t37 -11zM199 539q-18 13 -24 25.5t-6 23t2.5 17l2.5 6.5q13 18 24 31t25 25t36 28q9 8 27.5 11t39 0
t36.5 -16l81 -52l7.5 -8t14 -21t4.5 -29t-21 -33q-13 -12 -28 -14.5t-28.5 0t-22 5.5l-8.5 3l-41 33q-12 -10 -26 -21.5t-25 -20.5l-10.5 -3t-26.5 -2.5t-33 12.5z" />
    <glyph glyph-name="Gbreve" unicode="&#x11e;" horiz-adv-x="602" 
d="M209 12q-31 11 -62.5 33t-58 56.5t-42.5 83.5t-16 114q8 61 23 115.5t48 102.5t93 88q72 44 141.5 45t133.5 -33q32 -18 54.5 -46.5t35 -62t13 -67.5t-13.5 -64l-6 -9t-19.5 -17.5t-36.5 -6.5q-28 3 -44 19.5t-23 32l-7 15.5q0 9 -4.5 36t-12.5 54q-5 0 -16 -3t-26.5 -9
t-32 -16t-32.5 -25q-16 -19 -31 -40t-26 -49t-17 -70q-4 -41 4.5 -72t24.5 -44q14 -8 28.5 -11.5t31 -3.5t34.5 2q26 6 44.5 14t13.5 15q-16 6 -39.5 13.5t-43.5 14.5l-6.5 4t-14.5 11.5t-13 19.5t-2 28q4 19 14 27t19.5 9.5l9.5 1.5q31 5 63.5 -3t61.5 -21.5t49 -26.5
q22 -15 40 -38t25.5 -51t-1 -57.5t-40.5 -58.5q-25 -24 -62 -41.5t-80.5 -25.5t-88.5 -4.5t-87 21.5zM375 667q-21 -3 -50 1t-56.5 16t-46.5 33q-20 20 -28.5 46.5t-3.5 52t23 41.5l7.5 6t21.5 11t34 1q29 -4 42 -18t16.5 -26.5l3.5 -12.5q1 -4 1 -7.5t-1 -8.5q0 -4 3.5 -6
t10.5 1q6 2 6 6.5v7.5q0 4 1 10t3 13l5.5 9t20 18t39.5 9q31 0 49 -12t26.5 -24l8.5 -12q6 -16 5 -37t-6 -33q-19 -37 -51 -60t-84 -25z" />
    <glyph glyph-name="gbreve" unicode="&#x11f;" horiz-adv-x="686" 
d="M403 -214q-70 -4 -132 9.5t-116 39.5l-11 6t-24 18.5t-19.5 30.5t1.5 42t23 34.5t31 12t27.5 0l11.5 -1.5q35 -9 59 -15.5t45 -9.5t44 -5q47 2 72.5 15.5t35 40t8.5 67.5q4 68 3.5 116.5t-4 88.5t-8 82.5t-9.5 97.5l6.5 11t23.5 21.5t50 10.5q33 1 55.5 -14t33.5 -29.5
l11 -14.5q18 -74 26 -140.5t8.5 -138t-3.5 -161.5q-10 -101 -69.5 -154.5t-179.5 -59.5zM294 -1q-55 -1 -102.5 17.5t-84 52.5t-56.5 78.5t-20 94.5q1 59 21.5 106t56 80.5t83 51.5t102.5 19q86 1 142.5 -25.5t84.5 -82t28 -141.5q0 -50 -13.5 -94.5t-43 -79t-78.5 -55
t-120 -22.5zM301 167q17 0 32 7.5t26.5 21t18.5 30.5t7 36q0 32 -10 52t-26.5 30t-38.5 10q-16 0 -30.5 -9t-25.5 -23.5t-17 -32.5t-6 -37q0 -24 8.5 -43.5t24.5 -30.5t37 -11zM345 525q-21 -3 -50 1t-56.5 16t-46.5 33q-20 20 -28.5 46.5t-3.5 52t23 41.5l7.5 6t21.5 11
t34 1q29 -4 42 -18t16.5 -26.5l3.5 -12.5q1 -4 1 -7.5t-1 -8.5q0 -4 3.5 -6t10.5 1q6 2 6 6.5v7.5q0 4 1 10t3 13l5.5 9t20 18t39.5 9q31 0 49 -12t26.5 -24l8.5 -12q6 -16 5 -37t-6 -33q-19 -37 -51 -60t-84 -25z" />
    <glyph glyph-name="Gdotaccent" unicode="&#x120;" horiz-adv-x="602" 
d="M209 12q-31 11 -62.5 33t-58 56.5t-42.5 83.5t-16 114q8 61 23 115.5t48 102.5t93 88q72 44 141.5 45t133.5 -33q32 -18 54.5 -46.5t35 -62t13 -67.5t-13.5 -64l-6 -9t-19.5 -17.5t-36.5 -6.5q-28 3 -44 19.5t-23 32l-7 15.5q0 9 -4.5 36t-12.5 54q-5 0 -16 -3t-26.5 -9
t-32 -16t-32.5 -25q-16 -19 -31 -40t-26 -49t-17 -70q-4 -41 4.5 -72t24.5 -44q14 -8 28.5 -11.5t31 -3.5t34.5 2q26 6 44.5 14t13.5 15q-16 6 -39.5 13.5t-43.5 14.5l-6.5 4t-14.5 11.5t-13 19.5t-2 28q4 19 14 27t19.5 9.5l9.5 1.5q31 5 63.5 -3t61.5 -21.5t49 -26.5
q22 -15 40 -38t25.5 -51t-1 -57.5t-40.5 -58.5q-25 -24 -62 -41.5t-80.5 -25.5t-88.5 -4.5t-87 21.5zM349 664q-28 0 -51 11.5t-36.5 31.5t-13.5 44t13.5 44t36.5 31.5t51 11.5q29 0 52 -11.5t36.5 -31.5t13.5 -44q0 -32 -13.5 -51t-36.5 -27.5t-52 -8.5z" />
    <glyph glyph-name="gdotaccent" unicode="&#x121;" horiz-adv-x="686" 
d="M403 -214q-70 -4 -132 9.5t-116 39.5l-11 6t-24 18.5t-19.5 30.5t1.5 42t23 34.5t31 12t27.5 0l11.5 -1.5q35 -9 59 -15.5t45 -9.5t44 -5q47 2 72.5 15.5t35 40t8.5 67.5q4 68 3.5 116.5t-4 88.5t-8 82.5t-9.5 97.5l6.5 11t23.5 21.5t50 10.5q33 1 55.5 -14t33.5 -29.5
l11 -14.5q18 -74 26 -140.5t8.5 -138t-3.5 -161.5q-10 -101 -69.5 -154.5t-179.5 -59.5zM294 -1q-55 -1 -102.5 17.5t-84 52.5t-56.5 78.5t-20 94.5q1 59 21.5 106t56 80.5t83 51.5t102.5 19q86 1 142.5 -25.5t84.5 -82t28 -141.5q0 -50 -13.5 -94.5t-43 -79t-78.5 -55
t-120 -22.5zM301 167q17 0 32 7.5t26.5 21t18.5 30.5t7 36q0 32 -10 52t-26.5 30t-38.5 10q-16 0 -30.5 -9t-25.5 -23.5t-17 -32.5t-6 -37q0 -24 8.5 -43.5t24.5 -30.5t37 -11zM319 522q-28 0 -51 11.5t-36.5 31.5t-13.5 44t13.5 44t36.5 31.5t51 11.5q29 0 52 -11.5
t36.5 -31.5t13.5 -44q0 -32 -13.5 -51t-36.5 -27.5t-52 -8.5z" />
    <glyph glyph-name="uni0122" unicode="&#x122;" horiz-adv-x="602" 
d="M209 12q-31 11 -62.5 33t-58 56.5t-42.5 83.5t-16 114q8 61 23 115.5t48 102.5t93 88q72 44 141.5 45t133.5 -33q32 -18 54.5 -46.5t35 -62t13 -67.5t-13.5 -64l-6 -9t-19.5 -17.5t-36.5 -6.5q-28 3 -44 19.5t-23 32l-7 15.5q0 9 -4.5 36t-12.5 54q-5 0 -16 -3t-26.5 -9
t-32 -16t-32.5 -25q-16 -19 -31 -40t-26 -49t-17 -70q-4 -41 4.5 -72t24.5 -44q14 -8 28.5 -11.5t31 -3.5t34.5 2q26 6 44.5 14t13.5 15q-16 6 -39.5 13.5t-43.5 14.5l-6.5 4t-14.5 11.5t-13 19.5t-2 28q4 19 14 27t19.5 9.5l9.5 1.5q31 5 63.5 -3t61.5 -21.5t49 -26.5
q22 -15 40 -38t25.5 -51t-1 -57.5t-40.5 -58.5q-25 -24 -62 -41.5t-80.5 -25.5t-88.5 -4.5t-87 21.5zM297 -264q-26 9 -36.5 24.5t-12 28.5l-1.5 13l6 33q-19 27 -16.5 55t22 49t49.5 26q39 2 64 -8t38.5 -26t19.5 -32t7 -28q0 -22 -7.5 -46t-19.5 -43.5t-28 -29.5
l-10.5 -7.5t-29.5 -12t-45 3.5z" />
    <glyph glyph-name="uni0123" unicode="&#x123;" horiz-adv-x="686" 
d="M403 -214q-70 -4 -132 9.5t-116 39.5l-11 6t-24 18.5t-19.5 30.5t1.5 42t23 34.5t31 12t27.5 0l11.5 -1.5q35 -9 59 -15.5t45 -9.5t44 -5q47 2 72.5 15.5t35 40t8.5 67.5q4 68 3.5 116.5t-4 88.5t-8 82.5t-9.5 97.5l6.5 11t23.5 21.5t50 10.5q33 1 55.5 -14t33.5 -29.5
l11 -14.5q18 -74 26 -140.5t8.5 -138t-3.5 -161.5q-10 -101 -69.5 -154.5t-179.5 -59.5zM294 -1q-55 -1 -102.5 17.5t-84 52.5t-56.5 78.5t-20 94.5q1 59 21.5 106t56 80.5t83 51.5t102.5 19q86 1 142.5 -25.5t84.5 -82t28 -141.5q0 -50 -13.5 -94.5t-43 -79t-78.5 -55
t-120 -22.5zM301 167q17 0 32 7.5t26.5 21t18.5 30.5t7 36q0 32 -10 52t-26.5 30t-38.5 10q-16 0 -30.5 -9t-25.5 -23.5t-17 -32.5t-6 -37q0 -24 8.5 -43.5t24.5 -30.5t37 -11zM303 617q-26 8 -36.5 23.5t-12 28.5l-1.5 13l6 34q-19 26 -16.5 54t22 49t49.5 26q39 2 64 -8
t38.5 -26t19.5 -32t7 -28q0 -21 -7.5 -45.5t-19.5 -44t-28 -29.5l-10.5 -7.5t-29.5 -11.5t-45 4z" />
    <glyph glyph-name="Hcircumflex" unicode="&#x124;" horiz-adv-x="649" 
d="M137 5q-32 0 -51 13t-29 29.5t-13 29l-3 12.5q-4 43 -6.5 91t-3.5 99t0.5 103t4.5 103t7 99l2 10.5t9.5 23.5t24.5 23t47 10q33 -1 53 -12t30 -27.5t14 -32.5t4 -27v-11q-4 -41 -6 -86t-2.5 -92.5t0 -96.5t2.5 -97.5t4 -94.5l-1.5 -10.5t-9.5 -24.5t-26 -24.5t-51 -9.5z
M116 192l13 170l372 27l4 -173zM528 5q-32 0 -51 13t-29 29.5t-13 29l-3 12.5q-4 43 -6.5 91t-3.5 99t0.5 103t4.5 103t7 99l2 10.5t9.5 23.5t24.5 23t47 10q33 -1 52.5 -12t30 -27.5t14.5 -32.5t4 -27v-11q-4 -41 -6 -86t-2.5 -92.5t0 -96.5t2.5 -97.5t4 -94.5l-1.5 -10.5
t-9.5 -24.5t-26 -24.5t-51 -9.5zM212 681q-18 13 -24 25.5t-6 23t2.5 17l2.5 6.5q13 18 24 31t25 25t36 28q9 8 27.5 11t39 0t36.5 -16l81 -52l7.5 -8t14 -21t4.5 -29t-21 -33q-13 -12 -28 -14.5t-28.5 0t-22 5.5l-8.5 3l-41 33q-12 -10 -26 -21.5t-25 -20.5l-10.5 -3
t-26.5 -2.5t-33 12.5z" />
    <glyph glyph-name="hcircumflex" unicode="&#x125;" horiz-adv-x="617" 
d="M462 9q-28 6 -44.5 20.5t-24.5 29.5t-10.5 26l-2.5 11q5 42 9 71t4.5 55t-7.5 57q-5 13 -13 30t-17 17q-34 -5 -57 -27.5t-38.5 -55t-25 -67.5t-15.5 -65.5t-11 -49.5q-8 -18 -16.5 -13t-16 26.5t-14 50.5t-10 59t-4.5 53.5t1 31.5l-51 26l44 68q22 46 48 71.5t53 37.5
t54 15t52 4q49 -3 96 -30t82 -71t49 -98q14 -60 10 -117.5t-17 -125.5l-5.5 -8.5t-18 -18t-33 -14.5t-50.5 1zM146 -1q-32 0 -52.5 12.5t-32 29.5t-16 29.5l-4.5 12.5q-4 43 -6.5 92.5t-3.5 102t0.5 106t4.5 106t7 101.5l3 10t12.5 22.5t27 21t47.5 5.5q32 -3 50.5 -16.5
t27.5 -29.5t12 -28l3 -12q-1 -38 -2.5 -84.5t-2.5 -97.5t-1 -104.5t1 -106.5t4 -102l-2 -10.5t-9 -24.5t-23 -24.5t-45 -10.5zM220 669q-18 13 -24 25.5t-6 23t2.5 17l2.5 6.5q13 18 24 31t25 25t36 28q9 8 27.5 11t39 0t36.5 -16l81 -52l7.5 -8t14 -21t4.5 -29t-21 -33
q-13 -12 -28 -14.5t-28.5 0t-22 5.5l-8.5 3l-41 33q-12 -10 -26 -21.5t-25 -20.5l-10.5 -3t-26.5 -2.5t-33 12.5z" />
    <glyph glyph-name="Hbar" unicode="&#x126;" horiz-adv-x="649" 
d="M137 5q-32 0 -51 13t-29 29.5t-13 29l-3 12.5q-4 43 -6.5 91t-3.5 99t0.5 103t4.5 103t7 99l2 10.5t9.5 23.5t24.5 23t47 10q33 -1 53 -12t30 -27.5t14 -32.5t4 -27v-11q-4 -41 -6 -86t-2.5 -92.5t0 -96.5t2.5 -97.5t4 -94.5l-1.5 -10.5t-9.5 -24.5t-26 -24.5t-51 -9.5z
M116 192l13 170l372 27l4 -173zM528 5q-32 0 -51 13t-29 29.5t-13 29l-3 12.5q-4 43 -6.5 91t-3.5 99t0.5 103t4.5 103t7 99l2 10.5t9.5 23.5t24.5 23t47 10q33 -1 52.5 -12t30 -27.5t14.5 -32.5t4 -27v-11q-4 -41 -6 -86t-2.5 -92.5t0 -96.5t2.5 -97.5t4 -94.5l-1.5 -10.5
t-9.5 -24.5t-26 -24.5t-51 -9.5zM452 438q-42 3 -66 5t-39 3t-28.5 1t-33 -1t-54.5 -3l-10.5 0.5t-26 4.5t-29.5 16t-21 34q-8 24 -4.5 39t12 24t16 12.5l7.5 3.5q29 7 57 13.5t58.5 11t69 3.5t88.5 -9l11.5 -5t27 -15.5t27 -25.5t11.5 -36q0 -27 -11 -42.5t-25.5 -22.5
t-25.5 -9z" />
    <glyph glyph-name="hbar" unicode="&#x127;" horiz-adv-x="617" 
d="M462 9q-28 6 -44.5 20.5t-24.5 29.5t-10.5 26l-2.5 11q5 42 9 71t4.5 55t-7.5 57q-5 13 -13 30t-17 17q-34 -5 -57 -27.5t-38.5 -55t-25 -67.5t-15.5 -65.5t-11 -49.5q-8 -18 -16.5 -13t-16 26.5t-14 50.5t-10 59t-4.5 53.5t1 31.5l-51 26l44 68q22 46 48 71.5t53 37.5
t54 15t52 4q49 -3 96 -30t82 -71t49 -98q14 -60 10 -117.5t-17 -125.5l-5.5 -8.5t-18 -18t-33 -14.5t-50.5 1zM146 -1q-32 0 -52.5 12.5t-32 29.5t-16 29.5l-4.5 12.5q-4 43 -6.5 92.5t-3.5 102t0.5 106t4.5 106t7 101.5l3 10t12.5 22.5t27 21t47.5 5.5q32 -3 50.5 -16.5
t27.5 -29.5t12 -28l3 -12q-1 -38 -2.5 -84.5t-2.5 -97.5t-1 -104.5t1 -106.5t4 -102l-2 -10.5t-9 -24.5t-23 -24.5t-45 -10.5zM324 551q0 -21 -9 -33.5t-20 -18.5t-20 -7.5l-9 -1.5q-33 2 -58.5 4t-46.5 3t-41 1t-42 -0.5t-49 -2.5h-8.5t-20 3.5t-22.5 12.5t-17 27
q-6 19 -3.5 31t9 19t12.5 10l6 3q19 4 43 8.5t51.5 7.5t58 4.5t62.5 0t63 -6.5l9 -4t21.5 -12t21.5 -20t9 -28z" />
    <glyph glyph-name="Itilde" unicode="&#x128;" horiz-adv-x="258" 
d="M137 5q-32 0 -51 13t-29 29.5t-13 29l-3 12.5q-4 43 -6.5 91t-3.5 99t0.5 103t4.5 103t7 99l2 10.5t9.5 23.5t24.5 23t47 10q33 -1 53 -12t30 -27.5t14 -32.5t4 -27v-11q-4 -41 -6 -86t-2.5 -92.5t0 -96.5t2.5 -97.5t4 -94.5l-1.5 -10.5t-9.5 -24.5t-26 -24.5t-51 -9.5z
M37 672q-16 -7 -32 -3.5t-26 10l-10 6.5q-24 20 -28.5 44t4.5 47t28.5 38.5t43.5 18.5q39 5 65 -0.5t47 -16.5t45 -24q3 0 4.5 5.5t5.5 10.5l7.5 7.5t24 12.5t41.5 -2q27 -7 39.5 -20t16.5 -25.5t3 -21.5l-1 -9q-1 -16 -19 -41.5t-50 -34.5q-20 -6 -40 -6.5t-39.5 4
t-41.5 13.5q-12 4 -24 10.5t-21.5 13t-14.5 9.5l-0.5 -8.5t-6 -19t-21.5 -18.5z" />
    <glyph glyph-name="itilde" unicode="&#x129;" horiz-adv-x="254" 
d="M136 1q-27 2 -45 12.5t-29 24.5t-15.5 24l-4.5 10q-6 54 -8.5 96t-2.5 80.5t2.5 83.5t7.5 105l2.5 10t10.5 22.5t26 22t48 8.5q33 -1 52 -14t28.5 -29.5t12.5 -29l3 -12.5q-3 -48 -4.5 -87t-1.5 -77t1 -81.5t4 -99.5l-2 -11t-10 -25.5t-25.5 -24.5t-49.5 -8zM44 530
q-16 -7 -32 -3.5t-26 10l-10 6.5q-24 20 -28.5 44t4.5 47t28.5 38.5t43.5 18.5q39 5 65 -0.5t47 -16.5t45 -24q3 0 4.5 5.5t5.5 10.5l7.5 7.5t24 12.5t41.5 -2q27 -7 39.5 -20t16.5 -25.5t3 -21.5l-1 -9q-1 -16 -19 -41.5t-50 -34.5q-20 -6 -40 -6.5t-39.5 4t-41.5 13.5
q-12 4 -24 10.5t-21.5 13t-14.5 9.5l-0.5 -8.5t-6 -19t-21.5 -18.5z" />
    <glyph glyph-name="Imacron" unicode="&#x12a;" horiz-adv-x="258" 
d="M137 5q-32 0 -51 13t-29 29.5t-13 29l-3 12.5q-4 43 -6.5 91t-3.5 99t0.5 103t4.5 103t7 99l2 10.5t9.5 23.5t24.5 23t47 10q33 -1 53 -12t30 -27.5t14 -32.5t4 -27v-11q-4 -41 -6 -86t-2.5 -92.5t0 -96.5t2.5 -97.5t4 -94.5l-1.5 -10.5t-9.5 -24.5t-26 -24.5t-51 -9.5z
M320 744q0 -27 -11 -42.5t-25.5 -22.5t-25.5 -9l-11 -2q-42 3 -66 5t-39 3t-28.5 1t-33 -1t-54.5 -3l-10.5 0.5t-26 4.5t-29.5 16t-21 34q-8 24 -4.5 39t12 24t16 12.5l7.5 3.5q29 7 57 13.5t58.5 11t69 3.5t88.5 -9l11.5 -5t27 -15.5t27 -25.5t11.5 -36z" />
    <glyph glyph-name="imacron" unicode="&#x12b;" horiz-adv-x="254" 
d="M136 1q-27 2 -45 12.5t-29 24.5t-15.5 24l-4.5 10q-6 54 -8.5 96t-2.5 80.5t2.5 83.5t7.5 105l2.5 10t10.5 22.5t26 22t48 8.5q33 -1 52 -14t28.5 -29.5t12.5 -29l3 -12.5q-3 -48 -4.5 -87t-1.5 -77t1 -81.5t4 -99.5l-2 -11t-10 -25.5t-25.5 -24.5t-49.5 -8zM327 602
q0 -27 -11 -42.5t-25.5 -22.5t-25.5 -9l-11 -2q-42 3 -66 5t-39 3t-28.5 1t-33 -1t-54.5 -3l-10.5 0.5t-26 4.5t-29.5 16t-21 34q-8 24 -4.5 39t12 24t16 12.5l7.5 3.5q29 7 57 13.5t58.5 11t69 3.5t88.5 -9l11.5 -5t27 -15.5t27 -25.5t11.5 -36z" />
    <glyph glyph-name="Iogonek" unicode="&#x12e;" horiz-adv-x="258" 
d="M137 5q-32 0 -51 13t-29 29.5t-13 29l-3 12.5q-4 43 -6.5 91t-3.5 99t0.5 103t4.5 103t7 99l2 10.5t9.5 23.5t24.5 23t47 10q33 -1 53 -12t30 -27.5t14 -32.5t4 -27v-11q-4 -41 -6 -86t-2.5 -92.5t0 -96.5t2.5 -97.5t4 -94.5l-1.5 -10.5t-9.5 -24.5t-26 -24.5t-51 -9.5z
M152 -170q-47 -2 -76.5 15.5t-42.5 43t-13 46.5q1 14 6.5 34.5t23.5 42.5t56 40l11 3.5t26.5 3t30.5 -12.5q13 -10 16 -21t0 -20t-6.5 -14.5l-3.5 -5.5q-16 -16 -23 -23.5t-12 -20.5q0 -1 -2 -7t-2 -11t5 -3q13 5 22 10t17 10l14.5 5.5t36.5 -7.5q15 -8 17 -20.5t-1.5 -21.5
l-3.5 -9q-16 -22 -40 -40t-56 -17z" />
    <glyph glyph-name="iogonek" unicode="&#x12f;" horiz-adv-x="261" 
d="M136 1q-27 2 -45 12.5t-29 24.5t-15.5 24l-4.5 10q-6 54 -8.5 96t-2.5 80.5t2.5 83.5t7.5 105l2.5 10t10.5 22.5t26 22t48 8.5q33 -1 52 -14t28.5 -29.5t12.5 -29l3 -12.5q-3 -48 -4.5 -87t-1.5 -77t1 -81.5t4 -99.5l-2 -11t-10 -25.5t-25.5 -24.5t-49.5 -8zM135 511
q-44 -1 -70.5 25.5t-26.5 63.5q0 53 26 72.5t70 19.5t70.5 -27.5t26.5 -64.5q0 -24 -8 -44t-29 -32t-59 -13zM137 -174q-47 -2 -76.5 15.5t-42.5 43t-13 46.5q1 14 6.5 34.5t23.5 42.5t56 40l11 3.5t26.5 3t30.5 -12.5q13 -10 16 -21t0 -20t-6.5 -14.5l-3.5 -5.5
q-16 -16 -23 -23.5t-12 -20.5q0 -1 -2 -7t-2 -11t5 -3q13 5 22 10t17 10l14.5 5.5t36.5 -7.5q15 -8 17 -20.5t-1.5 -21.5l-3.5 -9q-16 -22 -40 -40t-56 -17z" />
    <glyph glyph-name="Idotaccent" unicode="&#x130;" horiz-adv-x="258" 
d="M137 5q-32 0 -51 13t-29 29.5t-13 29l-3 12.5q-4 43 -6.5 91t-3.5 99t0.5 103t4.5 103t7 99l2 10.5t9.5 23.5t24.5 23t47 10q33 -1 53 -12t30 -27.5t14 -32.5t4 -27v-11q-4 -41 -6 -86t-2.5 -92.5t0 -96.5t2.5 -97.5t4 -94.5l-1.5 -10.5t-9.5 -24.5t-26 -24.5t-51 -9.5z
M127 664q-28 0 -51 11.5t-36.5 31.5t-13.5 44t13.5 44t36.5 31.5t51 11.5q29 0 52 -11.5t36.5 -31.5t13.5 -44q0 -32 -13.5 -51t-36.5 -27.5t-52 -8.5z" />
    <glyph glyph-name="dotlessi" unicode="&#x131;" horiz-adv-x="254" 
d="M136 1q-27 2 -45 12.5t-29 24.5t-15.5 24l-4.5 10q-6 54 -8.5 96t-2.5 80.5t2.5 83.5t7.5 105l2.5 10t10.5 22.5t26 22t48 8.5q33 -1 52 -14t28.5 -29.5t12.5 -29l3 -12.5q-3 -48 -4.5 -87t-1.5 -77t1 -81.5t4 -99.5l-2 -11t-10 -25.5t-25.5 -24.5t-49.5 -8z" />
    <glyph glyph-name="Jcircumflex" unicode="&#x134;" horiz-adv-x="521" 
d="M260 2q-33 2 -73.5 15t-79 38t-64.5 61l-4.5 8.5t-7.5 21.5t1 29t20 31q18 17 37.5 21.5t36 1.5t27 -7.5l10.5 -4.5q17 -7 26.5 -16t16 -17t14.5 -13.5t23 -5.5q24 5 36.5 35t15.5 69q1 34 -1.5 73t-6 91.5t-8.5 124.5l0.5 13.5t7 31t23.5 32t50 16.5q36 -1 57.5 -16.5
t33 -36t15.5 -36l4 -15.5q6 -76 11 -129t7.5 -90t2.5 -64.5t-2 -53.5q-8 -62 -40.5 -110t-81.5 -74t-107 -24zM240 681q-18 13 -24 25.5t-6 23t2.5 17l2.5 6.5q13 18 24 31t25 25t36 28q9 8 27.5 11t39 0t36.5 -16l81 -52l7.5 -8t14 -21t4.5 -29t-21 -33q-13 -12 -28 -14.5
t-28.5 0t-22 5.5l-8.5 3l-41 33q-12 -10 -26 -21.5t-25 -20.5l-10.5 -3t-26.5 -2.5t-33 12.5z" />
    <glyph glyph-name="jcircumflex" unicode="&#x135;" horiz-adv-x="261" 
d="M13 539q-18 13 -24 25.5t-6 23t2.5 17l2.5 6.5q13 18 24 31t25 25t36 28q9 8 27.5 11t39 0t36.5 -16l81 -52l7.5 -8t14 -21t4.5 -29t-21 -33q-13 -12 -28 -14.5t-28.5 0t-22 5.5l-8.5 3l-41 33q-12 -10 -26 -21.5t-25 -20.5l-10.5 -3.5t-26.5 -2.5t-33 13zM136 -176
q-27 2 -45 12.5t-29 24.5t-15.5 24l-4.5 10q-4 43 -7 96t-4 111t0 116.5t3.5 114.5t6.5 104l2.5 10t10.5 22.5t26 22t48 8.5q33 -1 52 -14t28.5 -29.5t12.5 -29l3 -12.5q-2 -38 -3.5 -88.5t-2 -107t-0.5 -115t1.5 -112.5t3.5 -99l-2 -11t-10 -25.5t-25.5 -24.5t-49.5 -8z
" />
    <glyph glyph-name="uni0136" unicode="&#x136;" horiz-adv-x="573" 
d="M454 0q-28 -6 -50 1.5t-37 19.5t-22.5 22l-7.5 10q-26 50 -48.5 77.5t-44.5 42t-47.5 23.5t-58.5 22l4 173q62 21 102 47.5t65 55t38.5 54.5t20.5 46l5 9.5t17 20.5t32 17t50 -1q32 -7 47.5 -25t19.5 -37t3 -33l-1 -14q-3 -39 -18.5 -74t-37 -64t-45 -51.5t-43 -37
t-30.5 -19.5q41 -26 72 -64.5t51.5 -75t27.5 -56.5l2 -11t-1.5 -27t-18 -30.5t-46.5 -20.5zM137 5q-32 0 -51 13t-29 29.5t-13 29l-3 12.5q-4 43 -6.5 91t-3.5 99t0.5 103t4.5 103t7 99l2 10.5t9.5 23.5t24.5 23t47 10q33 -1 53 -12t30 -27.5t14 -32.5t4 -27v-11
q-4 -41 -6 -86t-2.5 -92.5t0 -96.5t2.5 -97.5t4 -94.5l-1.5 -10.5t-9.5 -24.5t-26 -24.5t-51 -9.5zM250 -276q-26 9 -36.5 24.5t-12 28.5l-1.5 13l6 33q-19 27 -16.5 55t22 49t49.5 26q39 2 64 -8t38.5 -26t19.5 -32t7 -28q0 -22 -7.5 -46t-19.5 -43.5t-28 -29.5l-10.5 -7.5
t-29.5 -12t-45 3.5z" />
    <glyph glyph-name="uni0137" unicode="&#x137;" horiz-adv-x="530" 
d="M449 14q-27 -9 -49.5 -5.5t-38.5 13.5t-24.5 18.5l-8.5 8.5q-27 33 -44 53.5t-28 32.5t-20 19.5t-19 13.5t-26 14l-39 190q57 4 94.5 22t60 39.5t35.5 34.5l8.5 6.5t23.5 12.5t35.5 5t45.5 -15q25 -15 34 -34t8.5 -37.5t-4 -30.5l-3.5 -12q-13 -29 -35.5 -54.5t-50 -44.5
t-55 -29t-50.5 -9l-3 59q37 -8 70 -31t59.5 -52t44.5 -56.5t26 -43.5l2.5 -10t1 -25t-12.5 -29.5t-38 -23.5zM146 -1q-32 0 -52.5 12.5t-32 29.5t-16 29.5l-4.5 12.5q-4 43 -6.5 92.5t-3.5 102t0.5 106t4.5 106t7 101.5l3 10t12.5 22.5t27 21t47.5 5.5q32 -3 50.5 -16.5
t27.5 -29.5t12 -28l3 -12q-1 -38 -2.5 -84.5t-2.5 -97.5t-1 -104.5t1 -106.5t4 -102l-2 -10.5t-9 -24.5t-23 -24.5t-45 -10.5zM233 -276q-26 9 -36.5 24.5t-12 28.5l-1.5 13l6 33q-19 27 -16.5 55t22 49t49.5 26q39 2 64 -8t38.5 -26t19.5 -32t7 -28q0 -22 -7.5 -46
t-19.5 -43.5t-28 -29.5l-10.5 -7.5t-29.5 -12t-45 3.5z" />
    <glyph glyph-name="Lacute" unicode="&#x139;" horiz-adv-x="547" 
d="M155 2q-36 -2 -58.5 8.5t-34.5 28t-16.5 36t-5.5 32.5q-3 58 -5 103t-3.5 84.5t-1 80.5t3 90t7.5 113l2 11.5t10.5 26.5t27.5 25.5t54 7.5q32 -2 50.5 -15.5t27 -29.5t11 -28l2.5 -12q-1 -122 -4 -219.5t1 -177.5q34 4 59.5 8.5t52 10.5t61.5 12l10 0.5t25.5 -1t32 -6.5
t30 -16t18.5 -30q8 -29 3.5 -49t-13.5 -32t-17 -17.5l-8 -5.5q-49 -9 -89 -17t-77 -13.5t-74.5 -8t-81.5 -0.5zM235 669l-9 -0.5t-21.5 0.5t-25 7t-19.5 19q-12 23 -8.5 41t14.5 30.5t21 19l10 6.5q49 23 76.5 30t46.5 10l9 1t22 0t26 -6t21 -18q9 -15 8.5 -28t-5.5 -22.5
t-10 -15l-5 -5.5q-16 -16 -37.5 -28t-43.5 -20.5t-40.5 -13.5t-29.5 -7z" />
    <glyph glyph-name="lacute" unicode="&#x13a;" horiz-adv-x="256" 
d="M146 -1q-32 0 -52.5 12.5t-32 29.5t-16 29.5l-4.5 12.5q-4 43 -6.5 92.5t-3.5 102t0.5 106t4.5 106t7 101.5l3 10t12.5 22.5t27 21t47.5 5.5q32 -3 50.5 -16.5t27.5 -29.5t12 -28l3 -12q-1 -38 -2.5 -84.5t-2.5 -97.5t-1 -104.5t1 -106.5t4 -102l-2 -10.5t-9 -24.5
t-23 -24.5t-45 -10.5zM90 676l-9 -0.5t-21.5 0.5t-25 7t-19.5 19q-12 23 -8.5 41t14.5 30.5t21 19l10 6.5q49 23 76.5 30t46.5 10l9 1t22 0t26 -6t21 -18q9 -15 8.5 -28t-5.5 -22.5t-10 -15l-5 -5.5q-16 -16 -37.5 -28t-43.5 -20.5t-40.5 -13.5t-29.5 -7z" />
    <glyph glyph-name="uni013B" unicode="&#x13b;" horiz-adv-x="547" 
d="M155 2q-36 -2 -58.5 8.5t-34.5 28t-16.5 36t-5.5 32.5q-3 58 -5 103t-3.5 84.5t-1 80.5t3 90t7.5 113l2 11.5t10.5 26.5t27.5 25.5t54 7.5q32 -2 50.5 -15.5t27 -29.5t11 -28l2.5 -12q-1 -122 -4 -219.5t1 -177.5q34 4 59.5 8.5t52 10.5t61.5 12l10 0.5t25.5 -1t32 -6.5
t30 -16t18.5 -30q8 -29 3.5 -49t-13.5 -32t-17 -17.5l-8 -5.5q-49 -9 -89 -17t-77 -13.5t-74.5 -8t-81.5 -0.5zM241 -275q-26 9 -36.5 24.5t-12 28.5l-1.5 13l6 33q-19 27 -16.5 55t22 49t49.5 26q39 2 64 -8t38.5 -26t19.5 -32t7 -28q0 -22 -7.5 -46t-19.5 -43.5t-28 -29.5
l-10.5 -7.5t-29.5 -12t-45 3.5z" />
    <glyph glyph-name="uni013C" unicode="&#x13c;" horiz-adv-x="256" 
d="M146 -1q-32 0 -52.5 12.5t-32 29.5t-16 29.5l-4.5 12.5q-4 43 -6.5 92.5t-3.5 102t0.5 106t4.5 106t7 101.5l3 10t12.5 22.5t27 21t47.5 5.5q32 -3 50.5 -16.5t27.5 -29.5t12 -28l3 -12q-1 -38 -2.5 -84.5t-2.5 -97.5t-1 -104.5t1 -106.5t4 -102l-2 -10.5t-9 -24.5
t-23 -24.5t-45 -10.5zM114 -277q-26 9 -36.5 24.5t-12 28.5l-1.5 13l6 33q-19 27 -16.5 55t22 49t49.5 26q39 2 64 -8t38.5 -26t19.5 -32t7 -28q0 -22 -7.5 -46t-19.5 -43.5t-28 -29.5l-10.5 -7.5t-29.5 -12t-45 3.5z" />
    <glyph glyph-name="Lcaron" unicode="&#x13d;" horiz-adv-x="547" 
d="M155 2q-36 -2 -58.5 8.5t-34.5 28t-16.5 36t-5.5 32.5q-3 58 -5 103t-3.5 84.5t-1 80.5t3 90t7.5 113l2 11.5t10.5 26.5t27.5 25.5t54 7.5q32 -2 50.5 -15.5t27 -29.5t11 -28l2.5 -12q-1 -122 -4 -219.5t1 -177.5q34 4 59.5 8.5t52 10.5t61.5 12l10 0.5t25.5 -1t32 -6.5
t30 -16t18.5 -30q8 -29 3.5 -49t-13.5 -32t-17 -17.5l-8 -5.5q-49 -9 -89 -17t-77 -13.5t-74.5 -8t-81.5 -0.5zM406 417q-26 8 -36.5 23.5t-12 28.5l-1.5 13l6 34q-19 26 -16.5 54t22 49t49.5 26q39 2 64 -8t38.5 -26t19.5 -32t7 -28q0 -21 -7.5 -45.5t-19.5 -44t-28 -29.5
l-10.5 -7.5t-29.5 -11.5t-45 4z" />
    <glyph glyph-name="lcaron" unicode="&#x13e;" horiz-adv-x="256" 
d="M146 -1q-32 0 -52.5 12.5t-32 29.5t-16 29.5l-4.5 12.5q-4 43 -6.5 92.5t-3.5 102t0.5 106t4.5 106t7 101.5l3 10t12.5 22.5t27 21t47.5 5.5q32 -3 50.5 -16.5t27.5 -29.5t12 -28l3 -12q-1 -38 -2.5 -84.5t-2.5 -97.5t-1 -104.5t1 -106.5t4 -102l-2 -10.5t-9 -24.5
t-23 -24.5t-45 -10.5zM317 417q-26 8 -36.5 23.5t-12 28.5l-1.5 13l6 34q-19 26 -16.5 54t22 49t49.5 26q39 2 64 -8t38.5 -26t19.5 -32t7 -28q0 -21 -7.5 -45.5t-19.5 -44t-28 -29.5l-10.5 -7.5t-29.5 -11.5t-45 4z" />
    <glyph glyph-name="Ldot" unicode="&#x13f;" horiz-adv-x="547" 
d="M155 2q-36 -2 -58.5 8.5t-34.5 28t-16.5 36t-5.5 32.5q-3 58 -5 103t-3.5 84.5t-1 80.5t3 90t7.5 113l2 11.5t10.5 26.5t27.5 25.5t54 7.5q32 -2 50.5 -15.5t27 -29.5t11 -28l2.5 -12q-1 -122 -4 -219.5t1 -177.5q34 4 59.5 8.5t52 10.5t61.5 12l10 0.5t25.5 -1t32 -6.5
t30 -16t18.5 -30q8 -29 3.5 -49t-13.5 -32t-17 -17.5l-8 -5.5q-49 -9 -89 -17t-77 -13.5t-74.5 -8t-81.5 -0.5zM353 306q-28 0 -51 12t-36.5 31.5t-13.5 43.5t13.5 43.5t36.5 31t51 11.5q29 0 52 -11.5t36.5 -31t13.5 -43.5q0 -32 -13.5 -51.5t-36.5 -27.5t-52 -8z" />
    <glyph glyph-name="ldot" unicode="&#x140;" horiz-adv-x="519" 
d="M146 -1q-32 0 -52.5 12.5t-32 29.5t-16 29.5l-4.5 12.5q-4 43 -6.5 92.5t-3.5 102t0.5 106t4.5 106t7 101.5l3 10t12.5 22.5t27 21t47.5 5.5q32 -3 50.5 -16.5t27.5 -29.5t12 -28l3 -12q-1 -38 -2.5 -84.5t-2.5 -97.5t-1 -104.5t1 -106.5t4 -102l-2 -10.5t-9 -24.5
t-23 -24.5t-45 -10.5zM387 238q-28 0 -51 12t-36.5 31.5t-13.5 43.5t13.5 43.5t36.5 31t51 11.5q29 0 52 -11.5t36.5 -31t13.5 -43.5q0 -32 -13.5 -51.5t-36.5 -27.5t-52 -8z" />
    <glyph glyph-name="Lslash" unicode="&#x141;" horiz-adv-x="547" 
d="M155 2q-36 -2 -58.5 8.5t-34.5 28t-16.5 36t-5.5 32.5q-3 58 -5 103t-3.5 84.5t-1 80.5t3 90t7.5 113l2 11.5t10.5 26.5t27.5 25.5t54 7.5q32 -2 50.5 -15.5t27 -29.5t11 -28l2.5 -12q-1 -122 -4 -219.5t1 -177.5q34 4 59.5 8.5t52 10.5t61.5 12l10 0.5t25.5 -1t32 -6.5
t30 -16t18.5 -30q8 -29 3.5 -49t-13.5 -32t-17 -17.5l-8 -5.5q-49 -9 -89 -17t-77 -13.5t-74.5 -8t-81.5 -0.5zM88 172q-2 -2 -10 -9.5t-21 -15t-30.5 -9t-38.5 9.5q-22 12 -30.5 25.5t-9 25.5t2.5 20l3 8q12 20 29.5 45.5t39.5 53.5t48.5 56.5t56 55.5t62.5 51l12 5t30 8.5
t37 1t33 -17.5q19 -19 22.5 -37.5t-1.5 -34t-11.5 -25l-6.5 -9.5q-32 -27 -56.5 -48.5t-44 -39.5t-37.5 -36t-37 -38t-42 -46z" />
    <glyph glyph-name="lslash" unicode="&#x142;" horiz-adv-x="256" 
d="M-15 148q-22 12 -30.5 25.5t-9 25.5t2.5 20l3 8q13 20 30.5 45.5t39 53.5t48 56.5t56 55.5t62.5 51l11.5 4.5t29.5 8.5t37 1.5t34 -17.5q19 -19 22.5 -38t-1.5 -34.5t-11.5 -24.5l-6.5 -9l-56 -49t-44 -39t-38 -36t-37 -38t-42 -46l-7.5 -7.5t-21.5 -15.5t-32 -10t-39 9z
M146 -1q-32 0 -52.5 12.5t-32 29.5t-16 29.5l-4.5 12.5q-4 43 -6.5 92.5t-3.5 102t0.5 106t4.5 106t7 101.5l3 10t12.5 22.5t27 21t47.5 5.5q32 -3 50.5 -16.5t27.5 -29.5t12 -28l3 -12q-1 -38 -2.5 -84.5t-2.5 -97.5t-1 -104.5t1 -106.5t4 -102l-2 -10.5t-9 -24.5
t-23 -24.5t-45 -10.5z" />
    <glyph glyph-name="Nacute" unicode="&#x143;" horiz-adv-x="646" 
d="M134 5q-30 2 -48.5 13.5t-29 26.5t-14 26l-3.5 11q-6 54 -7.5 110t-1 112t2.5 111t4 109l2.5 13t15 29t41.5 25q17 6 36.5 2.5t34 -8.5t15.5 -7q30 -20 68 -57.5t82 -87t91 -105.5q0 27 -1 53t-0.5 55.5t2.5 67t6 88.5l2.5 9t10.5 20.5t25 20t46 7.5q33 -1 52.5 -12
t30 -27.5t14.5 -32.5t4 -27v-11q-4 -40 -6 -84t-2.5 -90t0 -93.5t2 -96.5t4.5 -98l-1 -9.5t-7.5 -22.5t-20 -24.5t-39.5 -15.5q-29 -5 -51.5 6.5t-34.5 24.5l-12 13l-9.5 10t-25 27.5t-36 40t-42.5 47t-44 48.5t-41 45.5t-33 37.5q0 -31 0.5 -61.5t1.5 -70t3 -98.5l-2 -11
t-10.5 -25.5t-26 -25t-48.5 -8.5zM284 669l-9 -0.5t-21.5 0.5t-25 7t-19.5 19q-12 23 -8.5 41t14.5 30.5t21 19l10 6.5q49 23 76.5 30t46.5 10l9 1t22 0t26 -6t21 -18q9 -15 8.5 -28t-5.5 -22.5t-10 -15l-5 -5.5q-16 -16 -37.5 -28t-43.5 -20.5t-40.5 -13.5t-29.5 -7z" />
    <glyph glyph-name="nacute" unicode="&#x144;" horiz-adv-x="619" 
d="M464 7q-33 9 -49 27.5t-21 38.5t-4.5 34.5l0.5 14.5q8 50 6 100.5t-19 80.5q-13 21 -36.5 26t-49.5 -4t-47 -31q-20 -21 -26.5 -48.5t-6.5 -53.5t-2 -42q-1 -21 -1.5 -31t0 -16t-1.5 -17l-0.5 -8.5t-5.5 -20t-19 -20.5t-42 -11q-22 -1 -39.5 11.5t-27.5 25l-10 12.5
q-9 12 -11 24.5t-1.5 32t-1.5 51.5q-6 40 -7 65t2.5 43t12.5 35.5t25 41.5q23 28 57.5 54t75.5 44.5t84 24.5t82 -5q22 -6 50 -18.5t56.5 -36t52.5 -61.5t39 -94q11 -47 11 -91t-10 -109l-3 -14t-14 -30.5t-34 -25.5t-64 1zM136 1q-27 2 -45 12.5t-29 24.5t-15.5 24l-4.5 10
q-6 54 -8.5 96t-2.5 80.5t2.5 83.5t7.5 105l2.5 10t10.5 22.5t26 22t48 8.5q33 -1 52 -14t28.5 -29.5t12.5 -29l3 -12.5q-3 -48 -4.5 -87t-1.5 -77t1 -81.5t4 -99.5l-2 -11t-10 -25.5t-25.5 -24.5t-49.5 -8zM255 527l-9 -0.5t-21.5 0.5t-25 7t-19.5 19q-12 23 -8.5 41
t14.5 30.5t21 19l10 6.5q49 23 76.5 30t46.5 10l9 1t22 0t26 -6t21 -18q9 -15 8.5 -28t-5.5 -22.5t-10 -15l-5 -5.5q-16 -16 -37.5 -28t-43.5 -20.5t-40.5 -13.5t-29.5 -7z" />
    <glyph glyph-name="uni0145" unicode="&#x145;" horiz-adv-x="646" 
d="M134 5q-30 2 -48.5 13.5t-29 26.5t-14 26l-3.5 11q-6 54 -7.5 110t-1 112t2.5 111t4 109l2.5 13t15 29t41.5 25q17 6 36.5 2.5t34 -8.5t15.5 -7q30 -20 68 -57.5t82 -87t91 -105.5q0 27 -1 53t-0.5 55.5t2.5 67t6 88.5l2.5 9t10.5 20.5t25 20t46 7.5q33 -1 52.5 -12
t30 -27.5t14.5 -32.5t4 -27v-11q-4 -40 -6 -84t-2.5 -90t0 -93.5t2 -96.5t4.5 -98l-1 -9.5t-7.5 -22.5t-20 -24.5t-39.5 -15.5q-29 -5 -51.5 6.5t-34.5 24.5l-12 13l-9.5 10t-25 27.5t-36 40t-42.5 47t-44 48.5t-41 45.5t-33 37.5q0 -31 0.5 -61.5t1.5 -70t3 -98.5l-2 -11
t-10.5 -25.5t-26 -25t-48.5 -8.5zM291 -272q-26 9 -36.5 24.5t-12 28.5l-1.5 13l6 33q-19 27 -16.5 55t22 49t49.5 26q39 2 64 -8t38.5 -26t19.5 -32t7 -28q0 -22 -7.5 -46t-19.5 -43.5t-28 -29.5l-10.5 -7.5t-29.5 -12t-45 3.5z" />
    <glyph glyph-name="uni0146" unicode="&#x146;" horiz-adv-x="619" 
d="M464 7q-33 9 -49 27.5t-21 38.5t-4.5 34.5l0.5 14.5q8 50 6 100.5t-19 80.5q-13 21 -36.5 26t-49.5 -4t-47 -31q-20 -21 -26.5 -48.5t-6.5 -53.5t-2 -42q-1 -21 -1.5 -31t0 -16t-1.5 -17l-0.5 -8.5t-5.5 -20t-19 -20.5t-42 -11q-22 -1 -39.5 11.5t-27.5 25l-10 12.5
q-9 12 -11 24.5t-1.5 32t-1.5 51.5q-6 40 -7 65t2.5 43t12.5 35.5t25 41.5q23 28 57.5 54t75.5 44.5t84 24.5t82 -5q22 -6 50 -18.5t56.5 -36t52.5 -61.5t39 -94q11 -47 11 -91t-10 -109l-3 -14t-14 -30.5t-34 -25.5t-64 1zM136 1q-27 2 -45 12.5t-29 24.5t-15.5 24l-4.5 10
q-6 54 -8.5 96t-2.5 80.5t2.5 83.5t7.5 105l2.5 10t10.5 22.5t26 22t48 8.5q33 -1 52 -14t28.5 -29.5t12.5 -29l3 -12.5q-3 -48 -4.5 -87t-1.5 -77t1 -81.5t4 -99.5l-2 -11t-10 -25.5t-25.5 -24.5t-49.5 -8zM281 -276q-26 9 -36.5 24.5t-12 28.5l-1.5 13l6 33
q-19 27 -16.5 55t22 49t49.5 26q39 2 64 -8t38.5 -26t19.5 -32t7 -28q0 -22 -7.5 -46t-19.5 -43.5t-28 -29.5l-10.5 -7.5t-29.5 -12t-45 3.5z" />
    <glyph glyph-name="Ncaron" unicode="&#x147;" horiz-adv-x="646" 
d="M134 5q-30 2 -48.5 13.5t-29 26.5t-14 26l-3.5 11q-6 54 -7.5 110t-1 112t2.5 111t4 109l2.5 13t15 29t41.5 25q17 6 36.5 2.5t34 -8.5t15.5 -7q30 -20 68 -57.5t82 -87t91 -105.5q0 27 -1 53t-0.5 55.5t2.5 67t6 88.5l2.5 9t10.5 20.5t25 20t46 7.5q33 -1 52.5 -12
t30 -27.5t14.5 -32.5t4 -27v-11q-4 -40 -6 -84t-2.5 -90t0 -93.5t2 -96.5t4.5 -98l-1 -9.5t-7.5 -22.5t-20 -24.5t-39.5 -15.5q-29 -5 -51.5 6.5t-34.5 24.5l-12 13l-9.5 10t-25 27.5t-36 40t-42.5 47t-44 48.5t-41 45.5t-33 37.5q0 -31 0.5 -61.5t1.5 -70t3 -98.5l-2 -11
t-10.5 -25.5t-26 -25t-48.5 -8.5zM284 679l-80 51l-7.5 8t-14.5 21t-5 29.5t21 32.5q14 12 29 14.5t28 0t21.5 -5.5l8.5 -3l42 -33q11 11 25.5 22t25.5 20l10.5 3.5t26.5 2.5t32 -13q18 -13 24.5 -25.5t6 -23t-3 -17l-2.5 -6.5q-12 -18 -23 -31t-25 -25t-36 -28
q-9 -7 -27.5 -10.5t-39.5 0t-37 16.5z" />
    <glyph glyph-name="ncaron" unicode="&#x148;" horiz-adv-x="619" 
d="M464 7q-33 9 -49 27.5t-21 38.5t-4.5 34.5l0.5 14.5q8 50 6 100.5t-19 80.5q-13 21 -36.5 26t-49.5 -4t-47 -31q-20 -21 -26.5 -48.5t-6.5 -53.5t-2 -42q-1 -21 -1.5 -31t0 -16t-1.5 -17l-0.5 -8.5t-5.5 -20t-19 -20.5t-42 -11q-22 -1 -39.5 11.5t-27.5 25l-10 12.5
q-9 12 -11 24.5t-1.5 32t-1.5 51.5q-6 40 -7 65t2.5 43t12.5 35.5t25 41.5q23 28 57.5 54t75.5 44.5t84 24.5t82 -5q22 -6 50 -18.5t56.5 -36t52.5 -61.5t39 -94q11 -47 11 -91t-10 -109l-3 -14t-14 -30.5t-34 -25.5t-64 1zM136 1q-27 2 -45 12.5t-29 24.5t-15.5 24l-4.5 10
q-6 54 -8.5 96t-2.5 80.5t2.5 83.5t7.5 105l2.5 10t10.5 22.5t26 22t48 8.5q33 -1 52 -14t28.5 -29.5t12.5 -29l3 -12.5q-3 -48 -4.5 -87t-1.5 -77t1 -81.5t4 -99.5l-2 -11t-10 -25.5t-25.5 -24.5t-49.5 -8zM255 537l-80 51l-7.5 8t-14.5 21t-5 29.5t21 32.5q14 12 29 14.5
t28 0t21.5 -5.5l8.5 -3l42 -33q11 11 25.5 22t25.5 20l10.5 3.5t26.5 2.5t32 -13q18 -13 24.5 -25.5t6 -23t-3 -17l-2.5 -6.5q-12 -18 -23 -31t-25 -25t-36 -28q-9 -7 -27.5 -10.5t-39.5 0t-37 16.5z" />
    <glyph glyph-name="napostrophe" unicode="&#x149;" horiz-adv-x="619" 
d="M464 7q-33 9 -49 27.5t-21 38.5t-4.5 34.5l0.5 14.5q8 50 6 100.5t-19 80.5q-13 21 -36.5 26t-49.5 -4t-47 -31q-20 -21 -26.5 -48.5t-6.5 -53.5t-2 -42q-1 -21 -1.5 -31t0 -16t-1.5 -17l-0.5 -8.5t-5.5 -20t-19 -20.5t-42 -11q-22 -1 -39.5 11.5t-27.5 25l-10 12.5
q-9 12 -11 24.5t-1.5 32t-1.5 51.5q-6 40 -7 65t2.5 43t12.5 35.5t25 41.5q23 28 57.5 54t75.5 44.5t84 24.5t82 -5q22 -6 50 -18.5t56.5 -36t52.5 -61.5t39 -94q11 -47 11 -91t-10 -109l-3 -14t-14 -30.5t-34 -25.5t-64 1zM136 1q-27 2 -45 12.5t-29 24.5t-15.5 24l-4.5 10
q-6 54 -8.5 96t-2.5 80.5t2.5 83.5t7.5 105l2.5 10t10.5 22.5t26 22t48 8.5q33 -1 52 -14t28.5 -29.5t12.5 -29l3 -12.5q-3 -48 -4.5 -87t-1.5 -77t1 -81.5t4 -99.5l-2 -11t-10 -25.5t-25.5 -24.5t-49.5 -8zM338 504q-39 -1 -64 8.5t-38.5 25.5t-19 32t-7.5 28q0 22 7.5 46
t20 44t27.5 29l10.5 7.5t29.5 12t45 -4.5q26 -8 36.5 -23.5t12 -28.5l1.5 -13l-6 -34q20 -26 17 -54t-22.5 -49t-49.5 -26z" />
    <glyph glyph-name="Omacron" unicode="&#x14c;" horiz-adv-x="734" 
d="M308 -7q-63 0 -115.5 23t-90 64.5t-56.5 98t-15 124.5q3 68 26.5 131t64.5 113t98 79.5t127 29.5q51 0 103 -10.5t99 -34.5t83.5 -64t55.5 -98.5t15 -138.5q-3 -64 -28.5 -114.5t-66 -88.5t-91 -63.5t-104.5 -38t-105 -12.5zM344 176q21 0 42 6t40.5 18.5t35.5 31
t26 43.5t11 56q2 42 -9 71t-30.5 46.5t-44.5 25.5t-51 8q-25 0 -48 -13t-40.5 -35.5t-28 -52.5t-12.5 -63q-2 -44 11 -76t38.5 -49t59.5 -17zM540 744q0 -27 -11 -42.5t-25.5 -22.5t-25.5 -9l-11 -2q-42 3 -66 5t-39 3t-28.5 1t-33 -1t-54.5 -3l-10.5 0.5t-26 4.5t-29.5 16
t-21 34q-8 24 -4.5 39t12 24t16 12.5l7.5 3.5q29 7 57 13.5t58.5 11t69 3.5t88.5 -9l11.5 -5t27 -15.5t27 -25.5t11.5 -36z" />
    <glyph glyph-name="omacron" unicode="&#x14d;" horiz-adv-x="607" 
d="M301 -1q-58 0 -107.5 19t-86 52.5t-57 77.5t-20.5 94t19.5 96.5t55 83t84 57.5t106.5 21t109 -15t90 -46t61 -78t22 -111q0 -50 -21 -95.5t-59 -80.5t-88 -55t-108 -20zM297 165q17 0 32.5 7t27.5 20t19 29t7 34q0 31 -10 50.5t-27.5 29t-40.5 9.5q-17 0 -31.5 -8.5
t-25.5 -22.5t-17.5 -31t-6.5 -35q0 -24 9 -42.5t25.5 -29t38.5 -10.5zM488 602q0 -27 -11 -42.5t-25.5 -22.5t-25.5 -9l-11 -2q-42 3 -66 5t-39 3t-28.5 1t-33 -1t-54.5 -3l-10.5 0.5t-26 4.5t-29.5 16t-21 34q-8 24 -4.5 39t12 24t16 12.5l7.5 3.5q29 7 57 13.5t58.5 11
t69 3.5t88.5 -9l11.5 -5t27 -15.5t27 -25.5t11.5 -36z" />
    <glyph glyph-name="Obreve" unicode="&#x14e;" horiz-adv-x="734" 
d="M308 -7q-63 0 -115.5 23t-90 64.5t-56.5 98t-15 124.5q3 68 26.5 131t64.5 113t98 79.5t127 29.5q51 0 103 -10.5t99 -34.5t83.5 -64t55.5 -98.5t15 -138.5q-3 -64 -28.5 -114.5t-66 -88.5t-91 -63.5t-104.5 -38t-105 -12.5zM344 176q21 0 42 6t40.5 18.5t35.5 31
t26 43.5t11 56q2 42 -9 71t-30.5 46.5t-44.5 25.5t-51 8q-25 0 -48 -13t-40.5 -35.5t-28 -52.5t-12.5 -63q-2 -44 11 -76t38.5 -49t59.5 -17zM373 667q-21 -3 -50 1t-56.5 16t-46.5 33q-20 20 -28.5 46.5t-3.5 52t23 41.5l7.5 6t21.5 11t34 1q29 -4 42 -18t16.5 -26.5
l3.5 -12.5q1 -4 1 -7.5t-1 -8.5q0 -4 3.5 -6t10.5 1q6 2 6 6.5v7.5q0 4 1 10t3 13l5.5 9t20 18t39.5 9q31 0 49 -12t26.5 -24l8.5 -12q6 -16 5 -37t-6 -33q-19 -37 -51 -60t-84 -25z" />
    <glyph glyph-name="obreve" unicode="&#x14f;" horiz-adv-x="607" 
d="M301 -1q-58 0 -107.5 19t-86 52.5t-57 77.5t-20.5 94t19.5 96.5t55 83t84 57.5t106.5 21t109 -15t90 -46t61 -78t22 -111q0 -50 -21 -95.5t-59 -80.5t-88 -55t-108 -20zM297 165q17 0 32.5 7t27.5 20t19 29t7 34q0 31 -10 50.5t-27.5 29t-40.5 9.5q-17 0 -31.5 -8.5
t-25.5 -22.5t-17.5 -31t-6.5 -35q0 -24 9 -42.5t25.5 -29t38.5 -10.5zM321 525q-21 -3 -50 1t-56.5 16t-46.5 33q-20 20 -28.5 46.5t-3.5 52t23 41.5l7.5 6t21.5 11t34 1q29 -4 42 -18t16.5 -26.5l3.5 -12.5q1 -4 1 -7.5t-1 -8.5q0 -4 3.5 -6t10.5 1q6 2 6 6.5v7.5q0 4 1 10
t3 13l5.5 9t20 18t39.5 9q31 0 49 -12t26.5 -24l8.5 -12q6 -16 5 -37t-6 -33q-19 -37 -51 -60t-84 -25z" />
    <glyph glyph-name="Ohungarumlaut" unicode="&#x150;" horiz-adv-x="734" 
d="M308 -7q-63 0 -115.5 23t-90 64.5t-56.5 98t-15 124.5q3 68 26.5 131t64.5 113t98 79.5t127 29.5q51 0 103 -10.5t99 -34.5t83.5 -64t55.5 -98.5t15 -138.5q-3 -64 -28.5 -114.5t-66 -88.5t-91 -63.5t-104.5 -38t-105 -12.5zM344 176q21 0 42 6t40.5 18.5t35.5 31
t26 43.5t11 56q2 42 -9 71t-30.5 46.5t-44.5 25.5t-51 8q-25 0 -48 -13t-40.5 -35.5t-28 -52.5t-12.5 -63q-2 -44 11 -76t38.5 -49t59.5 -17zM191 669l-9 -0.5t-21.5 0.5t-25 7t-19.5 19q-12 23 -8.5 41t14.5 30.5t21 19l10 6.5q49 23 76.5 30t46.5 10l9 1t22 0t26 -6
t21 -18q9 -15 8.5 -28t-5.5 -22.5t-10 -15l-5 -5.5q-16 -16 -37.5 -28t-43.5 -20.5t-40.5 -13.5t-29.5 -7zM457 669l-9 -0.5t-21.5 0.5t-25 7t-19.5 19q-12 23 -8.5 41t14.5 30.5t21 19l10 6.5q49 23 76.5 30t46.5 10l9 1t22 0t26 -6t21 -18q9 -15 8.5 -28t-5.5 -22.5
t-10 -15l-5 -5.5q-16 -16 -37.5 -28t-43.5 -20.5t-40.5 -13.5t-29.5 -7z" />
    <glyph glyph-name="ohungarumlaut" unicode="&#x151;" horiz-adv-x="607" 
d="M301 -1q-58 0 -107.5 19t-86 52.5t-57 77.5t-20.5 94t19.5 96.5t55 83t84 57.5t106.5 21t109 -15t90 -46t61 -78t22 -111q0 -50 -21 -95.5t-59 -80.5t-88 -55t-108 -20zM297 165q17 0 32.5 7t27.5 20t19 29t7 34q0 31 -10 50.5t-27.5 29t-40.5 9.5q-17 0 -31.5 -8.5
t-25.5 -22.5t-17.5 -31t-6.5 -35q0 -24 9 -42.5t25.5 -29t38.5 -10.5zM139 527l-9 -0.5t-21.5 0.5t-25 7t-19.5 19q-12 23 -8.5 41t14.5 30.5t21 19l10 6.5q49 23 76.5 30t46.5 10l9 1t22 0t26 -6t21 -18q9 -15 8.5 -28t-5.5 -22.5t-10 -15l-5 -5.5q-16 -16 -37.5 -28
t-43.5 -20.5t-40.5 -13.5t-29.5 -7zM405 527l-9 -0.5t-21.5 0.5t-25 7t-19.5 19q-12 23 -8.5 41t14.5 30.5t21 19l10 6.5q49 23 76.5 30t46.5 10l9 1t22 0t26 -6t21 -18q9 -15 8.5 -28t-5.5 -22.5t-10 -15l-5 -5.5q-16 -16 -37.5 -28t-43.5 -20.5t-40.5 -13.5t-29.5 -7z" />
    <glyph glyph-name="OE" unicode="&#x152;" horiz-adv-x="1079" 
d="M308 -7q-63 0 -115.5 23t-90 64.5t-56.5 98t-15 124.5q3 68 26.5 131t64.5 113t98 79.5t127 29.5q51 0 103 -10.5t99 -34.5t83.5 -64t55.5 -98.5t15 -138.5q-3 -64 -28.5 -114.5t-66 -88.5t-91 -63.5t-104.5 -38t-105 -12.5zM344 176q21 0 42 6t40.5 18.5t35.5 31
t26 43.5t11 56q2 42 -9 71t-30.5 46.5t-44.5 25.5t-51 8q-25 0 -48 -13t-40.5 -35.5t-28 -52.5t-12.5 -63q-2 -44 11 -76t38.5 -49t59.5 -17zM685 2q-42 4 -65 18.5t-32.5 32.5t-12 34.5t-3.5 25.5q-3 71 -5.5 126.5t-2.5 107t3 110.5t10 138q3 14 20 32.5t57 22.5l265 7
l12 -0.5t30.5 -4t37 -12.5t31 -26t13.5 -44t-10 -42.5t-26 -23t-26.5 -9.5l-11.5 -2l-212 10q-2 -51 -3 -86t-1.5 -62t0 -52.5t0.5 -57.5t1 -78q30 5 47.5 7.5t28.5 4.5t22.5 4t28.5 5.5t46 9.5h10t25.5 -2.5t32.5 -9.5t30.5 -19.5t18.5 -32.5q8 -29 2.5 -47.5t-17 -28.5
t-21 -14l-9.5 -4q-46 -10 -82.5 -18t-71.5 -13t-73 -7t-87 0zM609 251l-11 164l279 11l9.5 -2.5t23 -8t27 -15.5t23 -25t9.5 -36q0 -28 -11 -44t-26 -23t-26 -8.5l-11 -1.5z" />
    <glyph glyph-name="oe" unicode="&#x153;" horiz-adv-x="920" 
d="M301 -1q-58 0 -107.5 19t-86 52.5t-57 77.5t-20.5 94t19.5 96.5t55 83t84 57.5t106.5 21t109 -15t90 -46t61 -78t22 -111q0 -50 -21 -95.5t-59 -80.5t-88 -55t-108 -20zM297 165q17 0 32.5 7t27.5 20t19 29t7 34q0 31 -10 50.5t-27.5 29t-40.5 9.5q-17 0 -31.5 -8.5
t-25.5 -22.5t-17.5 -31t-6.5 -35q0 -24 9 -42.5t25.5 -29t38.5 -10.5zM630 -11q-66 13 -107.5 39.5t-64 62t-31 75.5t-9.5 80q-1 53 17.5 100.5t53.5 83.5t83.5 55.5t106.5 15.5q59 -4 99 -23t64 -47t35 -60t12 -62q1 -47 -24.5 -88t-88.5 -57q-16 -4 -36 -5t-41 -1t-41 1.5
t-35.5 3t-25 2.5l-9.5 1q4 -5 12 -15.5t25 -18.5t47 -7q39 2 63 4t37 3.5t17.5 2.5l4.5 1h8.5t22 -2t27.5 -9.5t24 -22.5q12 -17 11 -30.5t-7 -23.5t-12.5 -15l-6.5 -5l-20.5 -9t-54 -19t-74.5 -14.5t-82 3.5zM594 282l103 1l3.5 0.5t9.5 2t11.5 5t9 10t3.5 16.5
q0 16 -6.5 27t-21 16t-40.5 3q-15 -1 -28.5 -10t-24 -22t-16 -26.5t-3.5 -22.5z" />
    <glyph glyph-name="Racute" unicode="&#x154;" horiz-adv-x="578" 
d="M135 5q-33 2 -52.5 15t-29.5 29.5t-13 29l-3 12.5q-2 28 -3.5 70.5t-2.5 94t-0.5 107t2.5 110.5t6 103l1 9.5t8 22.5t24 24.5t48 16.5q123 10 213.5 -1t139.5 -58q49 -46 65.5 -105t1.5 -116.5t-61 -101.5q-19 -19 -47 -34t-62 -24.5t-73 -12t-81 3.5l4 -127l-2.5 -11
t-11.5 -24.5t-25.5 -23.5t-45.5 -9zM382 41q-39 24 -75 44t-77 43.5t-96 55.5q-1 6 13.5 18t36 25.5t43 26t36 20.5l14.5 8q29 -13 48 -21t33.5 -15.5t30 -17t37.5 -24.5t55 -39l6.5 -6t14 -17.5t12 -26t1 -32.5t-20.5 -37q-13 -16 -32 -19t-37.5 0.5t-30.5 8.5zM216 375
q34 -3 57 0t37.5 11.5t21 21t7.5 28.5q0 22 -8.5 36t-24.5 21t-38 9t-48 -1q-3 -32 -4 -63.5t0 -62.5zM232 669l-9 -0.5t-21.5 0.5t-25 7t-19.5 19q-12 23 -8.5 41t14.5 30.5t21 19l10 6.5q49 23 76.5 30t46.5 10l9 1t22 0t26 -6t21 -18q9 -15 8.5 -28t-5.5 -22.5t-10 -15
l-5 -5.5q-16 -16 -37.5 -28t-43.5 -20.5t-40.5 -13.5t-29.5 -7z" />
    <glyph glyph-name="racute" unicode="&#x155;" horiz-adv-x="540" 
d="M123 40q-25 -2 -38.5 14.5t-19 39t-6.5 40l-1 17.5q-8 33 -10.5 52t-1.5 29.5t2.5 17.5t1.5 16q4 59 29 105.5t65 76.5t86 41q63 12 111.5 6t83 -23t54.5 -37l6 -6.5t13.5 -18t10.5 -26.5t-2 -31t-24 -33q-16 -15 -38.5 -15.5t-43 6t-34.5 13l-14 6.5q-12 6 -36 3
t-49 -17q-17 -13 -32 -28.5t-18 -35.5q-2 -21 -4 -40t-3 -37t-1 -38t1 -44l-7 -12t-26 -24.5t-55 -16.5zM136 1q-27 2 -45 12.5t-29 24.5t-15.5 24l-4.5 10q-6 54 -8.5 96t-2.5 80.5t2.5 83.5t7.5 105l2.5 10t10.5 22.5t26 22t48 8.5q33 -1 52 -14t28.5 -29.5t12.5 -29
l3 -12.5q-3 -48 -4.5 -87t-1.5 -77t1 -81.5t4 -99.5l-2 -11t-10 -25.5t-25.5 -24.5t-49.5 -8zM239 527l-9 -0.5t-21.5 0.5t-25 7t-19.5 19q-12 23 -8.5 41t14.5 30.5t21 19l10 6.5q49 23 76.5 30t46.5 10l9 1t22 0t26 -6t21 -18q9 -15 8.5 -28t-5.5 -22.5t-10 -15l-5 -5.5
q-16 -16 -37.5 -28t-43.5 -20.5t-40.5 -13.5t-29.5 -7z" />
    <glyph glyph-name="uni0156" unicode="&#x156;" horiz-adv-x="578" 
d="M135 5q-33 2 -52.5 15t-29.5 29.5t-13 29l-3 12.5q-2 28 -3.5 70.5t-2.5 94t-0.5 107t2.5 110.5t6 103l1 9.5t8 22.5t24 24.5t48 16.5q123 10 213.5 -1t139.5 -58q49 -46 65.5 -105t1.5 -116.5t-61 -101.5q-19 -19 -47 -34t-62 -24.5t-73 -12t-81 3.5l4 -127l-2.5 -11
t-11.5 -24.5t-25.5 -23.5t-45.5 -9zM382 41q-39 24 -75 44t-77 43.5t-96 55.5q-1 6 13.5 18t36 25.5t43 26t36 20.5l14.5 8q29 -13 48 -21t33.5 -15.5t30 -17t37.5 -24.5t55 -39l6.5 -6t14 -17.5t12 -26t1 -32.5t-20.5 -37q-13 -16 -32 -19t-37.5 0.5t-30.5 8.5zM216 375
q34 -3 57 0t37.5 11.5t21 21t7.5 28.5q0 22 -8.5 36t-24.5 21t-38 9t-48 -1q-3 -32 -4 -63.5t0 -62.5zM258 -276q-26 9 -36.5 24.5t-12 28.5l-1.5 13l6 33q-19 27 -16.5 55t22 49t49.5 26q39 2 64 -8t38.5 -26t19.5 -32t7 -28q0 -22 -7.5 -46t-19.5 -43.5t-28 -29.5
l-10.5 -7.5t-29.5 -12t-45 3.5z" />
    <glyph glyph-name="uni0157" unicode="&#x157;" horiz-adv-x="540" 
d="M123 40q-25 -2 -38.5 14.5t-19 39t-6.5 40l-1 17.5q-8 33 -10.5 52t-1.5 29.5t2.5 17.5t1.5 16q4 59 29 105.5t65 76.5t86 41q63 12 111.5 6t83 -23t54.5 -37l6 -6.5t13.5 -18t10.5 -26.5t-2 -31t-24 -33q-16 -15 -38.5 -15.5t-43 6t-34.5 13l-14 6.5q-12 6 -36 3
t-49 -17q-17 -13 -32 -28.5t-18 -35.5q-2 -21 -4 -40t-3 -37t-1 -38t1 -44l-7 -12t-26 -24.5t-55 -16.5zM136 1q-27 2 -45 12.5t-29 24.5t-15.5 24l-4.5 10q-6 54 -8.5 96t-2.5 80.5t2.5 83.5t7.5 105l2.5 10t10.5 22.5t26 22t48 8.5q33 -1 52 -14t28.5 -29.5t12.5 -29
l3 -12.5q-3 -48 -4.5 -87t-1.5 -77t1 -81.5t4 -99.5l-2 -11t-10 -25.5t-25.5 -24.5t-49.5 -8zM105 -276q-26 9 -36.5 24.5t-12 28.5l-1.5 13l6 33q-19 27 -16.5 55t22 49t49.5 26q39 2 64 -8t38.5 -26t19.5 -32t7 -28q0 -22 -7.5 -46t-19.5 -43.5t-28 -29.5l-10.5 -7.5
t-29.5 -12t-45 3.5z" />
    <glyph glyph-name="Rcaron" unicode="&#x158;" horiz-adv-x="578" 
d="M135 5q-33 2 -52.5 15t-29.5 29.5t-13 29l-3 12.5q-2 28 -3.5 70.5t-2.5 94t-0.5 107t2.5 110.5t6 103l1 9.5t8 22.5t24 24.5t48 16.5q123 10 213.5 -1t139.5 -58q49 -46 65.5 -105t1.5 -116.5t-61 -101.5q-19 -19 -47 -34t-62 -24.5t-73 -12t-81 3.5l4 -127l-2.5 -11
t-11.5 -24.5t-25.5 -23.5t-45.5 -9zM382 41q-39 24 -75 44t-77 43.5t-96 55.5q-1 6 13.5 18t36 25.5t43 26t36 20.5l14.5 8q29 -13 48 -21t33.5 -15.5t30 -17t37.5 -24.5t55 -39l6.5 -6t14 -17.5t12 -26t1 -32.5t-20.5 -37q-13 -16 -32 -19t-37.5 0.5t-30.5 8.5zM216 375
q34 -3 57 0t37.5 11.5t21 21t7.5 28.5q0 22 -8.5 36t-24.5 21t-38 9t-48 -1q-3 -32 -4 -63.5t0 -62.5zM232 679l-80 51l-7.5 8t-14.5 21t-5 29.5t21 32.5q14 12 29 14.5t28 0t21.5 -5.5l8.5 -3l42 -33q11 11 25.5 22t25.5 20l10.5 3.5t26.5 2.5t32 -13q18 -13 24.5 -25.5
t6 -23t-3 -17l-2.5 -6.5q-12 -18 -23 -31t-25 -25t-36 -28q-9 -7 -27.5 -10.5t-39.5 0t-37 16.5z" />
    <glyph glyph-name="rcaron" unicode="&#x159;" horiz-adv-x="540" 
d="M123 40q-25 -2 -38.5 14.5t-19 39t-6.5 40l-1 17.5q-8 33 -10.5 52t-1.5 29.5t2.5 17.5t1.5 16q4 59 29 105.5t65 76.5t86 41q63 12 111.5 6t83 -23t54.5 -37l6 -6.5t13.5 -18t10.5 -26.5t-2 -31t-24 -33q-16 -15 -38.5 -15.5t-43 6t-34.5 13l-14 6.5q-12 6 -36 3
t-49 -17q-17 -13 -32 -28.5t-18 -35.5q-2 -21 -4 -40t-3 -37t-1 -38t1 -44l-7 -12t-26 -24.5t-55 -16.5zM136 1q-27 2 -45 12.5t-29 24.5t-15.5 24l-4.5 10q-6 54 -8.5 96t-2.5 80.5t2.5 83.5t7.5 105l2.5 10t10.5 22.5t26 22t48 8.5q33 -1 52 -14t28.5 -29.5t12.5 -29
l3 -12.5q-3 -48 -4.5 -87t-1.5 -77t1 -81.5t4 -99.5l-2 -11t-10 -25.5t-25.5 -24.5t-49.5 -8zM239 537l-80 51l-7.5 8t-14.5 21t-5 29.5t21 32.5q14 12 29 14.5t28 0t21.5 -5.5l8.5 -3l42 -33q11 11 25.5 22t25.5 20l10.5 3.5t26.5 2.5t32 -13q18 -13 24.5 -25.5t6 -23
t-3 -17l-2.5 -6.5q-12 -18 -23 -31t-25 -25t-36 -28q-9 -7 -27.5 -10.5t-39.5 0t-37 16.5z" />
    <glyph glyph-name="Sacute" unicode="&#x15a;" horiz-adv-x="557" 
d="M316 1q-58 -1 -101 4.5t-71 14.5t-42 15.5l-14 6.5l-8 5t-19 14.5t-19.5 23t-10.5 30t8 35.5q11 21 26.5 29t30 9t24.5 -1l10 -2q33 -12 68 -17t65 -4t49.5 8t20.5 19q0 6 -8.5 12t-25.5 13t-41 15.5t-54 20.5q-18 7 -42 22t-47.5 36t-41.5 47.5t-25.5 57t0.5 65t38 70.5
q31 37 67 58.5t74 31.5t73 11.5t62.5 -1t43.5 -6l16 -3.5l10.5 -3t25.5 -10t30 -18.5t23.5 -29.5t5.5 -43q-4 -28 -18 -41t-30.5 -16t-29 -1.5l-12.5 1.5q-33 11 -67.5 7t-62.5 -16t-44.5 -26t-13.5 -24t24.5 -20.5t53.5 -23t66.5 -28.5t64.5 -37t47 -48q30 -48 32 -88.5
t-16.5 -72.5t-50 -54t-69.5 -34.5t-75 -13.5zM236 669l-9 -0.5t-21.5 0.5t-25 7t-19.5 19q-12 23 -8.5 41t14.5 30.5t21 19l10 6.5q49 23 76.5 30t46.5 10l9 1t22 0t26 -6t21 -18q9 -15 8.5 -28t-5.5 -22.5t-10 -15l-5 -5.5q-16 -16 -37.5 -28t-43.5 -20.5t-40.5 -13.5
t-29.5 -7z" />
    <glyph glyph-name="sacute" unicode="&#x15b;" horiz-adv-x="496" 
d="M208 134q42 -6 42 3t-35 28q-16 9 -34 19.5t-35.5 24t-32.5 31.5t-26.5 41.5t-16.5 54.5q-8 47 16.5 85t74.5 60t119 19t150 -39l6.5 -4.5t14 -14t12.5 -23t2 -31.5q-3 -14 -11.5 -22t-18.5 -12t-17.5 -5l-7.5 -1h-4t-11 -0.5t-17.5 -1t-23 -1t-27.5 -1t-32 -1.5
q-19 -1 -30.5 -3t-11.5 -8.5t15 -19t50 -33.5q50 -30 80 -66.5t39 -74t-6 -72.5q-12 -28 -44 -45.5t-75.5 -23t-91 1t-92 26t-76.5 52.5l-5.5 7t-11 18t-5 24.5t12.5 26.5q11 12 25.5 15t28.5 0.5t23 -6l9 -3.5l6 -3t17 -7.5t25.5 -8.5t30.5 -6zM226 527l-9 -0.5t-21.5 0.5
t-25 7t-19.5 19q-12 23 -8.5 41t14.5 30.5t21 19l10 6.5q49 23 76.5 30t46.5 10l9 1t22 0t26 -6t21 -18q9 -15 8.5 -28t-5.5 -22.5t-10 -15l-5 -5.5q-16 -16 -37.5 -28t-43.5 -20.5t-40.5 -13.5t-29.5 -7z" />
    <glyph glyph-name="Scircumflex" unicode="&#x15c;" horiz-adv-x="557" 
d="M316 1q-58 -1 -101 4.5t-71 14.5t-42 15.5l-14 6.5l-8 5t-19 14.5t-19.5 23t-10.5 30t8 35.5q11 21 26.5 29t30 9t24.5 -1l10 -2q33 -12 68 -17t65 -4t49.5 8t20.5 19q0 6 -8.5 12t-25.5 13t-41 15.5t-54 20.5q-18 7 -42 22t-47.5 36t-41.5 47.5t-25.5 57t0.5 65t38 70.5
q31 37 67 58.5t74 31.5t73 11.5t62.5 -1t43.5 -6l16 -3.5l10.5 -3t25.5 -10t30 -18.5t23.5 -29.5t5.5 -43q-4 -28 -18 -41t-30.5 -16t-29 -1.5l-12.5 1.5q-33 11 -67.5 7t-62.5 -16t-44.5 -26t-13.5 -24t24.5 -20.5t53.5 -23t66.5 -28.5t64.5 -37t47 -48q30 -48 32 -88.5
t-16.5 -72.5t-50 -54t-69.5 -34.5t-75 -13.5zM159 681q-18 13 -24 25.5t-6 23t2.5 17l2.5 6.5q13 18 24 31t25 25t36 28q9 8 27.5 11t39 0t36.5 -16l81 -52l7.5 -8t14 -21t4.5 -29t-21 -33q-13 -12 -28 -14.5t-28.5 0t-22 5.5l-8.5 3l-41 33q-12 -10 -26 -21.5t-25 -20.5
l-10.5 -3t-26.5 -2.5t-33 12.5z" />
    <glyph glyph-name="scircumflex" unicode="&#x15d;" horiz-adv-x="496" 
d="M208 134q42 -6 42 3t-35 28q-16 9 -34 19.5t-35.5 24t-32.5 31.5t-26.5 41.5t-16.5 54.5q-8 47 16.5 85t74.5 60t119 19t150 -39l6.5 -4.5t14 -14t12.5 -23t2 -31.5q-3 -14 -11.5 -22t-18.5 -12t-17.5 -5l-7.5 -1h-4t-11 -0.5t-17.5 -1t-23 -1t-27.5 -1t-32 -1.5
q-19 -1 -30.5 -3t-11.5 -8.5t15 -19t50 -33.5q50 -30 80 -66.5t39 -74t-6 -72.5q-12 -28 -44 -45.5t-75.5 -23t-91 1t-92 26t-76.5 52.5l-5.5 7t-11 18t-5 24.5t12.5 26.5q11 12 25.5 15t28.5 0.5t23 -6l9 -3.5l6 -3t17 -7.5t25.5 -8.5t30.5 -6zM149 539q-18 13 -24 25.5
t-6 23t2.5 17l2.5 6.5q13 18 24 31t25 25t36 28q9 8 27.5 11t39 0t36.5 -16l81 -52l7.5 -8t14 -21t4.5 -29t-21 -33q-13 -12 -28 -14.5t-28.5 0t-22 5.5l-8.5 3l-41 33q-12 -10 -26 -21.5t-25 -20.5l-10.5 -3t-26.5 -2.5t-33 12.5z" />
    <glyph glyph-name="Scedilla" unicode="&#x15e;" horiz-adv-x="557" 
d="M316 1q-58 -1 -101 4.5t-71 14.5t-42 15.5l-14 6.5l-8 5t-19 14.5t-19.5 23t-10.5 30t8 35.5q11 21 26.5 29t30 9t24.5 -1l10 -2q33 -12 68 -17t65 -4t49.5 8t20.5 19q0 6 -8.5 12t-25.5 13t-41 15.5t-54 20.5q-18 7 -42 22t-47.5 36t-41.5 47.5t-25.5 57t0.5 65t38 70.5
q31 37 67 58.5t74 31.5t73 11.5t62.5 -1t43.5 -6l16 -3.5l10.5 -3t25.5 -10t30 -18.5t23.5 -29.5t5.5 -43q-4 -28 -18 -41t-30.5 -16t-29 -1.5l-12.5 1.5q-33 11 -67.5 7t-62.5 -16t-44.5 -26t-13.5 -24t24.5 -20.5t53.5 -23t66.5 -28.5t64.5 -37t47 -48q30 -48 32 -88.5
t-16.5 -72.5t-50 -54t-69.5 -34.5t-75 -13.5zM322 -229q-34 2 -59.5 16t-46.5 33l-5 6t-9.5 15.5t-3.5 21t13 22.5t25 12.5t22.5 -1l9.5 -2.5q16 -6 23 -13t14 -12q8 -2 13 -1t7.5 3.5t2.5 3.5q-4 7 -9 13l-10 12q-4 -1 -14.5 3.5t-19.5 11.5t-9 12q-8 20 -7 45t5 38l3 8.5
t13 17.5t31 8q20 -1 30.5 -14.5l10.5 -13.5l7 -17.5t6 -27.5q5 -3 15.5 -11.5t23 -22t21.5 -29t11 -32.5q5 -39 -9.5 -63t-42 -34t-62.5 -8z" />
    <glyph glyph-name="scedilla" unicode="&#x15f;" horiz-adv-x="496" 
d="M208 134q42 -6 42 3t-35 28q-16 9 -34 19.5t-35.5 24t-32.5 31.5t-26.5 41.5t-16.5 54.5q-8 47 16.5 85t74.5 60t119 19t150 -39l6.5 -4.5t14 -14t12.5 -23t2 -31.5q-3 -14 -11.5 -22t-18.5 -12t-17.5 -5l-7.5 -1h-4t-11 -0.5t-17.5 -1t-23 -1t-27.5 -1t-32 -1.5
q-19 -1 -30.5 -3t-11.5 -8.5t15 -19t50 -33.5q50 -30 80 -66.5t39 -74t-6 -72.5q-12 -28 -44 -45.5t-75.5 -23t-91 1t-92 26t-76.5 52.5l-5.5 7t-11 18t-5 24.5t12.5 26.5q11 12 25.5 15t28.5 0.5t23 -6l9 -3.5l6 -3t17 -7.5t25.5 -8.5t30.5 -6zM272 -258q-34 2 -59.5 16
t-46.5 33l-5 6t-9.5 15.5t-3.5 21t13 22.5t25 12.5t22.5 -1l9.5 -2.5q16 -6 23 -13t14 -12q8 -2 13 -1t7.5 3.5t2.5 3.5q-4 7 -9 13l-10 12q-4 -1 -14.5 3.5t-19.5 11.5t-9 12q-8 20 -7 45t5 38l3 8.5t13 17.5t31 8q20 -1 30.5 -14.5l10.5 -13.5l7 -17.5t6 -27.5
q5 -3 15.5 -11.5t23 -22t21.5 -29t11 -32.5q5 -39 -9.5 -63t-42 -34t-62.5 -8z" />
    <glyph glyph-name="Scaron" unicode="&#x160;" horiz-adv-x="557" 
d="M316 1q-58 -1 -101 4.5t-71 14.5t-42 15.5l-14 6.5l-8 5t-19 14.5t-19.5 23t-10.5 30t8 35.5q11 21 26.5 29t30 9t24.5 -1l10 -2q33 -12 68 -17t65 -4t49.5 8t20.5 19q0 6 -8.5 12t-25.5 13t-41 15.5t-54 20.5q-18 7 -42 22t-47.5 36t-41.5 47.5t-25.5 57t0.5 65t38 70.5
q31 37 67 58.5t74 31.5t73 11.5t62.5 -1t43.5 -6l16 -3.5l10.5 -3t25.5 -10t30 -18.5t23.5 -29.5t5.5 -43q-4 -28 -18 -41t-30.5 -16t-29 -1.5l-12.5 1.5q-33 11 -67.5 7t-62.5 -16t-44.5 -26t-13.5 -24t24.5 -20.5t53.5 -23t66.5 -28.5t64.5 -37t47 -48q30 -48 32 -88.5
t-16.5 -72.5t-50 -54t-69.5 -34.5t-75 -13.5zM236 679l-80 51l-7.5 8t-14.5 21t-5 29.5t21 32.5q14 12 29 14.5t28 0t21.5 -5.5l8.5 -3l42 -33q11 11 25.5 22t25.5 20l10.5 3.5t26.5 2.5t32 -13q18 -13 24.5 -25.5t6 -23t-3 -17l-2.5 -6.5q-12 -18 -23 -31t-25 -25t-36 -28
q-9 -7 -27.5 -10.5t-39.5 0t-37 16.5z" />
    <glyph glyph-name="scaron" unicode="&#x161;" horiz-adv-x="496" 
d="M208 134q42 -6 42 3t-35 28q-16 9 -34 19.5t-35.5 24t-32.5 31.5t-26.5 41.5t-16.5 54.5q-8 47 16.5 85t74.5 60t119 19t150 -39l6.5 -4.5t14 -14t12.5 -23t2 -31.5q-3 -14 -11.5 -22t-18.5 -12t-17.5 -5l-7.5 -1h-4t-11 -0.5t-17.5 -1t-23 -1t-27.5 -1t-32 -1.5
q-19 -1 -30.5 -3t-11.5 -8.5t15 -19t50 -33.5q50 -30 80 -66.5t39 -74t-6 -72.5q-12 -28 -44 -45.5t-75.5 -23t-91 1t-92 26t-76.5 52.5l-5.5 7t-11 18t-5 24.5t12.5 26.5q11 12 25.5 15t28.5 0.5t23 -6l9 -3.5l6 -3t17 -7.5t25.5 -8.5t30.5 -6zM226 537l-80 51l-7.5 8
t-14.5 21t-5 29.5t21 32.5q14 12 29 14.5t28 0t21.5 -5.5l8.5 -3l42 -33q11 11 25.5 22t25.5 20l10.5 3.5t26.5 2.5t32 -13q18 -13 24.5 -25.5t6 -23t-3 -17l-2.5 -6.5q-12 -18 -23 -31t-25 -25t-36 -28q-9 -7 -27.5 -10.5t-39.5 0t-37 16.5z" />
    <glyph glyph-name="uni0162" unicode="&#x162;" horiz-adv-x="613" 
d="M308 5q-32 0 -51 13t-29 29.5t-13 29l-3 12.5q-6 54 -8.5 111.5t-2 117.5t3.5 121t9 122l2 10.5t9.5 23.5t24.5 23t47 10q41 -1 62 -14t29 -30t9 -30l1 -13q-4 -41 -6 -86t-2.5 -92.5t0 -96.5t2.5 -97.5t4 -94.5l-1.5 -10.5t-9.5 -24.5t-26 -24.5t-51 -9.5zM509 480
q-39 3 -88.5 5.5t-101.5 4t-100 2t-85 0.5l-9.5 0.5t-24 3.5t-29.5 10t-26 20.5t-14 34.5q-3 22 4 36t19.5 22t25.5 11.5t22 4.5l9 1q93 11 186 16t184 -7l10.5 -2.5t25.5 -8.5t30 -16.5t25.5 -27t10.5 -39.5q0 -27 -11 -42t-26 -21t-26 -7zM320 -248q-34 2 -59.5 16
t-46.5 33l-5 6t-9.5 15.5t-3.5 21t13 22.5t25 12.5t22.5 -1l9.5 -2.5q16 -6 23 -13t14 -12q8 -2 13 -1t7.5 3.5t2.5 3.5q-4 7 -9 13l-10 12q-4 -1 -14.5 3.5t-19.5 11.5t-9 12q-8 20 -7 45t5 38l3 8.5t13 17.5t31 8q20 -1 30.5 -14.5l10.5 -13.5l7 -17.5t6 -27.5
q5 -3 15.5 -11.5t23 -22t21.5 -29t11 -32.5q5 -39 -9.5 -63t-42 -34t-62.5 -8z" />
    <glyph glyph-name="uni0163" unicode="&#x163;" horiz-adv-x="520" 
d="M260 -1q-32 0 -52.5 12.5t-31.5 29.5t-15.5 29.5l-4.5 12.5q-4 43 -7 92.5t-3.5 102t0.5 106t4 106t7 101.5l3 10t12.5 22.5t27 21t47.5 5.5q32 -3 50.5 -16.5t27.5 -29.5t12 -28l3 -12q-1 -38 -2.5 -84.5t-2.5 -97.5t-1 -104.5t1 -106.5t4 -102l-2 -10.5t-9 -24.5
t-23 -24.5t-45 -10.5zM403 333q-79 1 -149 3.5t-125 3.5l-13.5 2t-32.5 9t-34 22t-18 41q-3 23 6 37t22.5 21.5t24 10.5l10.5 3q8 1 30 2t53 2t67 1.5l72 1t68 0.5l11 -1t27 -5t31.5 -13.5t26 -25.5t9.5 -41q-1 -30 -14.5 -46t-30 -21.5t-29 -6zM272 -253q-34 2 -59.5 16
t-46.5 33l-5 6t-9.5 15.5t-3.5 21t13 22.5t25 12.5t22.5 -1l9.5 -2.5q16 -6 23 -13t14 -12q8 -2 13 -1t7.5 3.5t2.5 3.5q-4 7 -9 13l-10 12q-4 -1 -14.5 3.5t-19.5 11.5t-9 12q-8 20 -7 45t5 38l3 8.5t13 17.5t31 8q20 -1 30.5 -14.5l10.5 -13.5l7 -17.5t6 -27.5
q5 -3 15.5 -11.5t23 -22t21.5 -29t11 -32.5q5 -39 -9.5 -63t-42 -34t-62.5 -8z" />
    <glyph glyph-name="Tcaron" unicode="&#x164;" horiz-adv-x="613" 
d="M308 5q-32 0 -51 13t-29 29.5t-13 29l-3 12.5q-6 54 -8.5 111.5t-2 117.5t3.5 121t9 122l2 10.5t9.5 23.5t24.5 23t47 10q41 -1 62 -14t29 -30t9 -30l1 -13q-4 -41 -6 -86t-2.5 -92.5t0 -96.5t2.5 -97.5t4 -94.5l-1.5 -10.5t-9.5 -24.5t-26 -24.5t-51 -9.5zM509 480
q-39 3 -88.5 5.5t-101.5 4t-100 2t-85 0.5l-9.5 0.5t-24 3.5t-29.5 10t-26 20.5t-14 34.5q-3 22 4 36t19.5 22t25.5 11.5t22 4.5l9 1q93 11 186 16t184 -7l10.5 -2.5t25.5 -8.5t30 -16.5t25.5 -27t10.5 -39.5q0 -27 -11 -42t-26 -21t-26 -7zM256 679l-80 51l-7.5 8t-14.5 21
t-5 29.5t21 32.5q14 12 29 14.5t28 0t21.5 -5.5l8.5 -3l42 -33q11 11 25.5 22t25.5 20l10.5 3.5t26.5 2.5t32 -13q18 -13 24.5 -25.5t6 -23t-3 -17l-2.5 -6.5q-12 -18 -23 -31t-25 -25t-36 -28q-9 -7 -27.5 -10.5t-39.5 0t-37 16.5z" />
    <glyph glyph-name="tcaron" unicode="&#x165;" horiz-adv-x="520" 
d="M260 -1q-32 0 -52.5 12.5t-31.5 29.5t-15.5 29.5l-4.5 12.5q-4 43 -7 92.5t-3.5 102t0.5 106t4 106t7 101.5l3 10t12.5 22.5t27 21t47.5 5.5q32 -3 50.5 -16.5t27.5 -29.5t12 -28l3 -12q-1 -38 -2.5 -84.5t-2.5 -97.5t-1 -104.5t1 -106.5t4 -102l-2 -10.5t-9 -24.5
t-23 -24.5t-45 -10.5zM403 333q-79 1 -149 3.5t-125 3.5l-13.5 2t-32.5 9t-34 22t-18 41q-3 23 6 37t22.5 21.5t24 10.5l10.5 3q8 1 30 2t53 2t67 1.5l72 1t68 0.5l11 -1t27 -5t31.5 -13.5t26 -25.5t9.5 -41q-1 -30 -14.5 -46t-30 -21.5t-29 -6zM581 417q-26 8 -36.5 23.5
t-12 28.5l-1.5 13l6 34q-19 26 -16.5 54t22 49t49.5 26q39 2 64 -8t38.5 -26t19.5 -32t7 -28q0 -21 -7.5 -45.5t-19.5 -44t-28 -29.5l-10.5 -7.5t-29.5 -11.5t-45 4z" />
    <glyph glyph-name="Tbar" unicode="&#x166;" horiz-adv-x="613" 
d="M308 5q-32 0 -51 13t-29 29.5t-13 29l-3 12.5q-6 54 -8.5 111.5t-2 117.5t3.5 121t9 122l2 10.5t9.5 23.5t24.5 23t47 10q41 -1 62 -14t29 -30t9 -30l1 -13q-4 -41 -6 -86t-2.5 -92.5t0 -96.5t2.5 -97.5t4 -94.5l-1.5 -10.5t-9.5 -24.5t-26 -24.5t-51 -9.5zM198 273
q-1 0 -12 0.5t-26 4.5t-28.5 16t-20.5 34q-8 24 -4.5 39t12 24t16 12.5l7.5 3.5q29 7 57 13.5t58.5 11t69 3.5t88.5 -9l11.5 -5t27 -15.5t27 -25.5t11.5 -36q0 -27 -11 -42.5t-25.5 -22.5t-25.5 -9l-11 -2q-42 3 -66 5t-39 3t-28.5 1t-33 -1t-54.5 -3zM134 492q-2 0 -16.5 1
t-33.5 7t-34.5 20t-18.5 41q-3 22 4 36t19.5 22t25.5 11.5t22 4.5l9 1q93 11 186 16t184 -7l10.5 -2.5t25.5 -8.5t30 -16.5t25.5 -27t10.5 -39.5q0 -27 -11 -42t-26 -21t-26 -7l-11 -1q-39 3 -88.5 5.5t-101.5 4t-100 2t-85 0.5z" />
    <glyph glyph-name="tbar" unicode="&#x167;" horiz-adv-x="520" 
d="M260 -1q-32 0 -52.5 12.5t-31.5 29.5t-15.5 29.5l-4.5 12.5q-4 43 -7 92.5t-3.5 102t0.5 106t4 106t7 101.5l3 10t12.5 22.5t27 21t47.5 5.5q32 -3 50.5 -16.5t27.5 -29.5t12 -28l3 -12q-1 -38 -2.5 -84.5t-2.5 -97.5t-1 -104.5t1 -106.5t4 -102l-2 -10.5t-9 -24.5
t-23 -24.5t-45 -10.5zM132 167h-10.5t-21.5 3.5t-23.5 13t-17.5 28.5q-6 20 -3 33t10 20.5t13 10.5l6 3q25 6 58.5 11.5t72.5 9t81 2.5t84 -8l9.5 -4t22.5 -12.5t22.5 -21.5t9.5 -30q0 -22 -9 -35t-21.5 -19.5t-21.5 -8l-9 -1.5q-44 3 -75.5 5t-58 3t-54.5 0t-64 -3z
M129 340q-2 0 -16 2t-32 9t-32.5 22t-17.5 41q-3 23 6 37t22.5 21.5t24 10.5l10.5 3q8 1 30 2t53 2t67 1.5l72 1t68 0.5l11 -1t27 -5t31.5 -13.5t26 -25.5t9.5 -41q-1 -30 -14.5 -46t-30 -21.5t-29 -6l-12.5 -0.5q-79 1 -149 3.5t-125 3.5z" />
    <glyph glyph-name="Utilde" unicode="&#x168;" horiz-adv-x="628" 
d="M321 -3q-86 6 -150 43t-100.5 111.5t-40.5 192.5v250l2.5 9t10 20.5t23.5 20.5t44 9q38 0 60.5 -13t33.5 -30t14 -30l3 -13l4 -234q1 -58 14.5 -94.5t33 -54t38.5 -21.5q31 5 50 28.5t28 73.5t9 135l-2 173l0.5 11t6.5 25.5t23.5 25.5t50.5 11q34 0 56 -12t34 -29.5
t17.5 -35.5t7 -30l1.5 -12l5 -178q0 -72 -12.5 -134.5t-43 -110.5t-84.5 -76t-137 -31zM223 672q-16 -7 -32 -3.5t-26 10l-10 6.5q-24 20 -28.5 44t4.5 47t28.5 38.5t43.5 18.5q39 5 65 -0.5t47 -16.5t45 -24q3 0 4.5 5.5t5.5 10.5l7.5 7.5t24 12.5t41.5 -2q27 -7 39.5 -20
t16.5 -25.5t3 -21.5l-1 -9q-1 -16 -19 -41.5t-50 -34.5q-20 -6 -40 -6.5t-39.5 4t-41.5 13.5q-12 4 -24 10.5t-21.5 13t-14.5 9.5l-0.5 -8.5t-6 -19t-21.5 -18.5z" />
    <glyph glyph-name="utilde" unicode="&#x169;" horiz-adv-x="618" 
d="M239 7q-22 5 -50 18t-56.5 37t-52.5 62t-39 95q-10 48 -10.5 93t9.5 110l3 14.5t14 31t34 26t63 -1.5q34 -9 50 -28t21 -39t4.5 -34.5l-0.5 -14.5q-9 -50 -6.5 -101.5t19.5 -83.5q10 -15 25.5 -21.5t33.5 -5.5t33 7t23 15q6 9 8 37.5t0 60.5t-9 52q-6 22 -10 37
t-5.5 27.5t-2.5 25.5l1 10t8 23.5t24 24.5t48 13q30 3 53.5 -10t37.5 -26.5l14 -13.5q14 -18 32 -54.5t26 -81.5q8 -54 5 -92.5t-15.5 -69.5t-34.5 -64q-23 -28 -57.5 -48t-75.5 -30.5t-83.5 -11t-81.5 11.5zM192 530q-16 -7 -32 -3.5t-26 10l-10 6.5q-24 20 -28.5 44
t4.5 47t28.5 38.5t43.5 18.5q39 5 65 -0.5t47 -16.5t45 -24q3 0 4.5 5.5t5.5 10.5l7.5 7.5t24 12.5t41.5 -2q27 -7 39.5 -20t16.5 -25.5t3 -21.5l-1 -9q-1 -16 -19 -41.5t-50 -34.5q-20 -6 -40 -6.5t-39.5 4t-41.5 13.5q-12 4 -24 10.5t-21.5 13t-14.5 9.5l-0.5 -8.5t-6 -19
t-21.5 -18.5z" />
    <glyph glyph-name="Umacron" unicode="&#x16a;" horiz-adv-x="628" 
d="M321 -3q-86 6 -150 43t-100.5 111.5t-40.5 192.5v250l2.5 9t10 20.5t23.5 20.5t44 9q38 0 60.5 -13t33.5 -30t14 -30l3 -13l4 -234q1 -58 14.5 -94.5t33 -54t38.5 -21.5q31 5 50 28.5t28 73.5t9 135l-2 173l0.5 11t6.5 25.5t23.5 25.5t50.5 11q34 0 56 -12t34 -29.5
t17.5 -35.5t7 -30l1.5 -12l5 -178q0 -72 -12.5 -134.5t-43 -110.5t-84.5 -76t-137 -31zM506 744q0 -27 -11 -42.5t-25.5 -22.5t-25.5 -9l-11 -2q-42 3 -66 5t-39 3t-28.5 1t-33 -1t-54.5 -3l-10.5 0.5t-26 4.5t-29.5 16t-21 34q-8 24 -4.5 39t12 24t16 12.5l7.5 3.5
q29 7 57 13.5t58.5 11t69 3.5t88.5 -9l11.5 -5t27 -15.5t27 -25.5t11.5 -36z" />
    <glyph glyph-name="umacron" unicode="&#x16b;" horiz-adv-x="618" 
d="M239 7q-22 5 -50 18t-56.5 37t-52.5 62t-39 95q-10 48 -10.5 93t9.5 110l3 14.5t14 31t34 26t63 -1.5q34 -9 50 -28t21 -39t4.5 -34.5l-0.5 -14.5q-9 -50 -6.5 -101.5t19.5 -83.5q10 -15 25.5 -21.5t33.5 -5.5t33 7t23 15q6 9 8 37.5t0 60.5t-9 52q-6 22 -10 37
t-5.5 27.5t-2.5 25.5l1 10t8 23.5t24 24.5t48 13q30 3 53.5 -10t37.5 -26.5l14 -13.5q14 -18 32 -54.5t26 -81.5q8 -54 5 -92.5t-15.5 -69.5t-34.5 -64q-23 -28 -57.5 -48t-75.5 -30.5t-83.5 -11t-81.5 11.5zM475 602q0 -27 -11 -42.5t-25.5 -22.5t-25.5 -9l-11 -2
q-42 3 -66 5t-39 3t-28.5 1t-33 -1t-54.5 -3l-10.5 0.5t-26 4.5t-29.5 16t-21 34q-8 24 -4.5 39t12 24t16 12.5l7.5 3.5q29 7 57 13.5t58.5 11t69 3.5t88.5 -9l11.5 -5t27 -15.5t27 -25.5t11.5 -36z" />
    </font>
</defs>
</svg>
